<svg width="60" height="48" viewBox="0 0 60 48" fill="none" xmlns="http://www.w3.org/2000/svg">
<path d="M38.5278 29C38.5278 23.2097 37.2249 19.8209 32.9666 18.7488H32.969C32.969 17.2644 35.75 13.1016 35.75 11.5C35.75 11.0052 35.5475 9.625 33.6667 9.625C31.8149 9.625 32.5961 10.875 31.5833 10.875C30.5706 10.875 30.7442 9.625 28.8056 9.625C26.8669 9.625 26.0278 12.125 26.0278 12.125C26.0278 12.125 23.25 11.9427 23.25 13.375C23.25 14.7031 26.0201 17.2932 26.0201 18.7515H26.0245C21.7736 19.8263 20.4722 23.214 20.4722 29C20.4722 29 17.6945 32.6458 17.6945 35.25C17.6945 37.8541 25.0729 38.375 29.5 38.375C33.9271 38.375 41.3056 37.8541 41.3056 35.25C41.3056 32.6458 38.5278 29 38.5278 29Z" fill="#FF0012"/>
<path opacity="0.2" d="M22.7148 35.25C22.7148 32.6458 24.3113 29 24.3113 29C24.3113 23.214 25.0593 19.8263 27.5025 18.7515H27.4999C27.4999 17.2932 25.9078 14.7031 25.9078 13.375C25.9078 11.9427 27.5043 12.125 27.5043 12.125C27.5043 12.125 27.9696 9.75066 29.0317 9.64415C28.9534 9.63942 28.892 9.625 28.8056 9.625C26.8669 9.625 26.0278 12.125 26.0278 12.125C26.0278 12.125 23.25 11.9427 23.25 13.375C23.25 14.7031 26.0201 17.2932 26.0201 18.7515H26.0245C21.7736 19.8263 20.4722 23.214 20.4722 29C20.4722 29 17.6945 32.6458 17.6945 35.25C17.6945 37.8541 25.0729 38.375 29.5 38.375C26.9555 38.375 22.7148 37.8541 22.7148 35.25Z" fill="white"/>
<path opacity="0.1" d="M38.5278 29C38.5278 23.2097 37.2249 19.8209 32.9666 18.7488H32.969C32.969 17.2644 35.75 13.1016 35.75 11.5C35.75 11.0052 35.5475 9.625 33.6667 9.625C33.099 9.625 32.7933 9.74791 32.593 9.91087C33.0259 10.3407 33.0922 11.145 33.0922 11.5C33.0922 13.1016 31.4938 17.2644 31.4938 18.7488H31.4925C33.9399 19.8209 34.6888 23.2097 34.6888 29C34.6888 29 36.2852 32.6458 36.2852 35.25C36.2852 37.8541 32.0445 38.375 29.5 38.375C33.9271 38.375 41.3056 37.8541 41.3056 35.25C41.3056 32.6458 38.5278 29 38.5278 29Z" fill="black"/>
<path d="M37.8333 14.625C36.145 14.625 33.2483 16.1022 31.2092 17.9316C30.8328 17.445 30.2087 17.125 29.5 17.125C28.8254 17.125 28.2318 17.4183 27.8511 17.8658L27.8506 17.847C25.8107 16.0111 22.8594 14.625 21.1667 14.625C19.474 14.625 20.4722 17.3203 20.4722 18.375C20.4722 19.4297 20.2118 22.125 21.8611 22.125C22.8657 22.125 24.8878 21.4094 26.3169 20.8494L24.6389 24.625L26.7222 24L27.4167 25.875L29.5 20.875L31.5833 25.875L32.2778 24L34.3611 24.625L32.8301 20.8356C34.2196 21.4092 36.1495 22.125 37.1389 22.125C38.7882 22.125 38.5278 19.4297 38.5278 18.375C38.5278 17.3203 39.5261 14.625 37.8333 14.625Z" fill="#F8F8F8"/>
<path d="M21.1667 15.875C22.8594 15.875 25.8107 17.2611 27.8506 19.097L27.8511 19.1158C28.2318 18.6683 28.8254 18.375 29.5 18.375C30.2087 18.375 30.8328 18.695 31.2091 19.1816C33.2482 17.3522 36.1449 15.875 37.8333 15.875C38.4135 15.875 38.6641 16.2033 38.7605 16.662C38.895 15.6363 38.8698 14.625 37.8333 14.625C36.1449 14.625 33.2482 16.1022 31.2091 17.9316C30.8328 17.445 30.2087 17.125 29.5 17.125C28.8254 17.125 28.2318 17.4183 27.8511 17.8658L27.8506 17.847C25.8107 16.0111 22.8594 14.625 21.1667 14.625C20.1302 14.625 20.105 15.6363 20.2394 16.662C20.3359 16.2033 20.5865 15.875 21.1667 15.875Z" fill="white"/>
<path d="M39.2222 28.8102C39.2077 26.0472 38.8857 23.9841 38.2212 22.3925C38.2806 22.3503 38.3529 22.3287 38.4071 22.2788C39.29 21.4677 39.2534 19.835 39.229 18.7546L39.2222 18.375C39.2222 18.1412 39.2805 17.819 39.3389 17.4656C39.5193 16.3914 39.7227 15.1743 39.05 14.4706C38.8452 14.2557 38.4667 14 37.8333 14C37.156 14 36.3128 14.2061 35.4089 14.5615C35.9826 13.3534 36.4444 12.2548 36.4444 11.5C36.4444 10.3464 35.7174 9 33.6667 9C32.1421 9 31.7922 9.74524 31.6037 10.1456C31.5847 10.1841 31.563 10.2317 31.563 10.2494C31.4884 10.2469 31.4409 10.2195 31.2117 9.98572C30.8265 9.59326 30.2433 9 28.8056 9C26.9419 9 25.9342 10.6663 25.549 11.4933C24.8898 11.5092 23.7925 11.6251 23.1279 12.1818C22.7536 12.4949 22.5556 12.9075 22.5556 13.375C22.5556 13.6449 22.6438 13.9392 22.7761 14.2536C22.1908 14.0906 21.6433 14 21.1667 14C20.5333 14 20.1548 14.2557 19.95 14.4706C19.2773 15.1743 19.4807 16.3914 19.6611 17.4656C19.7195 17.819 19.7778 18.1412 19.7778 18.375L19.771 18.7546C19.7466 19.835 19.71 21.4677 20.5929 22.2788C20.6474 22.3289 20.7199 22.3506 20.7796 22.3929C20.1142 23.9844 19.7923 26.047 19.7778 28.8102C19.2217 29.5737 17 32.7775 17 35.25C17 38.5129 24.8315 39 29.5 39C34.1685 39 42 38.5129 42 35.25C42 32.7775 39.7783 29.5737 39.2222 28.8102ZM37.9974 15.286C38.2552 15.5552 38.0666 16.6764 37.9663 17.2788C37.8944 17.7048 37.8333 18.0936 37.8333 18.375L37.8401 18.7803C37.8564 19.4901 37.8903 20.9678 37.4156 21.4036C37.0807 21.7148 34.911 20.9879 33.089 20.2494C33.0886 20.2493 33.0884 20.249 33.0879 20.2489C32.7397 20.1078 32.4141 19.9692 32.1068 19.8344C32.2108 19.5721 32.2778 19.294 32.2778 19C32.2778 18.6684 32.2022 18.3532 32.0714 18.0633C33.9623 16.4873 36.4586 15.25 37.8333 15.25C37.9188 15.25 37.9744 15.2622 37.9974 15.286ZM33.2082 23.6204L32.4975 23.4073C32.1367 23.3005 31.742 23.4745 31.6186 23.8022L31.5454 24.0024L30.4366 21.3434C30.7626 21.2375 31.057 21.079 31.3136 20.8781C31.5546 20.9862 31.8745 21.1269 32.2512 21.2857L33.2082 23.6204ZM30.8889 19C30.8889 19.6891 30.2663 20.25 29.5 20.25C28.7337 20.25 28.1111 19.6891 28.1111 19C28.1111 18.3109 28.7337 17.75 29.5 17.75C30.2663 17.75 30.8889 18.3109 30.8889 19ZM26.8107 21.3392C27.1964 21.1858 27.5253 21.0495 27.775 20.9439C28.0107 21.1138 28.2742 21.2494 28.5634 21.3434L27.4546 24.0024L27.3814 23.8022C27.2593 23.4745 26.8687 23.2993 26.5025 23.4073L25.8243 23.6106L26.8107 21.3392ZM23.9444 13.375C23.9444 13.2548 23.9811 13.1742 24.0733 13.0979C24.4666 12.7689 25.5205 12.7195 25.9789 12.7482C26.2977 12.7708 26.5961 12.5858 26.6924 12.3069C26.6992 12.2867 27.4316 10.25 28.8056 10.25C29.618 10.25 29.8621 10.4984 30.1714 10.8134C30.4548 11.1033 30.8455 11.5 31.5833 11.5C32.4744 11.5 32.7498 10.9147 32.8827 10.6327C33.0129 10.3544 33.0631 10.25 33.6667 10.25C34.8141 10.25 35.0556 10.9299 35.0556 11.5C35.0556 12.1885 34.3245 13.6887 33.6789 15.0126L33.428 15.5289C32.6687 15.9703 31.9239 16.4936 31.2319 17.0611C30.7554 16.7156 30.158 16.5 29.5 16.5C28.881 16.5 28.3144 16.6895 27.8521 16.9989C26.9081 16.2256 25.8398 15.5445 24.7767 15.0295C24.4677 14.5756 23.9444 13.7763 23.9444 13.375ZM21.0025 15.286C21.0256 15.2622 21.0812 15.25 21.1667 15.25C22.4412 15.25 24.9454 16.2869 26.9752 17.9709C26.8161 18.2857 26.7222 18.6323 26.7222 19C26.7222 19.3258 26.7967 19.6352 26.9231 19.9209C24.9496 20.7332 21.9778 21.7668 21.5844 21.4036C21.1097 20.9678 21.1436 19.4901 21.1599 18.7803L21.1667 18.375C21.1667 18.0936 21.1056 17.7048 21.0337 17.2788C20.9334 16.6764 20.7448 15.5552 21.0025 15.286ZM29.5 37.75C22.9584 37.75 18.3889 36.7222 18.3889 35.25C18.3889 32.8721 21.0188 29.3882 21.0446 29.3534C21.1246 29.249 21.1667 29.1257 21.1667 29C21.1667 26.2295 21.4752 24.2257 22.1258 22.735C22.8957 22.6726 23.982 22.3633 25.0314 22.0025L23.9919 24.3973C23.8943 24.6232 23.9499 24.8801 24.1357 25.0559C24.3201 25.2311 24.6023 25.2958 24.8586 25.2177L26.2828 24.7904L26.7575 26.0728C26.8511 26.3236 27.1101 26.4951 27.4045 26.5C27.4085 26.5 27.4126 26.5 27.4167 26.5C27.7056 26.5 27.9646 26.3389 28.0664 26.0947L29.5 22.6539L30.9336 26.0947C31.0354 26.3389 31.2944 26.5 31.5833 26.5C31.5874 26.5 31.5915 26.5 31.5955 26.5C31.8899 26.4951 32.1489 26.3236 32.2425 26.0728L32.7172 24.7904L34.1414 25.2177C34.3964 25.2952 34.6744 25.2335 34.8602 25.0596C35.0461 24.8875 35.1044 24.6342 35.0122 24.4083L34.0163 21.9809C35.0422 22.3524 36.1079 22.6705 36.875 22.7346C37.5246 24.2252 37.8333 26.2292 37.8333 29C37.8333 29.1263 37.8754 29.2496 37.9554 29.3534C37.9812 29.3882 40.6111 32.8672 40.6111 35.25C40.6111 36.7222 36.0416 37.75 29.5 37.75Z" fill="#2BB3BC"/>
<path fill-rule="evenodd" clip-rule="evenodd" d="M29.9952 26.6248C29.9541 26.6254 29.9136 26.6341 29.8759 26.6504C29.8383 26.6667 29.8042 26.6903 29.7756 26.7198C29.747 26.7493 29.7246 26.7841 29.7094 26.8222C29.6943 26.8604 29.6869 26.9012 29.6875 26.9422V35.058C29.687 35.0994 29.6946 35.1406 29.71 35.179C29.7255 35.2174 29.7484 35.2524 29.7775 35.2819C29.8066 35.3114 29.8412 35.3348 29.8794 35.3508C29.9176 35.3667 29.9586 35.375 30 35.375C30.0415 35.375 30.0825 35.3667 30.1207 35.3508C30.1589 35.3348 30.1935 35.3114 30.2226 35.2819C30.2517 35.2524 30.2746 35.2174 30.29 35.179C30.3055 35.1406 30.3131 35.0994 30.3125 35.058V26.9422C30.3132 26.9003 30.3054 26.8588 30.2897 26.82C30.274 26.7811 30.2507 26.7459 30.221 26.7163C30.1914 26.6867 30.1562 26.6633 30.1174 26.6476C30.0786 26.6319 30.037 26.6241 29.9952 26.6248V26.6248Z" fill="#F8F8F8"/>
<path fill-rule="evenodd" clip-rule="evenodd" d="M29.068 26.9397C29.0005 26.9393 28.9346 26.9607 28.8803 27.0008C28.826 27.0409 28.7861 27.0976 28.7667 27.1622C28.7472 27.2269 28.7492 27.2961 28.7724 27.3595C28.7956 27.423 28.8387 27.4772 28.8953 27.5141L29.8255 28.1391C29.877 28.1738 29.9378 28.1924 30 28.1924C30.0622 28.1924 30.123 28.1738 30.1746 28.1391L31.1048 27.5141C31.1388 27.4911 31.168 27.4617 31.1907 27.4275C31.2134 27.3933 31.2292 27.3549 31.237 27.3146C31.2449 27.2743 31.2448 27.2329 31.2366 27.1926C31.2285 27.1524 31.2125 27.1142 31.1896 27.0801C31.1667 27.046 31.1373 27.0168 31.103 26.9941C31.0688 26.9714 31.0305 26.9557 30.9902 26.9478C30.9499 26.9399 30.9084 26.9401 30.8682 26.9482C30.8279 26.9564 30.7897 26.9723 30.7556 26.9953L30 27.5031L29.2444 26.9953C29.1926 26.9594 29.1311 26.94 29.068 26.9397V26.9397Z" fill="#F8F8F8"/>
<path fill-rule="evenodd" clip-rule="evenodd" d="M29.9976 33.8057C29.9363 33.8061 29.8764 33.8246 29.8255 33.8588L28.8953 34.4844C28.8612 34.5073 28.832 34.5367 28.8093 34.5709C28.7866 34.6052 28.7709 34.6435 28.763 34.6838C28.7551 34.7241 28.7553 34.7655 28.7634 34.8058C28.7716 34.846 28.7875 34.8843 28.8105 34.9183C28.8334 34.9524 28.8628 34.9816 28.897 35.0043C28.9312 35.027 28.9696 35.0428 29.0099 35.0506C29.0502 35.0585 29.0916 35.0584 29.1319 35.0503C29.1721 35.0421 29.2104 35.0261 29.2444 35.0032L30 34.4948L30.7557 35.0032C30.7897 35.0261 30.828 35.0421 30.8682 35.0503C30.9085 35.0584 30.9499 35.0585 30.9902 35.0506C31.0305 35.0428 31.0689 35.027 31.1031 35.0043C31.1373 34.9816 31.1667 34.9524 31.1896 34.9183C31.2126 34.8843 31.2285 34.846 31.2367 34.8058C31.2448 34.7655 31.245 34.7241 31.2371 34.6838C31.2292 34.6435 31.2135 34.6052 31.1908 34.5709C31.1681 34.5367 31.1389 34.5073 31.1048 34.4844L30.1746 33.8588C30.1223 33.8236 30.0606 33.8051 29.9976 33.8057V33.8057Z" fill="#F8F8F8"/>
<path fill-rule="evenodd" clip-rule="evenodd" d="M33.5279 28.6586C33.4683 28.6568 33.4094 28.672 33.3582 28.7025L26.3294 32.7608C26.2922 32.7804 26.2593 32.8073 26.2327 32.8399C26.2061 32.8725 26.1864 32.9102 26.1747 32.9506C26.1631 32.991 26.1597 33.0334 26.1648 33.0752C26.1699 33.1169 26.1834 33.1572 26.2044 33.1937C26.2255 33.2301 26.2537 33.2619 26.2873 33.2872C26.3209 33.3125 26.3593 33.3307 26.4002 33.3408C26.441 33.3508 26.4835 33.3525 26.525 33.3458C26.5666 33.3391 26.6063 33.324 26.6419 33.3015L33.6707 29.2439C33.7304 29.2106 33.7776 29.1586 33.8049 29.0959C33.8323 29.0333 33.8383 28.9633 33.8221 28.8969C33.8059 28.8305 33.7683 28.7711 33.7152 28.7281C33.662 28.6851 33.5962 28.6607 33.5279 28.6586V28.6586Z" fill="#F8F8F8"/>
<path fill-rule="evenodd" clip-rule="evenodd" d="M32.7631 28.0055C32.6857 28.0092 32.6125 28.0414 32.5576 28.096C32.5027 28.1506 32.47 28.2236 32.4658 28.3009L32.3895 29.4191C32.3853 29.4811 32.3996 29.5429 32.4307 29.5968C32.4618 29.6506 32.5082 29.6939 32.5641 29.7212L33.5706 30.2144C33.6074 30.2324 33.6475 30.243 33.6885 30.2456C33.7294 30.2481 33.7705 30.2426 33.8093 30.2293C33.8482 30.216 33.884 30.1951 33.9148 30.168C33.9455 30.1408 33.9707 30.1078 33.9887 30.071C34.0067 30.0341 34.0173 29.994 34.0199 29.953C34.0224 29.9121 34.0169 29.871 34.0036 29.8322C33.9902 29.7933 33.9694 29.7575 33.9422 29.7268C33.9151 29.696 33.8821 29.6709 33.8452 29.6528L33.0273 29.2524L33.0896 28.3436C33.0933 28.2993 33.0875 28.2547 33.0725 28.2127C33.0576 28.1708 33.0339 28.1326 33.003 28.1006C32.972 28.0685 32.9346 28.0435 32.8933 28.0271C32.8519 28.0107 32.8075 28.0033 32.7631 28.0055V28.0055Z" fill="#F8F8F8"/>
<path fill-rule="evenodd" clip-rule="evenodd" d="M26.2787 31.7523C26.2085 31.7544 26.1411 31.7801 26.0873 31.8252C26.0335 31.8704 25.9964 31.9323 25.9821 32.001C25.9678 32.0698 25.977 32.1413 26.0084 32.2042C26.0397 32.267 26.0913 32.3175 26.1548 32.3474L26.9727 32.7478L26.9104 33.6566C26.9076 33.6976 26.9129 33.7387 26.926 33.7776C26.9391 33.8166 26.9597 33.8525 26.9867 33.8835C27.0136 33.9144 27.0464 33.9397 27.0832 33.958C27.12 33.9763 27.16 33.9871 27.201 33.9899C27.2419 33.9927 27.283 33.9875 27.3219 33.9744C27.3609 33.9613 27.3968 33.9407 27.4278 33.9137C27.4587 33.8867 27.484 33.8539 27.5023 33.8171C27.5206 33.7803 27.5314 33.7403 27.5342 33.6994L27.6105 32.5812C27.6147 32.5192 27.6004 32.4573 27.5693 32.4035C27.5382 32.3497 27.4918 32.3064 27.4359 32.2791L26.4295 31.7859C26.3828 31.7623 26.331 31.7508 26.2787 31.7523V31.7523Z" fill="#F8F8F8"/>
<path fill-rule="evenodd" clip-rule="evenodd" d="M26.4625 28.6549C26.3951 28.6591 26.3309 28.685 26.2795 28.7287C26.228 28.7725 26.1921 28.8317 26.1772 28.8975C26.1622 28.9633 26.1689 29.0322 26.1964 29.0939C26.2238 29.1555 26.2705 29.2067 26.3294 29.2396L33.3582 33.2979C33.3937 33.3184 33.433 33.3317 33.4737 33.337C33.5144 33.3424 33.5557 33.3397 33.5954 33.3291C33.635 33.3184 33.6722 33.3001 33.7047 33.2751C33.7373 33.2501 33.7646 33.219 33.7851 33.1834C33.8057 33.1479 33.819 33.1086 33.8243 33.0679C33.8297 33.0272 33.827 32.9859 33.8163 32.9462C33.8057 32.9066 33.7874 32.8694 33.7624 32.8369C33.7374 32.8043 33.7062 32.777 33.6707 32.7565L26.6419 28.6982C26.5878 28.6661 26.5253 28.651 26.4625 28.6549V28.6549Z" fill="#F8F8F8"/>
<path fill-rule="evenodd" clip-rule="evenodd" d="M33.7122 31.7524C33.663 31.7523 33.6145 31.7638 33.5706 31.786L32.5641 32.2792C32.5082 32.3065 32.4618 32.3498 32.4307 32.4036C32.3996 32.4574 32.3853 32.5193 32.3895 32.5813L32.4658 33.6995C32.4686 33.7404 32.4795 33.7804 32.4977 33.8172C32.516 33.854 32.5413 33.8868 32.5723 33.9138C32.6032 33.9408 32.6392 33.9614 32.6781 33.9745C32.717 33.9875 32.7581 33.9928 32.7991 33.99C32.84 33.9872 32.88 33.9764 32.9168 33.9581C32.9536 33.9398 32.9864 33.9145 33.0134 33.8836C33.0403 33.8526 33.061 33.8167 33.074 33.7777C33.0871 33.7388 33.0924 33.6977 33.0896 33.6567L33.0273 32.7479L33.8452 32.3475C33.9094 32.3172 33.9613 32.2659 33.9924 32.2022C34.0236 32.1384 34.0322 32.066 34.0167 31.9968C34.0012 31.9275 33.9626 31.8656 33.9073 31.8212C33.8519 31.7768 33.7831 31.7526 33.7122 31.7524V31.7524Z" fill="#F8F8F8"/>
<path fill-rule="evenodd" clip-rule="evenodd" d="M27.2272 28.0054C27.1836 28.0047 27.1403 28.0131 27.1001 28.0301C27.0599 28.0471 27.0237 28.0724 26.9939 28.1042C26.964 28.1361 26.9412 28.1739 26.9268 28.2151C26.9124 28.2563 26.9069 28.3 26.9105 28.3436L26.9727 29.2524L26.1548 29.6528C26.0804 29.6892 26.0234 29.7537 25.9965 29.8321C25.9696 29.9105 25.975 29.9964 26.0114 30.0708C26.0478 30.1453 26.1123 30.2023 26.1907 30.2292C26.2691 30.2561 26.355 30.2507 26.4295 30.2143L27.436 29.7211C27.4918 29.6938 27.5382 29.6505 27.5693 29.5967C27.6004 29.5429 27.6148 29.481 27.6105 29.419L27.5342 28.3008C27.5299 28.2219 27.4958 28.1475 27.4389 28.0927C27.3819 28.0379 27.3063 28.0067 27.2272 28.0054V28.0054Z" fill="#F8F8F8"/>
<path d="M31.3513 28.5153C31.3054 28.5022 31.2572 28.4997 31.2103 28.508C31.1633 28.5162 31.1189 28.5352 31.0804 28.5632L30.0002 29.352L28.9196 28.563C28.8706 28.5274 28.8123 28.5068 28.7517 28.5036C28.6912 28.5005 28.631 28.515 28.5786 28.5453C28.5261 28.5756 28.4836 28.6204 28.4562 28.6744C28.4288 28.7283 28.4177 28.789 28.4243 28.8491L28.5683 30.1755L27.3432 30.714C27.2877 30.7385 27.2404 30.7785 27.2073 30.8293C27.1742 30.8801 27.1566 30.9394 27.1567 31C27.1568 31.0606 27.1745 31.1198 27.2078 31.1705C27.2411 31.2212 27.2884 31.2611 27.3441 31.2854L28.569 31.8245L28.4235 33.1516C28.417 33.2118 28.4281 33.2725 28.4556 33.3265C28.4831 33.3805 28.5257 33.4253 28.5783 33.4555C28.6308 33.4858 28.6911 33.5001 28.7517 33.4968C28.8123 33.4935 28.8706 33.4727 28.9196 33.4369L29.9997 32.6481L31.0804 33.4371C31.1294 33.4727 31.1877 33.4933 31.2482 33.4965C31.3088 33.4996 31.369 33.4852 31.4214 33.4549C31.4739 33.4245 31.5164 33.3797 31.5438 33.3257C31.5711 33.2718 31.5822 33.211 31.5757 33.1509L31.4316 31.8246L32.6567 31.2861C32.7123 31.2616 32.7595 31.2215 32.7926 31.1708C32.8258 31.12 32.8434 31.0607 32.8433 31.0001C32.8432 30.9395 32.8254 30.8803 32.7922 30.8296C32.7589 30.7789 32.7115 30.739 32.6559 30.7147L31.4309 30.1756L31.5765 28.8485C31.5843 28.7754 31.566 28.7019 31.5248 28.641C31.4836 28.58 31.4221 28.5355 31.3513 28.5153H31.3513ZM30.8772 29.4854L30.7837 30.3359C30.7767 30.4018 30.7909 30.4683 30.8243 30.5256C30.8576 30.583 30.9085 30.6282 30.9694 30.6548L31.7543 31.0005L30.9696 31.3451C30.9087 31.3719 30.8579 31.4174 30.8247 31.4749C30.7915 31.5324 30.7775 31.599 30.7848 31.665L30.8781 32.516L30.1845 32.0096C30.131 31.9706 30.0664 31.9496 30 31.9496C29.9337 31.9496 29.8691 31.9706 29.8156 32.0096L29.1228 32.5147L29.2162 31.6642C29.2232 31.5983 29.209 31.5318 29.1757 31.4745C29.1423 31.4172 29.0915 31.3719 29.0306 31.3453L28.2456 30.9996L29.0304 30.655C29.0913 30.6282 29.142 30.5828 29.1753 30.5252C29.2085 30.4677 29.2225 30.4011 29.2152 30.3352L29.1219 29.4841L29.8154 29.9905C29.869 30.0295 29.9336 30.0505 29.9999 30.0505C30.0662 30.0505 30.1308 30.0295 30.1844 29.9905L30.8772 29.4854V29.4854Z" fill="#F8F8F8"/>
</svg>
