<?xml version="1.0" encoding="UTF-8"?>
<svg xmlns="http://www.w3.org/2000/svg" xmlns:xlink="http://www.w3.org/1999/xlink" width="60px" height="48px" viewBox="0 0 60 48" version="1.1">
<g id="surface1">
<path style=" stroke:none;fill-rule:evenodd;fill:rgb(85.098039%,26.666667%,32.156863%);fill-opacity:1;" d="M 30.871094 0 C 43.554688 -0.0078125 54.210938 6.859375 55.589844 15.9375 C 56.042969 18.820312 56.289062 21.726562 56.316406 24.632812 L 50.179688 24.632812 Z M 30.871094 0 "/>
<path style=" stroke:none;fill-rule:evenodd;fill:rgb(78.823529%,22.745098%,29.803922%);fill-opacity:1;" d="M 52.871094 21.519531 C 52.820312 21.519531 52.777344 21.519531 52.734375 21.523438 C 52.570312 21.539062 52.414062 21.570312 52.257812 21.601562 C 52.097656 21.628906 51.933594 21.65625 51.773438 21.699219 C 51.613281 21.726562 51.453125 21.773438 51.300781 21.820312 C 51.261719 21.828125 51.242188 21.835938 51.214844 21.851562 C 50.417969 20.351562 49.332031 18.9375 47.996094 17.652344 C 49.257812 17.492188 50.179688 16.710938 50.179688 15.792969 L 50.179688 13.261719 C 50.179688 12.765625 49.898438 12.28125 49.402344 11.921875 C 48.914062 11.570312 48.242188 11.367188 47.539062 11.367188 L 46.613281 11.367188 C 45.964844 5.320312 39.304688 0.511719 30.910156 0.0429688 L 30.882812 0 L 30.988281 0 C 31.339844 0 31.695312 0.0078125 32.066406 0.015625 C 32.734375 0.0429688 33.402344 0.0859375 34.070312 0.148438 C 41.886719 1.046875 47.835938 5.679688 48.429688 11.367188 L 49.375 11.367188 C 50.078125 11.367188 50.746094 11.570312 51.242188 11.921875 C 51.730469 12.28125 52.007812 12.765625 52.007812 13.261719 L 52.007812 15.792969 C 52.007812 16.710938 51.09375 17.492188 49.835938 17.648438 C 51.070312 18.835938 52.085938 20.140625 52.871094 21.519531 Z M 52.871094 21.519531 "/>
<path style=" stroke:none;fill-rule:evenodd;fill:rgb(89.411765%,90.980392%,92.156863%);fill-opacity:1;" d="M 59.820312 25.898438 C 59.820312 28.335938 57.074219 30.320312 53.6875 30.320312 C 50.292969 30.320312 47.539062 28.335938 47.539062 25.898438 C 47.539062 23.453125 50.292969 21.476562 53.6875 21.476562 C 57.074219 21.476562 59.820312 23.453125 59.820312 25.898438 Z M 59.820312 25.898438 "/>
<path style=" stroke:none;fill-rule:evenodd;fill:rgb(99.215686%,80.392157%,33.72549%);fill-opacity:1;" d="M 52.855469 28.226562 C 52.871094 32.929688 50.277344 37.433594 45.660156 40.753906 C 45.660156 40.757812 45.652344 40.757812 45.652344 40.757812 C 38.972656 45.5625 29.0625 47.199219 20.148438 44.957031 C 11.234375 42.722656 4.878906 37.007812 3.800781 30.253906 C 2.71875 23.503906 7.101562 16.898438 15.070312 13.257812 L 15.085938 13.246094 C 22.664062 9.800781 32.257812 9.589844 40.121094 12.707031 C 47.976562 15.820312 52.859375 21.765625 52.859375 28.226562 Z M 52.855469 28.226562 "/>
<path style=" stroke:none;fill-rule:evenodd;fill:rgb(96.078431%,72.54902%,27.058824%);fill-opacity:1;" d="M 45.652344 40.757812 C 38.972656 45.5625 29.0625 47.199219 20.148438 44.957031 C 11.234375 42.722656 4.878906 37.007812 3.800781 30.253906 C 2.71875 23.503906 7.101562 16.898438 15.070312 13.257812 C 6.214844 19.644531 5.445312 29.804688 13.28125 36.851562 C 21.117188 43.902344 35.058594 45.585938 45.652344 40.757812 Z M 45.652344 40.757812 "/>
<path style=" stroke:none;fill-rule:evenodd;fill:rgb(92.156863%,32.941176%,38.823529%);fill-opacity:1;" d="M 27.933594 0 L 29.554688 0 C 34.09375 0 38.445312 1.296875 41.652344 3.605469 C 44.863281 5.921875 46.667969 9.050781 46.667969 12.320312 L 46.667969 15.792969 L 9.820312 15.792969 L 9.820312 13.039062 C 9.820312 9.585938 11.734375 6.265625 15.125 3.820312 C 18.523438 1.367188 23.132812 0 27.933594 0 Z M 27.933594 0 "/>
<path style=" stroke:none;fill-rule:evenodd;fill:rgb(85.098039%,26.666667%,32.156863%);fill-opacity:1;" d="M 30.9375 0.0429688 C 21.496094 0.5625 14.203125 6.226562 14.210938 13.039062 L 14.210938 15.789062 L 9.820312 15.789062 L 9.820312 13.039062 C 9.820312 9.585938 11.734375 6.265625 15.125 3.816406 C 18.53125 1.367188 23.132812 0 27.941406 0 L 29.558594 0 C 30.027344 0 30.492188 0.015625 30.9375 0.0429688 Z M 30.9375 0.0429688 "/>
<path style=" stroke:none;fill-rule:evenodd;fill:rgb(89.411765%,90.980392%,92.156863%);fill-opacity:1;" d="M 8.949219 11.367188 L 47.539062 11.367188 C 49 11.367188 50.179688 12.214844 50.179688 13.261719 L 50.179688 15.792969 C 50.179688 16.835938 49 17.679688 47.539062 17.679688 L 8.949219 17.679688 C 7.492188 17.679688 6.3125 16.835938 6.3125 15.792969 L 6.3125 13.261719 C 6.3125 12.214844 7.492188 11.367188 8.949219 11.367188 Z M 8.949219 11.367188 "/>
<path style=" stroke:none;fill-rule:evenodd;fill:rgb(79.215686%,81.568627%,84.313725%);fill-opacity:1;" d="M 11.578125 17.679688 L 8.949219 17.679688 C 8.253906 17.679688 7.578125 17.488281 7.085938 17.128906 C 6.589844 16.773438 6.3125 16.289062 6.3125 15.789062 L 6.3125 13.261719 C 6.3125 12.757812 6.589844 12.28125 7.085938 11.921875 C 7.578125 11.570312 8.253906 11.367188 8.949219 11.367188 L 11.578125 11.367188 C 10.878906 11.367188 10.214844 11.570312 9.71875 11.921875 C 9.226562 12.28125 8.949219 12.757812 8.949219 13.261719 L 8.949219 15.789062 C 8.949219 16.289062 9.226562 16.773438 9.71875 17.128906 C 10.214844 17.488281 10.878906 17.679688 11.578125 17.679688 Z M 11.578125 17.679688 "/>
<path style=" stroke:none;fill-rule:evenodd;fill:rgb(81.960784%,84.705882%,85.882353%);fill-opacity:1;" d="M 55.214844 28.226562 C 55.203125 28.890625 55.15625 29.546875 55.0625 30.203125 C 54.609375 30.28125 54.148438 30.320312 53.6875 30.320312 C 53.351562 30.320312 53.023438 30.296875 52.695312 30.253906 C 52.804688 29.582031 52.859375 28.902344 52.859375 28.226562 C 52.859375 26.039062 52.308594 23.878906 51.207031 21.84375 C 51.890625 21.628906 52.621094 21.507812 53.367188 21.484375 C 54.585938 23.625 55.214844 25.914062 55.214844 28.226562 Z M 55.214844 28.226562 "/>
<path style=" stroke:none;fill-rule:evenodd;fill:rgb(95.686275%,96.470588%,97.254902%);fill-opacity:1;" d="M 56.316406 32.523438 C 56.316406 30.101562 53.78125 28.074219 50.433594 27.816406 C 47.085938 27.554688 44.011719 29.164062 43.308594 31.527344 C 41.539062 32.078125 39.9375 32.867188 38.585938 33.851562 C 38.054688 34.242188 37.550781 34.660156 37.097656 35.101562 C 35.113281 36.523438 31.601562 36.632812 28.246094 36.632812 C 24.886719 36.632812 21.378906 36.523438 19.398438 35.101562 C 18.941406 34.660156 18.4375 34.242188 17.90625 33.851562 C 16.554688 32.867188 14.949219 32.078125 13.179688 31.527344 C 12.589844 29.554688 10.328125 28.070312 7.542969 27.820312 C 4.757812 27.585938 2.066406 28.636719 0.839844 30.453125 C -0.390625 32.273438 0.121094 34.449219 2.101562 35.878906 C 1.429688 37.890625 2.851562 40.695312 5.96875 42.9375 C 9.132812 45.214844 13.101562 46.234375 15.910156 45.695312 C 18.289062 47.070312 22.917969 48 28.246094 48 C 33.566406 48 38.203125 47.070312 40.585938 45.695312 C 43.386719 46.234375 47.359375 45.214844 50.527344 42.9375 C 53.632812 40.695312 55.0625 37.898438 54.390625 35.878906 C 55.625 34.992188 56.320312 33.789062 56.316406 32.523438 Z M 56.316406 32.523438 "/>
<path style=" stroke:none;fill-rule:evenodd;fill:rgb(89.411765%,90.980392%,92.156863%);fill-opacity:1;" d="M 52.28125 40.472656 C 52.929688 40.003906 53.523438 39.496094 54.054688 38.957031 C 53.316406 40.460938 52.109375 41.828125 50.527344 42.9375 C 47.359375 45.214844 43.386719 46.242188 40.585938 45.695312 C 38.203125 47.0625 33.570312 48 28.246094 48 C 22.917969 48 18.289062 47.0625 15.910156 45.683594 C 13.101562 46.242188 9.132812 45.214844 5.96875 42.9375 C 2.855469 40.695312 1.429688 37.898438 2.101562 35.867188 C -0.441406 34.046875 -0.476562 31.085938 2.039062 29.234375 C 1.96875 29.507812 1.929688 29.785156 1.929688 30.054688 C 1.925781 31.320312 2.621094 32.523438 3.859375 33.414062 C 3.183594 35.429688 4.601562 38.226562 7.71875 40.472656 C 10.890625 42.75 14.859375 43.773438 17.664062 43.226562 C 20.042969 44.601562 24.675781 45.535156 30 45.535156 C 35.324219 45.535156 39.957031 44.601562 42.335938 43.226562 C 45.140625 43.773438 49.109375 42.75 52.28125 40.472656 Z M 52.28125 40.472656 "/>
<path style=" stroke:none;fill-rule:evenodd;fill:rgb(96.862745%,44.705882%,52.54902%);fill-opacity:1;" d="M 31.105469 1.757812 C 31.105469 1.757812 37.996094 4.125 39.835938 6.398438 C 39.5 5.195312 38.695312 4.074219 37.523438 3.179688 C 35.445312 1.472656 31.105469 1.757812 31.105469 1.757812 Z M 31.105469 1.757812 "/>
<path style=" stroke:none;fill-rule:evenodd;fill:rgb(25.882353%,28.235294%,32.156863%);fill-opacity:1;" d="M 26.667969 36 C 26.054688 36 25.554688 35.640625 25.554688 35.199219 C 25.554688 34.757812 26.054688 34.398438 26.667969 34.398438 C 28.03125 34.351562 29.375 34.101562 30.617188 33.679688 C 31.164062 33.484375 31.832031 33.640625 32.109375 34.039062 C 32.382812 34.433594 32.160156 34.917969 31.601562 35.113281 C 30.066406 35.648438 28.382812 35.949219 26.667969 36 Z M 26.667969 36 "/>
<path style=" stroke:none;fill-rule:evenodd;fill:rgb(95.686275%,96.470588%,97.254902%);fill-opacity:1;" d="M 30.140625 33.402344 L 34.023438 34.179688 C 37.539062 34.859375 41.257812 33.835938 43.238281 31.644531 L 43.425781 31.449219 C 44.679688 30.09375 45.167969 28.433594 44.789062 26.820312 C 43.761719 27.535156 42.53125 28.054688 41.171875 28.355469 C 39.835938 28.660156 38.414062 28.710938 37.046875 28.523438 L 32.328125 27.882812 C 30.234375 27.492188 28.085938 28.382812 27.535156 29.890625 C 27.226562 30.605469 27.328125 31.378906 27.820312 32.039062 C 28.308594 32.695312 29.140625 33.1875 30.140625 33.402344 Z M 30.140625 33.402344 "/>
<path style=" stroke:none;fill-rule:evenodd;fill:rgb(89.411765%,90.980392%,92.156863%);fill-opacity:1;" d="M 27.78125 31.976562 C 28.246094 32.675781 29.105469 33.195312 30.140625 33.402344 L 34.023438 34.179688 C 37.539062 34.859375 41.257812 33.835938 43.246094 31.636719 L 43.425781 31.449219 C 44.6875 30.085938 45.167969 28.433594 44.789062 26.820312 C 44.246094 27.1875 43.660156 27.511719 43.011719 27.777344 C 42.804688 28.644531 42.34375 29.460938 41.667969 30.1875 L 41.484375 30.375 C 39.496094 32.574219 35.773438 33.601562 32.257812 32.921875 L 28.386719 32.140625 C 28.175781 32.101562 27.976562 32.039062 27.78125 31.976562 Z M 27.78125 31.976562 "/>
<path style=" stroke:none;fill-rule:evenodd;fill:rgb(95.686275%,96.470588%,97.254902%);fill-opacity:1;" d="M 26.347656 33.402344 L 22.472656 34.179688 C 18.957031 34.859375 15.234375 33.835938 13.246094 31.644531 L 13.070312 31.449219 C 11.804688 30.09375 11.320312 28.433594 11.703125 26.820312 C 12.722656 27.535156 13.964844 28.054688 15.320312 28.355469 C 16.65625 28.660156 18.070312 28.710938 19.445312 28.523438 L 24.15625 27.882812 C 26.257812 27.492188 28.398438 28.382812 28.953125 29.890625 C 29.257812 30.605469 29.160156 31.378906 28.671875 32.039062 C 28.179688 32.695312 27.34375 33.1875 26.347656 33.402344 Z M 26.347656 33.402344 "/>
<path style=" stroke:none;fill-rule:evenodd;fill:rgb(89.411765%,90.980392%,92.156863%);fill-opacity:1;" d="M 28.707031 31.976562 C 28.246094 32.675781 27.382812 33.195312 26.347656 33.402344 L 22.472656 34.179688 C 18.957031 34.859375 15.234375 33.835938 13.25 31.636719 L 13.070312 31.449219 C 11.804688 30.085938 11.320312 28.433594 11.703125 26.820312 C 12.242188 27.1875 12.839844 27.511719 13.480469 27.777344 C 13.6875 28.644531 14.148438 29.460938 14.820312 30.1875 L 15.007812 30.375 C 16.988281 32.574219 20.710938 33.601562 24.226562 32.921875 L 28.101562 32.140625 C 28.308594 32.101562 28.515625 32.039062 28.707031 31.976562 Z M 28.707031 31.976562 "/>
<path style=" stroke:none;fill-rule:evenodd;fill:rgb(23.529412%,26.27451%,27.843137%);fill-opacity:1;" d="M 28.25 19.960938 C 29.40625 19.953125 30.539062 19.851562 31.65625 19.664062 C 38.933594 18.46875 50 19.960938 50 19.960938 L 50 21.109375 C 48.992188 21.496094 48.167969 22.097656 47.621094 22.820312 C 47.152344 23.769531 46.832031 24.757812 46.667969 25.757812 C 46.226562 27.695312 43.90625 29.113281 41.183594 29.105469 L 37.304688 29.105469 C 35.40625 29.105469 33.585938 28.566406 32.246094 27.601562 C 30.910156 26.640625 30.15625 25.328125 30.15625 23.960938 C 30.15625 23.019531 29.089844 22.246094 27.777344 22.246094 C 26.460938 22.246094 25.398438 23.011719 25.398438 23.960938 C 25.398438 25.328125 24.648438 26.632812 23.300781 27.601562 C 21.964844 28.566406 20.148438 29.105469 18.253906 29.105469 L 14.367188 29.105469 C 11.652344 29.105469 9.332031 27.695312 8.890625 25.757812 C 8.722656 24.757812 8.398438 23.773438 7.929688 22.824219 C 7.386719 22.097656 6.5625 21.496094 5.554688 21.109375 L 5.554688 19.960938 C 5.554688 19.960938 16.617188 18.46875 23.898438 19.664062 C 25.011719 19.851562 26.15625 19.953125 27.300781 19.960938 Z M 28.25 19.960938 "/>
<path style=" stroke:none;fill-rule:evenodd;fill:rgb(20%,22.745098%,23.921569%);fill-opacity:1;" d="M 39.679688 29.105469 L 37.304688 29.105469 C 33.359375 29.105469 30.15625 26.804688 30.15625 23.960938 C 30.15625 23.507812 29.90625 23.070312 29.460938 22.753906 C 29.3125 22.644531 29.148438 22.550781 28.96875 22.476562 L 30.15625 22.246094 C 31.472656 22.246094 32.535156 23.011719 32.539062 23.960938 C 32.539062 26.804688 35.738281 29.105469 39.679688 29.105469 Z M 39.679688 29.105469 "/>
<path style=" stroke:none;fill-rule:evenodd;fill:rgb(20%,22.745098%,23.921569%);fill-opacity:1;" d="M 16.753906 29.105469 L 14.375 29.105469 C 11.652344 29.105469 9.332031 27.695312 8.890625 25.757812 C 8.722656 24.757812 8.398438 23.773438 7.929688 22.824219 C 7.390625 22.097656 6.5625 21.496094 5.554688 21.109375 L 5.554688 19.960938 C 9.71875 19.433594 13.941406 19.191406 18.167969 19.210938 C 14.738281 19.289062 11.320312 19.539062 7.929688 19.960938 L 7.929688 21.109375 C 8.945312 21.496094 9.773438 22.097656 10.320312 22.820312 C 10.78125 23.769531 11.101562 24.757812 11.273438 25.753906 C 11.710938 27.683594 14.035156 29.105469 16.753906 29.105469 Z M 16.753906 29.105469 "/>
<path style=" stroke:none;fill-rule:nonzero;fill:rgb(16.470588%,18.431373%,20%);fill-opacity:1;" d="M 41.183594 29.90625 L 37.304688 29.90625 C 32.742188 29.898438 29.054688 27.242188 29.046875 23.960938 C 29.046875 23.460938 28.480469 23.046875 27.777344 23.046875 C 27.074219 23.046875 26.507812 23.460938 26.507812 23.960938 C 26.507812 27.242188 22.8125 29.898438 18.253906 29.90625 L 14.375 29.90625 C 11.101562 29.914062 8.3125 28.210938 7.789062 25.882812 C 7.664062 24.960938 7.375 24.050781 6.9375 23.179688 C 6.496094 22.609375 5.84375 22.132812 5.058594 21.816406 C 4.679688 21.679688 4.445312 21.402344 4.445312 21.109375 L 4.445312 19.960938 C 4.445312 19.578125 4.824219 19.246094 5.347656 19.175781 C 5.808594 19.109375 16.726562 17.664062 24.148438 18.882812 C 25.175781 19.058594 26.234375 19.152344 27.300781 19.164062 L 28.261719 19.164062 C 29.320312 19.152344 30.375 19.058594 31.40625 18.882812 C 38.828125 17.667969 49.742188 19.109375 50.207031 19.175781 C 50.734375 19.246094 51.109375 19.578125 51.109375 19.960938 L 51.109375 21.109375 C 51.109375 21.414062 50.875 21.683594 50.5 21.820312 C 49.703125 22.140625 49.050781 22.609375 48.609375 23.179688 C 48.171875 24.054688 47.890625 24.964844 47.757812 25.890625 C 47.234375 28.210938 44.445312 29.914062 41.183594 29.90625 Z M 27.777344 21.445312 C 29.710938 21.445312 31.265625 22.570312 31.269531 23.960938 C 31.269531 26.359375 33.96875 28.304688 37.304688 28.304688 L 41.183594 28.304688 C 43.359375 28.3125 45.21875 27.179688 45.566406 25.632812 C 45.71875 24.539062 46.074219 23.480469 46.625 22.460938 C 47.160156 21.734375 47.9375 21.117188 48.890625 20.652344 L 48.890625 20.640625 C 46.128906 20.320312 37.691406 19.5 31.902344 20.445312 C 30.710938 20.652344 29.480469 20.761719 28.261719 20.769531 L 27.300781 20.769531 C 26.070312 20.761719 24.851562 20.652344 23.65625 20.445312 C 17.863281 19.492188 9.425781 20.320312 6.671875 20.640625 L 6.671875 20.664062 C 7.621094 21.117188 8.394531 21.734375 8.929688 22.460938 C 9.484375 23.480469 9.84375 24.546875 9.984375 25.632812 C 10.335938 27.179688 12.195312 28.3125 14.375 28.304688 L 18.253906 28.304688 C 21.585938 28.304688 24.28125 26.359375 24.28125 23.960938 C 24.28125 22.570312 25.851562 21.445312 27.777344 21.445312 Z M 27.777344 21.445312 "/>
<path style=" stroke:none;fill-rule:evenodd;fill:rgb(27.45098%,30.588235%,31.764706%);fill-opacity:1;" d="M 18.253906 27.617188 C 17.644531 27.617188 17.148438 27.257812 17.148438 26.820312 C 17.148438 26.382812 17.644531 26.019531 18.253906 26.019531 C 19.828125 26.019531 21.109375 25.097656 21.109375 23.960938 C 21.109375 23.515625 21.605469 23.164062 22.222656 23.164062 C 22.832031 23.164062 23.328125 23.515625 23.328125 23.960938 C 23.328125 25.984375 21.054688 27.613281 18.253906 27.617188 Z M 18.253906 27.617188 "/>
<path style=" stroke:none;fill-rule:evenodd;fill:rgb(27.45098%,30.588235%,31.764706%);fill-opacity:1;" d="M 40.476562 27.617188 C 39.867188 27.617188 39.367188 27.257812 39.367188 26.820312 C 39.367188 26.382812 39.867188 26.019531 40.476562 26.019531 C 42.050781 26.019531 43.332031 25.097656 43.332031 23.960938 C 43.332031 23.515625 43.828125 23.164062 44.445312 23.164062 C 45.054688 23.164062 45.554688 23.515625 45.554688 23.960938 C 45.554688 25.984375 43.28125 27.613281 40.476562 27.617188 Z M 40.476562 27.617188 "/>
</g>
</svg>
