<?xml version="1.0" encoding="UTF-8"?>
<svg xmlns="http://www.w3.org/2000/svg" xmlns:xlink="http://www.w3.org/1999/xlink" width="60px" height="48px" viewBox="0 0 60 48" version="1.1">
<g id="surface1">
<path style=" stroke:none;fill-rule:evenodd;fill:rgb(70.588235%,53.72549%,40%);fill-opacity:1;" d="M 10.328125 26.25 C 9.984375 26.242188 9.675781 26.386719 9.5 26.617188 C 9.332031 26.855469 9.332031 27.144531 9.5 27.375 C 9.675781 27.613281 9.984375 27.75 10.328125 27.75 L 14.640625 27.75 C 14.976562 27.75 15.289062 27.613281 15.460938 27.375 C 15.632812 27.144531 15.632812 26.855469 15.460938 26.617188 C 15.289062 26.386719 14.976562 26.242188 14.640625 26.25 Z M 10.328125 26.25 "/>
<path style=" stroke:none;fill-rule:evenodd;fill:rgb(70.588235%,53.72549%,40%);fill-opacity:1;" d="M 10.304688 23.25 C 9.910156 23.25 9.554688 23.460938 9.425781 23.761719 C 9.296875 24.066406 9.425781 24.398438 9.734375 24.589844 L 19.09375 30.585938 C 19.496094 30.84375 20.085938 30.789062 20.414062 30.460938 C 20.734375 30.144531 20.667969 29.667969 20.265625 29.410156 L 10.90625 23.421875 C 10.738281 23.304688 10.523438 23.25 10.304688 23.25 Z M 10.304688 23.25 "/>
<path style=" stroke:none;fill-rule:evenodd;fill:rgb(70.588235%,53.72549%,40%);fill-opacity:1;" d="M 14.046875 22.492188 C 13.527344 22.492188 13.117188 22.835938 13.125 23.25 L 13.125 26.25 C 13.125 26.515625 13.304688 26.769531 13.59375 26.90625 C 13.882812 27.042969 14.246094 27.042969 14.539062 26.90625 C 14.832031 26.769531 15.007812 26.515625 15 26.25 L 15 23.25 C 15.007812 23.046875 14.90625 22.851562 14.722656 22.710938 C 14.546875 22.566406 14.304688 22.484375 14.046875 22.492188 Z M 14.046875 22.492188 "/>
<path style=" stroke:none;fill-rule:evenodd;fill:rgb(70.588235%,53.72549%,40%);fill-opacity:1;" d="M 45.359375 26.25 C 45.023438 26.242188 44.710938 26.386719 44.539062 26.617188 C 44.367188 26.855469 44.367188 27.144531 44.539062 27.375 C 44.710938 27.613281 45.023438 27.75 45.359375 27.75 L 49.671875 27.75 C 50.015625 27.75 50.324219 27.613281 50.5 27.375 C 50.667969 27.144531 50.667969 26.855469 50.5 26.617188 C 50.324219 26.386719 50.015625 26.242188 49.671875 26.25 Z M 45.359375 26.25 "/>
<path style=" stroke:none;fill-rule:evenodd;fill:rgb(70.588235%,53.72549%,40%);fill-opacity:1;" d="M 49.671875 23.25 C 49.460938 23.25 49.257812 23.316406 49.09375 23.421875 L 39.734375 29.410156 C 39.332031 29.667969 39.265625 30.144531 39.59375 30.460938 C 39.914062 30.789062 40.503906 30.84375 40.90625 30.585938 L 50.265625 24.589844 C 50.582031 24.390625 50.703125 24.050781 50.574219 23.746094 C 50.441406 23.445312 50.070312 23.242188 49.671875 23.25 Z M 49.671875 23.25 "/>
<path style=" stroke:none;fill-rule:evenodd;fill:rgb(70.588235%,53.72549%,40%);fill-opacity:1;" d="M 45.921875 22.492188 C 45.402344 22.492188 44.992188 22.835938 45 23.25 L 45 26.25 C 45 26.515625 45.179688 26.769531 45.46875 26.90625 C 45.757812 27.042969 46.121094 27.042969 46.414062 26.90625 C 46.707031 26.769531 46.882812 26.515625 46.875 26.25 L 46.875 23.25 C 46.882812 23.046875 46.78125 22.851562 46.597656 22.710938 C 46.421875 22.566406 46.179688 22.484375 45.921875 22.492188 Z M 45.921875 22.492188 "/>
<path style=" stroke:none;fill-rule:nonzero;fill:rgb(84.705882%,84.313725%,86.27451%);fill-opacity:1;" d="M 43.125 34.5 C 43.125 40.296875 37.25 45 30 45 C 22.75 45 16.875 40.296875 16.875 34.5 C 16.875 28.703125 22.75 24 30 24 C 37.25 24 43.125 28.703125 43.125 34.5 Z M 43.125 34.5 "/>
<path style=" stroke:none;fill-rule:nonzero;fill:rgb(78.039216%,77.647059%,80.392157%);fill-opacity:1;" d="M 30 24 C 27.898438 24 25.824219 24.402344 23.960938 25.179688 C 25.597656 26.300781 27.695312 27 30 27 C 32.300781 27 34.398438 26.300781 36.027344 25.191406 C 34.167969 24.414062 32.101562 24.007812 30 24 Z M 30 24 "/>
<path style=" stroke:none;fill-rule:nonzero;fill:rgb(99.215686%,1.568627%,21.568627%);fill-opacity:1;" d="M 24.675781 22.601562 C 23.914062 22.601562 23.226562 22.96875 22.929688 23.539062 C 22.648438 24.101562 22.820312 24.757812 23.367188 25.179688 C 25.128906 26.585938 27.515625 27.375 30 27.375 C 32.484375 27.375 34.871094 26.585938 36.628906 25.179688 C 37.125 24.800781 37.316406 24.242188 37.144531 23.71875 C 36.976562 23.195312 36.464844 22.78125 35.804688 22.644531 C 35.148438 22.507812 34.445312 22.664062 33.976562 23.054688 C 32.925781 23.898438 31.492188 24.375 30 24.375 C 28.507812 24.375 27.074219 23.898438 26.023438 23.054688 C 25.667969 22.765625 25.1875 22.601562 24.675781 22.601562 Z M 24.675781 22.601562 "/>
<path style=" stroke:none;fill-rule:nonzero;fill:rgb(83.921569%,2.745098%,14.117647%);fill-opacity:1;" d="M 35.292969 22.59375 C 34.796875 22.609375 34.316406 22.773438 33.976562 23.0625 C 33.296875 23.601562 32.441406 23.972656 31.53125 24.179688 C 30.945312 25.175781 30.589844 26.25 30.507812 27.332031 C 31.515625 27.289062 32.5 27.136719 33.421875 26.839844 C 33.683594 25.570312 34.402344 24.347656 35.617188 23.382812 C 35.617188 23.371094 35.625 23.367188 35.632812 23.359375 C 35.820312 23.199219 35.96875 23.210938 36.148438 23.277344 C 36.335938 23.335938 36.441406 23.410156 36.4375 23.632812 C 36.425781 23.734375 36.378906 23.820312 36.289062 23.890625 C 36.285156 23.898438 36.277344 23.898438 36.277344 23.90625 C 35.375 24.628906 34.78125 25.5 34.476562 26.421875 C 35.25 26.085938 35.984375 25.6875 36.628906 25.179688 C 37.1875 24.75 37.359375 24.09375 37.070312 23.523438 C 36.769531 22.945312 36.066406 22.578125 35.292969 22.59375 Z M 35.292969 22.59375 "/>
<path style=" stroke:none;fill-rule:nonzero;fill:rgb(16.470588%,16.078431%,18.039216%);fill-opacity:1;" d="M 30.9375 29.25 C 30.9375 29.664062 30.519531 30 30 30 C 29.480469 30 29.0625 29.664062 29.0625 29.25 C 29.0625 28.835938 29.480469 28.5 30 28.5 C 30.519531 28.5 30.9375 28.835938 30.9375 29.25 Z M 30.9375 29.25 "/>
<path style=" stroke:none;fill-rule:nonzero;fill:rgb(16.470588%,16.078431%,18.039216%);fill-opacity:1;" d="M 30.9375 32.25 C 30.9375 32.664062 30.519531 33 30 33 C 29.480469 33 29.0625 32.664062 29.0625 32.25 C 29.0625 31.835938 29.480469 31.5 30 31.5 C 30.519531 31.5 30.9375 31.835938 30.9375 32.25 Z M 30.9375 32.25 "/>
<path style=" stroke:none;fill-rule:nonzero;fill:rgb(16.470588%,16.078431%,18.039216%);fill-opacity:1;" d="M 30.9375 35.25 C 30.9375 35.664062 30.519531 36 30 36 C 29.480469 36 29.0625 35.664062 29.0625 35.25 C 29.0625 34.835938 29.480469 34.5 30 34.5 C 30.519531 34.5 30.9375 34.835938 30.9375 35.25 Z M 30.9375 35.25 "/>
<path style=" stroke:none;fill-rule:nonzero;fill:rgb(99.215686%,1.568627%,21.568627%);fill-opacity:1;" d="M 37.84375 23.664062 C 37.828125 24.054688 37.621094 24.425781 37.273438 24.695312 C 35.269531 26.300781 35.058594 28.808594 36.773438 30.605469 C 37.199219 31.03125 37.308594 31.609375 37.046875 32.113281 C 36.789062 32.617188 36.214844 32.972656 35.539062 33.039062 C 34.867188 33.101562 34.195312 32.867188 33.792969 32.429688 C 30.960938 29.453125 31.308594 25.21875 34.617188 22.570312 C 35.15625 22.132812 35.980469 21.992188 36.699219 22.242188 C 37.40625 22.476562 37.859375 23.046875 37.84375 23.664062 Z M 37.84375 23.664062 "/>
<path style=" stroke:none;fill-rule:nonzero;fill:rgb(84.705882%,84.313725%,86.27451%);fill-opacity:1;" d="M 40.164062 33.511719 C 40.164062 33.664062 40.070312 33.800781 39.929688 33.886719 C 39.789062 33.980469 39.59375 34.007812 39.417969 33.980469 C 37.316406 33.617188 35.476562 32.609375 34.304688 31.167969 C 34.121094 30.9375 34.195312 30.640625 34.480469 30.492188 C 34.765625 30.347656 35.140625 30.414062 35.324219 30.632812 C 36.320312 31.859375 37.882812 32.71875 39.675781 33.023438 C 39.964844 33.070312 40.171875 33.273438 40.164062 33.511719 Z M 40.164062 33.511719 "/>
<path style=" stroke:none;fill-rule:nonzero;fill:rgb(99.215686%,1.568627%,21.568627%);fill-opacity:1;" d="M 36.757812 33.414062 C 36.742188 33.589844 36.605469 33.757812 36.394531 33.835938 C 36.1875 33.914062 35.9375 33.898438 35.746094 33.800781 C 34.648438 33.238281 33.742188 32.476562 33.089844 31.570312 C 32.910156 31.320312 33.019531 31.003906 33.332031 30.859375 C 33.652344 30.710938 34.050781 30.800781 34.234375 31.054688 C 34.773438 31.804688 35.539062 32.445312 36.453125 32.914062 C 36.660156 33.023438 36.78125 33.210938 36.757812 33.414062 Z M 36.757812 33.414062 "/>
<path style=" stroke:none;fill-rule:nonzero;fill:rgb(99.215686%,1.568627%,21.568627%);fill-opacity:1;" d="M 38.253906 31.832031 C 38.269531 32.019531 38.136719 32.199219 37.929688 32.289062 C 37.71875 32.382812 37.472656 32.367188 37.28125 32.25 C 36.589844 31.851562 35.984375 31.367188 35.488281 30.820312 C 35.296875 30.605469 35.351562 30.304688 35.625 30.144531 C 35.898438 29.984375 36.277344 30.039062 36.476562 30.242188 C 36.894531 30.710938 37.414062 31.125 37.996094 31.460938 C 38.148438 31.550781 38.242188 31.6875 38.253906 31.832031 Z M 38.253906 31.832031 "/>
<path style=" stroke:none;fill-rule:nonzero;fill:rgb(84.705882%,84.313725%,86.27451%);fill-opacity:1;" d="M 37.5 19.5 C 37.5 22.808594 34.140625 25.5 30 25.5 C 25.859375 25.5 22.5 22.808594 22.5 19.5 C 22.5 16.179688 25.859375 13.5 30 13.5 C 34.140625 13.5 37.5 16.179688 37.5 19.5 Z M 37.5 19.5 "/>
<path style=" stroke:none;fill-rule:nonzero;fill:rgb(23.529412%,23.137255%,25.490196%);fill-opacity:1;" d="M 21.5625 15 L 38.4375 15 C 38.957031 15 39.375 15.332031 39.375 15.75 C 39.375 16.167969 38.957031 16.5 38.4375 16.5 L 21.5625 16.5 C 21.042969 16.5 20.625 16.167969 20.625 15.75 C 20.625 15.332031 21.042969 15 21.5625 15 Z M 21.5625 15 "/>
<path style=" stroke:none;fill-rule:nonzero;fill:rgb(23.529412%,23.137255%,25.490196%);fill-opacity:1;" d="M 24.53125 4.5 L 35.46875 4.5 C 36.070312 4.5 36.5625 4.882812 36.5625 5.359375 L 36.5625 15.640625 C 36.5625 16.117188 36.070312 16.5 35.46875 16.5 L 24.53125 16.5 C 23.929688 16.5 23.4375 16.117188 23.4375 15.640625 L 23.4375 5.359375 C 23.4375 4.882812 23.929688 4.5 24.53125 4.5 Z M 24.53125 4.5 "/>
<path style=" stroke:none;fill-rule:nonzero;fill:rgb(23.529412%,23.137255%,25.490196%);fill-opacity:1;" d="M 28.125 18.75 C 28.125 19.164062 27.707031 19.5 27.1875 19.5 C 26.667969 19.5 26.25 19.164062 26.25 18.75 C 26.25 18.335938 26.667969 18 27.1875 18 C 27.707031 18 28.125 18.335938 28.125 18.75 Z M 28.125 18.75 "/>
<path style=" stroke:none;fill-rule:nonzero;fill:rgb(23.529412%,23.137255%,25.490196%);fill-opacity:1;" d="M 33.75 18.75 C 33.75 19.164062 33.332031 19.5 32.8125 19.5 C 32.292969 19.5 31.875 19.164062 31.875 18.75 C 31.875 18.335938 32.292969 18 32.8125 18 C 33.332031 18 33.75 18.335938 33.75 18.75 Z M 33.75 18.75 "/>
<path style=" stroke:none;fill-rule:nonzero;fill:rgb(16.470588%,16.078431%,18.039216%);fill-opacity:1;" d="M 23.4375 13.5 L 36.5625 13.5 L 36.5625 15 L 23.4375 15 Z M 23.4375 13.5 "/>
<path style=" stroke:none;fill-rule:nonzero;fill:rgb(99.215686%,65.882353%,8.627451%);fill-opacity:1;" d="M 31.25 22.003906 C 31.25 22.550781 30 24 30 24 C 30 24 28.75 22.550781 28.75 22.003906 C 28.75 21.445312 29.3125 21 30 21 C 30.6875 21 31.25 21.445312 31.25 22.003906 Z M 31.25 22.003906 "/>
</g>
</svg>
