<?xml version="1.0" standalone="no"?>
<!DOCTYPE svg PUBLIC "-//W3C//DTD SVG 1.1//EN" "http://www.w3.org/Graphics/SVG/1.1/DTD/svg11.dtd">
<svg width="644" height="644" version="1.1" xmlns="http://www.w3.org/2000/svg">
  <title>40 by 40 orthogonal maze</title>
  <desc>40 by 40 orthogonal maze generated by The Maze Generator Website (https://www.mazegenerator.net/).</desc>
  <g fill="none" stroke="#000000" stroke-width="2" stroke-linecap="square">
    <line x1="2" y1="2" x2="306" y2="2" />
    <line x1="322" y1="2" x2="642" y2="2" />
    <line x1="18" y1="18" x2="66" y2="18" />
    <line x1="98" y1="18" x2="114" y2="18" />
    <line x1="146" y1="18" x2="162" y2="18" />
    <line x1="194" y1="18" x2="210" y2="18" />
    <line x1="226" y1="18" x2="258" y2="18" />
    <line x1="274" y1="18" x2="290" y2="18" />
    <line x1="306" y1="18" x2="322" y2="18" />
    <line x1="338" y1="18" x2="370" y2="18" />
    <line x1="386" y1="18" x2="418" y2="18" />
    <line x1="434" y1="18" x2="450" y2="18" />
    <line x1="482" y1="18" x2="498" y2="18" />
    <line x1="530" y1="18" x2="546" y2="18" />
    <line x1="626" y1="18" x2="642" y2="18" />
    <line x1="34" y1="34" x2="50" y2="34" />
    <line x1="66" y1="34" x2="98" y2="34" />
    <line x1="114" y1="34" x2="130" y2="34" />
    <line x1="178" y1="34" x2="194" y2="34" />
    <line x1="258" y1="34" x2="338" y2="34" />
    <line x1="370" y1="34" x2="386" y2="34" />
    <line x1="434" y1="34" x2="482" y2="34" />
    <line x1="498" y1="34" x2="530" y2="34" />
    <line x1="578" y1="34" x2="626" y2="34" />
    <line x1="2" y1="50" x2="18" y2="50" />
    <line x1="50" y1="50" x2="66" y2="50" />
    <line x1="98" y1="50" x2="114" y2="50" />
    <line x1="130" y1="50" x2="178" y2="50" />
    <line x1="194" y1="50" x2="210" y2="50" />
    <line x1="242" y1="50" x2="258" y2="50" />
    <line x1="274" y1="50" x2="290" y2="50" />
    <line x1="322" y1="50" x2="354" y2="50" />
    <line x1="370" y1="50" x2="402" y2="50" />
    <line x1="418" y1="50" x2="466" y2="50" />
    <line x1="498" y1="50" x2="514" y2="50" />
    <line x1="530" y1="50" x2="578" y2="50" />
    <line x1="34" y1="66" x2="50" y2="66" />
    <line x1="114" y1="66" x2="130" y2="66" />
    <line x1="162" y1="66" x2="194" y2="66" />
    <line x1="210" y1="66" x2="226" y2="66" />
    <line x1="290" y1="66" x2="322" y2="66" />
    <line x1="338" y1="66" x2="370" y2="66" />
    <line x1="402" y1="66" x2="450" y2="66" />
    <line x1="482" y1="66" x2="530" y2="66" />
    <line x1="562" y1="66" x2="578" y2="66" />
    <line x1="610" y1="66" x2="642" y2="66" />
    <line x1="18" y1="82" x2="34" y2="82" />
    <line x1="66" y1="82" x2="114" y2="82" />
    <line x1="130" y1="82" x2="162" y2="82" />
    <line x1="194" y1="82" x2="226" y2="82" />
    <line x1="242" y1="82" x2="258" y2="82" />
    <line x1="274" y1="82" x2="290" y2="82" />
    <line x1="322" y1="82" x2="338" y2="82" />
    <line x1="370" y1="82" x2="402" y2="82" />
    <line x1="418" y1="82" x2="466" y2="82" />
    <line x1="482" y1="82" x2="546" y2="82" />
    <line x1="578" y1="82" x2="594" y2="82" />
    <line x1="610" y1="82" x2="626" y2="82" />
    <line x1="18" y1="98" x2="98" y2="98" />
    <line x1="114" y1="98" x2="146" y2="98" />
    <line x1="178" y1="98" x2="210" y2="98" />
    <line x1="226" y1="98" x2="242" y2="98" />
    <line x1="306" y1="98" x2="338" y2="98" />
    <line x1="386" y1="98" x2="418" y2="98" />
    <line x1="434" y1="98" x2="466" y2="98" />
    <line x1="498" y1="98" x2="514" y2="98" />
    <line x1="546" y1="98" x2="578" y2="98" />
    <line x1="594" y1="98" x2="642" y2="98" />
    <line x1="50" y1="114" x2="66" y2="114" />
    <line x1="210" y1="114" x2="258" y2="114" />
    <line x1="274" y1="114" x2="306" y2="114" />
    <line x1="338" y1="114" x2="370" y2="114" />
    <line x1="386" y1="114" x2="418" y2="114" />
    <line x1="530" y1="114" x2="546" y2="114" />
    <line x1="578" y1="114" x2="626" y2="114" />
    <line x1="34" y1="130" x2="82" y2="130" />
    <line x1="162" y1="130" x2="226" y2="130" />
    <line x1="258" y1="130" x2="290" y2="130" />
    <line x1="306" y1="130" x2="354" y2="130" />
    <line x1="370" y1="130" x2="386" y2="130" />
    <line x1="418" y1="130" x2="434" y2="130" />
    <line x1="450" y1="130" x2="530" y2="130" />
    <line x1="594" y1="130" x2="610" y2="130" />
    <line x1="626" y1="130" x2="642" y2="130" />
    <line x1="2" y1="146" x2="18" y2="146" />
    <line x1="34" y1="146" x2="50" y2="146" />
    <line x1="66" y1="146" x2="178" y2="146" />
    <line x1="210" y1="146" x2="274" y2="146" />
    <line x1="354" y1="146" x2="370" y2="146" />
    <line x1="386" y1="146" x2="418" y2="146" />
    <line x1="434" y1="146" x2="450" y2="146" />
    <line x1="466" y1="146" x2="578" y2="146" />
    <line x1="610" y1="146" x2="626" y2="146" />
    <line x1="18" y1="162" x2="34" y2="162" />
    <line x1="50" y1="162" x2="66" y2="162" />
    <line x1="82" y1="162" x2="162" y2="162" />
    <line x1="194" y1="162" x2="242" y2="162" />
    <line x1="274" y1="162" x2="290" y2="162" />
    <line x1="450" y1="162" x2="498" y2="162" />
    <line x1="530" y1="162" x2="546" y2="162" />
    <line x1="626" y1="162" x2="642" y2="162" />
    <line x1="34" y1="178" x2="50" y2="178" />
    <line x1="66" y1="178" x2="82" y2="178" />
    <line x1="130" y1="178" x2="146" y2="178" />
    <line x1="162" y1="178" x2="226" y2="178" />
    <line x1="242" y1="178" x2="258" y2="178" />
    <line x1="306" y1="178" x2="338" y2="178" />
    <line x1="354" y1="178" x2="386" y2="178" />
    <line x1="402" y1="178" x2="434" y2="178" />
    <line x1="498" y1="178" x2="514" y2="178" />
    <line x1="546" y1="178" x2="626" y2="178" />
    <line x1="18" y1="194" x2="34" y2="194" />
    <line x1="50" y1="194" x2="66" y2="194" />
    <line x1="82" y1="194" x2="98" y2="194" />
    <line x1="114" y1="194" x2="130" y2="194" />
    <line x1="146" y1="194" x2="162" y2="194" />
    <line x1="226" y1="194" x2="242" y2="194" />
    <line x1="258" y1="194" x2="354" y2="194" />
    <line x1="386" y1="194" x2="418" y2="194" />
    <line x1="450" y1="194" x2="482" y2="194" />
    <line x1="514" y1="194" x2="546" y2="194" />
    <line x1="578" y1="194" x2="642" y2="194" />
    <line x1="34" y1="210" x2="66" y2="210" />
    <line x1="98" y1="210" x2="114" y2="210" />
    <line x1="130" y1="210" x2="146" y2="210" />
    <line x1="162" y1="210" x2="178" y2="210" />
    <line x1="194" y1="210" x2="210" y2="210" />
    <line x1="258" y1="210" x2="274" y2="210" />
    <line x1="290" y1="210" x2="306" y2="210" />
    <line x1="338" y1="210" x2="370" y2="210" />
    <line x1="402" y1="210" x2="418" y2="210" />
    <line x1="482" y1="210" x2="514" y2="210" />
    <line x1="546" y1="210" x2="562" y2="210" />
    <line x1="578" y1="210" x2="594" y2="210" />
    <line x1="610" y1="210" x2="642" y2="210" />
    <line x1="18" y1="226" x2="50" y2="226" />
    <line x1="82" y1="226" x2="130" y2="226" />
    <line x1="146" y1="226" x2="162" y2="226" />
    <line x1="210" y1="226" x2="290" y2="226" />
    <line x1="322" y1="226" x2="354" y2="226" />
    <line x1="370" y1="226" x2="402" y2="226" />
    <line x1="482" y1="226" x2="498" y2="226" />
    <line x1="530" y1="226" x2="546" y2="226" />
    <line x1="610" y1="226" x2="626" y2="226" />
    <line x1="98" y1="242" x2="114" y2="242" />
    <line x1="178" y1="242" x2="242" y2="242" />
    <line x1="322" y1="242" x2="338" y2="242" />
    <line x1="354" y1="242" x2="370" y2="242" />
    <line x1="418" y1="242" x2="466" y2="242" />
    <line x1="482" y1="242" x2="546" y2="242" />
    <line x1="578" y1="242" x2="642" y2="242" />
    <line x1="114" y1="258" x2="130" y2="258" />
    <line x1="194" y1="258" x2="210" y2="258" />
    <line x1="242" y1="258" x2="258" y2="258" />
    <line x1="274" y1="258" x2="386" y2="258" />
    <line x1="402" y1="258" x2="418" y2="258" />
    <line x1="434" y1="258" x2="450" y2="258" />
    <line x1="466" y1="258" x2="498" y2="258" />
    <line x1="546" y1="258" x2="594" y2="258" />
    <line x1="610" y1="258" x2="626" y2="258" />
    <line x1="114" y1="274" x2="130" y2="274" />
    <line x1="146" y1="274" x2="194" y2="274" />
    <line x1="226" y1="274" x2="274" y2="274" />
    <line x1="322" y1="274" x2="370" y2="274" />
    <line x1="386" y1="274" x2="402" y2="274" />
    <line x1="418" y1="274" x2="466" y2="274" />
    <line x1="498" y1="274" x2="514" y2="274" />
    <line x1="530" y1="274" x2="594" y2="274" />
    <line x1="2" y1="290" x2="34" y2="290" />
    <line x1="130" y1="290" x2="146" y2="290" />
    <line x1="162" y1="290" x2="194" y2="290" />
    <line x1="242" y1="290" x2="258" y2="290" />
    <line x1="290" y1="290" x2="322" y2="290" />
    <line x1="338" y1="290" x2="402" y2="290" />
    <line x1="434" y1="290" x2="450" y2="290" />
    <line x1="514" y1="290" x2="530" y2="290" />
    <line x1="578" y1="290" x2="610" y2="290" />
    <line x1="18" y1="306" x2="82" y2="306" />
    <line x1="114" y1="306" x2="130" y2="306" />
    <line x1="146" y1="306" x2="162" y2="306" />
    <line x1="178" y1="306" x2="194" y2="306" />
    <line x1="226" y1="306" x2="258" y2="306" />
    <line x1="274" y1="306" x2="306" y2="306" />
    <line x1="322" y1="306" x2="338" y2="306" />
    <line x1="354" y1="306" x2="450" y2="306" />
    <line x1="482" y1="306" x2="498" y2="306" />
    <line x1="546" y1="306" x2="594" y2="306" />
    <line x1="610" y1="306" x2="626" y2="306" />
    <line x1="18" y1="322" x2="34" y2="322" />
    <line x1="98" y1="322" x2="114" y2="322" />
    <line x1="130" y1="322" x2="146" y2="322" />
    <line x1="210" y1="322" x2="290" y2="322" />
    <line x1="338" y1="322" x2="354" y2="322" />
    <line x1="370" y1="322" x2="386" y2="322" />
    <line x1="418" y1="322" x2="434" y2="322" />
    <line x1="498" y1="322" x2="530" y2="322" />
    <line x1="562" y1="322" x2="578" y2="322" />
    <line x1="594" y1="322" x2="610" y2="322" />
    <line x1="34" y1="338" x2="50" y2="338" />
    <line x1="66" y1="338" x2="82" y2="338" />
    <line x1="114" y1="338" x2="162" y2="338" />
    <line x1="178" y1="338" x2="210" y2="338" />
    <line x1="258" y1="338" x2="274" y2="338" />
    <line x1="290" y1="338" x2="354" y2="338" />
    <line x1="386" y1="338" x2="402" y2="338" />
    <line x1="450" y1="338" x2="498" y2="338" />
    <line x1="546" y1="338" x2="562" y2="338" />
    <line x1="2" y1="354" x2="18" y2="354" />
    <line x1="50" y1="354" x2="114" y2="354" />
    <line x1="162" y1="354" x2="178" y2="354" />
    <line x1="210" y1="354" x2="274" y2="354" />
    <line x1="306" y1="354" x2="370" y2="354" />
    <line x1="386" y1="354" x2="418" y2="354" />
    <line x1="434" y1="354" x2="450" y2="354" />
    <line x1="514" y1="354" x2="546" y2="354" />
    <line x1="562" y1="354" x2="626" y2="354" />
    <line x1="18" y1="370" x2="50" y2="370" />
    <line x1="98" y1="370" x2="130" y2="370" />
    <line x1="146" y1="370" x2="210" y2="370" />
    <line x1="226" y1="370" x2="258" y2="370" />
    <line x1="274" y1="370" x2="306" y2="370" />
    <line x1="322" y1="370" x2="386" y2="370" />
    <line x1="466" y1="370" x2="514" y2="370" />
    <line x1="546" y1="370" x2="562" y2="370" />
    <line x1="18" y1="386" x2="34" y2="386" />
    <line x1="50" y1="386" x2="98" y2="386" />
    <line x1="114" y1="386" x2="146" y2="386" />
    <line x1="162" y1="386" x2="178" y2="386" />
    <line x1="194" y1="386" x2="226" y2="386" />
    <line x1="258" y1="386" x2="290" y2="386" />
    <line x1="306" y1="386" x2="322" y2="386" />
    <line x1="354" y1="386" x2="466" y2="386" />
    <line x1="578" y1="386" x2="594" y2="386" />
    <line x1="2" y1="402" x2="18" y2="402" />
    <line x1="34" y1="402" x2="50" y2="402" />
    <line x1="178" y1="402" x2="194" y2="402" />
    <line x1="210" y1="402" x2="226" y2="402" />
    <line x1="242" y1="402" x2="258" y2="402" />
    <line x1="306" y1="402" x2="370" y2="402" />
    <line x1="418" y1="402" x2="450" y2="402" />
    <line x1="482" y1="402" x2="546" y2="402" />
    <line x1="562" y1="402" x2="578" y2="402" />
    <line x1="594" y1="402" x2="642" y2="402" />
    <line x1="18" y1="418" x2="34" y2="418" />
    <line x1="82" y1="418" x2="130" y2="418" />
    <line x1="146" y1="418" x2="162" y2="418" />
    <line x1="194" y1="418" x2="274" y2="418" />
    <line x1="306" y1="418" x2="322" y2="418" />
    <line x1="338" y1="418" x2="354" y2="418" />
    <line x1="370" y1="418" x2="418" y2="418" />
    <line x1="434" y1="418" x2="450" y2="418" />
    <line x1="466" y1="418" x2="482" y2="418" />
    <line x1="546" y1="418" x2="562" y2="418" />
    <line x1="578" y1="418" x2="594" y2="418" />
    <line x1="2" y1="434" x2="50" y2="434" />
    <line x1="66" y1="434" x2="82" y2="434" />
    <line x1="98" y1="434" x2="130" y2="434" />
    <line x1="146" y1="434" x2="194" y2="434" />
    <line x1="226" y1="434" x2="290" y2="434" />
    <line x1="322" y1="434" x2="370" y2="434" />
    <line x1="418" y1="434" x2="466" y2="434" />
    <line x1="482" y1="434" x2="498" y2="434" />
    <line x1="562" y1="434" x2="578" y2="434" />
    <line x1="594" y1="434" x2="610" y2="434" />
    <line x1="34" y1="450" x2="66" y2="450" />
    <line x1="82" y1="450" x2="98" y2="450" />
    <line x1="162" y1="450" x2="178" y2="450" />
    <line x1="226" y1="450" x2="242" y2="450" />
    <line x1="274" y1="450" x2="338" y2="450" />
    <line x1="562" y1="450" x2="594" y2="450" />
    <line x1="66" y1="466" x2="130" y2="466" />
    <line x1="178" y1="466" x2="210" y2="466" />
    <line x1="258" y1="466" x2="290" y2="466" />
    <line x1="434" y1="466" x2="482" y2="466" />
    <line x1="498" y1="466" x2="514" y2="466" />
    <line x1="546" y1="466" x2="562" y2="466" />
    <line x1="610" y1="466" x2="626" y2="466" />
    <line x1="18" y1="482" x2="50" y2="482" />
    <line x1="82" y1="482" x2="114" y2="482" />
    <line x1="178" y1="482" x2="226" y2="482" />
    <line x1="290" y1="482" x2="306" y2="482" />
    <line x1="354" y1="482" x2="370" y2="482" />
    <line x1="466" y1="482" x2="498" y2="482" />
    <line x1="514" y1="482" x2="546" y2="482" />
    <line x1="594" y1="482" x2="642" y2="482" />
    <line x1="2" y1="498" x2="18" y2="498" />
    <line x1="50" y1="498" x2="82" y2="498" />
    <line x1="114" y1="498" x2="162" y2="498" />
    <line x1="258" y1="498" x2="274" y2="498" />
    <line x1="306" y1="498" x2="322" y2="498" />
    <line x1="354" y1="498" x2="402" y2="498" />
    <line x1="418" y1="498" x2="466" y2="498" />
    <line x1="498" y1="498" x2="514" y2="498" />
    <line x1="530" y1="498" x2="610" y2="498" />
    <line x1="626" y1="498" x2="642" y2="498" />
    <line x1="18" y1="514" x2="34" y2="514" />
    <line x1="82" y1="514" x2="98" y2="514" />
    <line x1="130" y1="514" x2="146" y2="514" />
    <line x1="162" y1="514" x2="194" y2="514" />
    <line x1="210" y1="514" x2="258" y2="514" />
    <line x1="370" y1="514" x2="386" y2="514" />
    <line x1="402" y1="514" x2="418" y2="514" />
    <line x1="450" y1="514" x2="482" y2="514" />
    <line x1="514" y1="514" x2="530" y2="514" />
    <line x1="546" y1="514" x2="594" y2="514" />
    <line x1="610" y1="514" x2="626" y2="514" />
    <line x1="50" y1="530" x2="82" y2="530" />
    <line x1="98" y1="530" x2="130" y2="530" />
    <line x1="178" y1="530" x2="210" y2="530" />
    <line x1="258" y1="530" x2="274" y2="530" />
    <line x1="322" y1="530" x2="370" y2="530" />
    <line x1="386" y1="530" x2="434" y2="530" />
    <line x1="450" y1="530" x2="466" y2="530" />
    <line x1="482" y1="530" x2="514" y2="530" />
    <line x1="530" y1="530" x2="546" y2="530" />
    <line x1="594" y1="530" x2="610" y2="530" />
    <line x1="626" y1="530" x2="642" y2="530" />
    <line x1="34" y1="546" x2="50" y2="546" />
    <line x1="66" y1="546" x2="98" y2="546" />
    <line x1="114" y1="546" x2="130" y2="546" />
    <line x1="146" y1="546" x2="162" y2="546" />
    <line x1="194" y1="546" x2="242" y2="546" />
    <line x1="274" y1="546" x2="306" y2="546" />
    <line x1="338" y1="546" x2="386" y2="546" />
    <line x1="418" y1="546" x2="434" y2="546" />
    <line x1="466" y1="546" x2="482" y2="546" />
    <line x1="498" y1="546" x2="562" y2="546" />
    <line x1="578" y1="546" x2="594" y2="546" />
    <line x1="610" y1="546" x2="626" y2="546" />
    <line x1="18" y1="562" x2="66" y2="562" />
    <line x1="98" y1="562" x2="130" y2="562" />
    <line x1="242" y1="562" x2="338" y2="562" />
    <line x1="402" y1="562" x2="418" y2="562" />
    <line x1="482" y1="562" x2="498" y2="562" />
    <line x1="530" y1="562" x2="546" y2="562" />
    <line x1="562" y1="562" x2="578" y2="562" />
    <line x1="610" y1="562" x2="642" y2="562" />
    <line x1="34" y1="578" x2="50" y2="578" />
    <line x1="82" y1="578" x2="98" y2="578" />
    <line x1="114" y1="578" x2="146" y2="578" />
    <line x1="162" y1="578" x2="194" y2="578" />
    <line x1="210" y1="578" x2="306" y2="578" />
    <line x1="338" y1="578" x2="370" y2="578" />
    <line x1="466" y1="578" x2="482" y2="578" />
    <line x1="498" y1="578" x2="626" y2="578" />
    <line x1="2" y1="594" x2="18" y2="594" />
    <line x1="66" y1="594" x2="98" y2="594" />
    <line x1="146" y1="594" x2="162" y2="594" />
    <line x1="194" y1="594" x2="210" y2="594" />
    <line x1="226" y1="594" x2="258" y2="594" />
    <line x1="306" y1="594" x2="354" y2="594" />
    <line x1="370" y1="594" x2="402" y2="594" />
    <line x1="450" y1="594" x2="466" y2="594" />
    <line x1="482" y1="594" x2="514" y2="594" />
    <line x1="530" y1="594" x2="642" y2="594" />
    <line x1="18" y1="610" x2="66" y2="610" />
    <line x1="82" y1="610" x2="130" y2="610" />
    <line x1="162" y1="610" x2="242" y2="610" />
    <line x1="258" y1="610" x2="290" y2="610" />
    <line x1="354" y1="610" x2="370" y2="610" />
    <line x1="418" y1="610" x2="466" y2="610" />
    <line x1="514" y1="610" x2="530" y2="610" />
    <line x1="578" y1="610" x2="642" y2="610" />
    <line x1="50" y1="626" x2="66" y2="626" />
    <line x1="114" y1="626" x2="162" y2="626" />
    <line x1="178" y1="626" x2="226" y2="626" />
    <line x1="242" y1="626" x2="258" y2="626" />
    <line x1="274" y1="626" x2="306" y2="626" />
    <line x1="354" y1="626" x2="370" y2="626" />
    <line x1="386" y1="626" x2="418" y2="626" />
    <line x1="434" y1="626" x2="482" y2="626" />
    <line x1="530" y1="626" x2="562" y2="626" />
    <line x1="610" y1="626" x2="626" y2="626" />
    <line x1="2" y1="642" x2="322" y2="642" />
    <line x1="338" y1="642" x2="642" y2="642" />
    <line x1="2" y1="2" x2="2" y2="642" />
    <line x1="18" y1="18" x2="18" y2="50" />
    <line x1="18" y1="66" x2="18" y2="98" />
    <line x1="18" y1="114" x2="18" y2="146" />
    <line x1="18" y1="162" x2="18" y2="210" />
    <line x1="18" y1="226" x2="18" y2="274" />
    <line x1="18" y1="322" x2="18" y2="354" />
    <line x1="18" y1="402" x2="18" y2="418" />
    <line x1="18" y1="434" x2="18" y2="482" />
    <line x1="18" y1="514" x2="18" y2="546" />
    <line x1="18" y1="562" x2="18" y2="594" />
    <line x1="18" y1="610" x2="18" y2="626" />
    <line x1="34" y1="34" x2="34" y2="66" />
    <line x1="34" y1="98" x2="34" y2="162" />
    <line x1="34" y1="210" x2="34" y2="226" />
    <line x1="34" y1="242" x2="34" y2="290" />
    <line x1="34" y1="338" x2="34" y2="402" />
    <line x1="34" y1="450" x2="34" y2="466" />
    <line x1="34" y1="482" x2="34" y2="530" />
    <line x1="34" y1="578" x2="34" y2="610" />
    <line x1="34" y1="626" x2="34" y2="642" />
    <line x1="50" y1="34" x2="50" y2="50" />
    <line x1="50" y1="66" x2="50" y2="98" />
    <line x1="50" y1="178" x2="50" y2="210" />
    <line x1="50" y1="226" x2="50" y2="354" />
    <line x1="50" y1="386" x2="50" y2="418" />
    <line x1="50" y1="466" x2="50" y2="482" />
    <line x1="50" y1="498" x2="50" y2="546" />
    <line x1="50" y1="578" x2="50" y2="594" />
    <line x1="66" y1="18" x2="66" y2="34" />
    <line x1="66" y1="50" x2="66" y2="82" />
    <line x1="66" y1="98" x2="66" y2="114" />
    <line x1="66" y1="146" x2="66" y2="178" />
    <line x1="66" y1="210" x2="66" y2="290" />
    <line x1="66" y1="322" x2="66" y2="338" />
    <line x1="66" y1="370" x2="66" y2="386" />
    <line x1="66" y1="402" x2="66" y2="498" />
    <line x1="66" y1="514" x2="66" y2="530" />
    <line x1="66" y1="546" x2="66" y2="610" />
    <line x1="66" y1="626" x2="66" y2="642" />
    <line x1="82" y1="2" x2="82" y2="18" />
    <line x1="82" y1="34" x2="82" y2="66" />
    <line x1="82" y1="114" x2="82" y2="130" />
    <line x1="82" y1="194" x2="82" y2="338" />
    <line x1="82" y1="354" x2="82" y2="370" />
    <line x1="82" y1="386" x2="82" y2="434" />
    <line x1="82" y1="546" x2="82" y2="562" />
    <line x1="82" y1="610" x2="82" y2="626" />
    <line x1="98" y1="18" x2="98" y2="34" />
    <line x1="98" y1="50" x2="98" y2="82" />
    <line x1="98" y1="98" x2="98" y2="146" />
    <line x1="98" y1="162" x2="98" y2="210" />
    <line x1="98" y1="242" x2="98" y2="354" />
    <line x1="98" y1="370" x2="98" y2="402" />
    <line x1="98" y1="434" x2="98" y2="450" />
    <line x1="98" y1="482" x2="98" y2="546" />
    <line x1="98" y1="562" x2="98" y2="594" />
    <line x1="98" y1="626" x2="98" y2="642" />
    <line x1="114" y1="34" x2="114" y2="50" />
    <line x1="114" y1="82" x2="114" y2="98" />
    <line x1="114" y1="114" x2="114" y2="146" />
    <line x1="114" y1="162" x2="114" y2="178" />
    <line x1="114" y1="274" x2="114" y2="290" />
    <line x1="114" y1="306" x2="114" y2="322" />
    <line x1="114" y1="386" x2="114" y2="402" />
    <line x1="114" y1="450" x2="114" y2="466" />
    <line x1="114" y1="482" x2="114" y2="514" />
    <line x1="114" y1="578" x2="114" y2="594" />
    <line x1="130" y1="18" x2="130" y2="34" />
    <line x1="130" y1="50" x2="130" y2="82" />
    <line x1="130" y1="98" x2="130" y2="130" />
    <line x1="130" y1="178" x2="130" y2="210" />
    <line x1="130" y1="226" x2="130" y2="274" />
    <line x1="130" y1="290" x2="130" y2="306" />
    <line x1="130" y1="322" x2="130" y2="338" />
    <line x1="130" y1="354" x2="130" y2="370" />
    <line x1="130" y1="402" x2="130" y2="418" />
    <line x1="130" y1="434" x2="130" y2="482" />
    <line x1="130" y1="546" x2="130" y2="562" />
    <line x1="130" y1="578" x2="130" y2="594" />
    <line x1="130" y1="610" x2="130" y2="626" />
    <line x1="146" y1="34" x2="146" y2="50" />
    <line x1="146" y1="66" x2="146" y2="82" />
    <line x1="146" y1="114" x2="146" y2="146" />
    <line x1="146" y1="194" x2="146" y2="226" />
    <line x1="146" y1="242" x2="146" y2="290" />
    <line x1="146" y1="338" x2="146" y2="370" />
    <line x1="146" y1="386" x2="146" y2="466" />
    <line x1="146" y1="482" x2="146" y2="498" />
    <line x1="146" y1="514" x2="146" y2="578" />
    <line x1="146" y1="594" x2="146" y2="610" />
    <line x1="162" y1="18" x2="162" y2="66" />
    <line x1="162" y1="82" x2="162" y2="130" />
    <line x1="162" y1="210" x2="162" y2="258" />
    <line x1="162" y1="290" x2="162" y2="338" />
    <line x1="162" y1="370" x2="162" y2="402" />
    <line x1="162" y1="450" x2="162" y2="498" />
    <line x1="162" y1="514" x2="162" y2="546" />
    <line x1="162" y1="562" x2="162" y2="594" />
    <line x1="162" y1="610" x2="162" y2="626" />
    <line x1="178" y1="2" x2="178" y2="34" />
    <line x1="178" y1="82" x2="178" y2="114" />
    <line x1="178" y1="146" x2="178" y2="210" />
    <line x1="178" y1="226" x2="178" y2="274" />
    <line x1="178" y1="306" x2="178" y2="354" />
    <line x1="178" y1="402" x2="178" y2="418" />
    <line x1="178" y1="434" x2="178" y2="450" />
    <line x1="178" y1="466" x2="178" y2="514" />
    <line x1="178" y1="530" x2="178" y2="562" />
    <line x1="178" y1="578" x2="178" y2="610" />
    <line x1="178" y1="626" x2="178" y2="642" />
    <line x1="194" y1="34" x2="194" y2="50" />
    <line x1="194" y1="66" x2="194" y2="82" />
    <line x1="194" y1="114" x2="194" y2="162" />
    <line x1="194" y1="194" x2="194" y2="242" />
    <line x1="194" y1="274" x2="194" y2="290" />
    <line x1="194" y1="306" x2="194" y2="322" />
    <line x1="194" y1="354" x2="194" y2="370" />
    <line x1="194" y1="386" x2="194" y2="402" />
    <line x1="194" y1="418" x2="194" y2="434" />
    <line x1="194" y1="450" x2="194" y2="466" />
    <line x1="194" y1="498" x2="194" y2="514" />
    <line x1="194" y1="546" x2="194" y2="578" />
    <line x1="210" y1="18" x2="210" y2="50" />
    <line x1="210" y1="98" x2="210" y2="114" />
    <line x1="210" y1="178" x2="210" y2="194" />
    <line x1="210" y1="258" x2="210" y2="322" />
    <line x1="210" y1="338" x2="210" y2="354" />
    <line x1="210" y1="402" x2="210" y2="418" />
    <line x1="210" y1="434" x2="210" y2="466" />
    <line x1="210" y1="482" x2="210" y2="530" />
    <line x1="210" y1="562" x2="210" y2="594" />
    <line x1="226" y1="2" x2="226" y2="66" />
    <line x1="226" y1="82" x2="226" y2="98" />
    <line x1="226" y1="114" x2="226" y2="130" />
    <line x1="226" y1="162" x2="226" y2="178" />
    <line x1="226" y1="194" x2="226" y2="226" />
    <line x1="226" y1="242" x2="226" y2="306" />
    <line x1="226" y1="322" x2="226" y2="338" />
    <line x1="226" y1="370" x2="226" y2="386" />
    <line x1="226" y1="434" x2="226" y2="466" />
    <line x1="226" y1="482" x2="226" y2="498" />
    <line x1="226" y1="530" x2="226" y2="562" />
    <line x1="226" y1="594" x2="226" y2="610" />
    <line x1="242" y1="34" x2="242" y2="82" />
    <line x1="242" y1="130" x2="242" y2="162" />
    <line x1="242" y1="178" x2="242" y2="210" />
    <line x1="242" y1="338" x2="242" y2="354" />
    <line x1="242" y1="386" x2="242" y2="418" />
    <line x1="242" y1="466" x2="242" y2="546" />
    <line x1="242" y1="562" x2="242" y2="578" />
    <line x1="242" y1="626" x2="242" y2="642" />
    <line x1="258" y1="18" x2="258" y2="50" />
    <line x1="258" y1="66" x2="258" y2="130" />
    <line x1="258" y1="162" x2="258" y2="178" />
    <line x1="258" y1="194" x2="258" y2="210" />
    <line x1="258" y1="226" x2="258" y2="258" />
    <line x1="258" y1="290" x2="258" y2="306" />
    <line x1="258" y1="370" x2="258" y2="386" />
    <line x1="258" y1="450" x2="258" y2="498" />
    <line x1="258" y1="530" x2="258" y2="562" />
    <line x1="258" y1="594" x2="258" y2="626" />
    <line x1="274" y1="50" x2="274" y2="82" />
    <line x1="274" y1="98" x2="274" y2="114" />
    <line x1="274" y1="146" x2="274" y2="194" />
    <line x1="274" y1="242" x2="274" y2="322" />
    <line x1="274" y1="338" x2="274" y2="370" />
    <line x1="274" y1="402" x2="274" y2="418" />
    <line x1="274" y1="482" x2="274" y2="546" />
    <line x1="274" y1="578" x2="274" y2="594" />
    <line x1="290" y1="2" x2="290" y2="18" />
    <line x1="290" y1="50" x2="290" y2="66" />
    <line x1="290" y1="82" x2="290" y2="98" />
    <line x1="290" y1="130" x2="290" y2="146" />
    <line x1="290" y1="162" x2="290" y2="178" />
    <line x1="290" y1="210" x2="290" y2="242" />
    <line x1="290" y1="274" x2="290" y2="290" />
    <line x1="290" y1="322" x2="290" y2="370" />
    <line x1="290" y1="386" x2="290" y2="450" />
    <line x1="290" y1="482" x2="290" y2="530" />
    <line x1="290" y1="594" x2="290" y2="610" />
    <line x1="306" y1="18" x2="306" y2="50" />
    <line x1="306" y1="66" x2="306" y2="98" />
    <line x1="306" y1="114" x2="306" y2="178" />
    <line x1="306" y1="210" x2="306" y2="274" />
    <line x1="306" y1="306" x2="306" y2="322" />
    <line x1="306" y1="370" x2="306" y2="386" />
    <line x1="306" y1="418" x2="306" y2="434" />
    <line x1="306" y1="450" x2="306" y2="482" />
    <line x1="306" y1="498" x2="306" y2="546" />
    <line x1="306" y1="578" x2="306" y2="626" />
    <line x1="322" y1="50" x2="322" y2="66" />
    <line x1="322" y1="98" x2="322" y2="114" />
    <line x1="322" y1="130" x2="322" y2="162" />
    <line x1="322" y1="194" x2="322" y2="226" />
    <line x1="322" y1="274" x2="322" y2="290" />
    <line x1="322" y1="306" x2="322" y2="338" />
    <line x1="322" y1="354" x2="322" y2="370" />
    <line x1="322" y1="418" x2="322" y2="434" />
    <line x1="322" y1="466" x2="322" y2="514" />
    <line x1="322" y1="530" x2="322" y2="562" />
    <line x1="322" y1="578" x2="322" y2="594" />
    <line x1="322" y1="610" x2="322" y2="642" />
    <line x1="338" y1="66" x2="338" y2="98" />
    <line x1="338" y1="146" x2="338" y2="194" />
    <line x1="338" y1="242" x2="338" y2="258" />
    <line x1="338" y1="290" x2="338" y2="306" />
    <line x1="338" y1="370" x2="338" y2="418" />
    <line x1="338" y1="450" x2="338" y2="530" />
    <line x1="338" y1="562" x2="338" y2="578" />
    <line x1="338" y1="594" x2="338" y2="642" />
    <line x1="354" y1="34" x2="354" y2="50" />
    <line x1="354" y1="82" x2="354" y2="114" />
    <line x1="354" y1="130" x2="354" y2="146" />
    <line x1="354" y1="162" x2="354" y2="178" />
    <line x1="354" y1="226" x2="354" y2="242" />
    <line x1="354" y1="322" x2="354" y2="338" />
    <line x1="354" y1="434" x2="354" y2="466" />
    <line x1="354" y1="498" x2="354" y2="530" />
    <line x1="354" y1="546" x2="354" y2="562" />
    <line x1="370" y1="2" x2="370" y2="34" />
    <line x1="370" y1="50" x2="370" y2="82" />
    <line x1="370" y1="98" x2="370" y2="130" />
    <line x1="370" y1="146" x2="370" y2="162" />
    <line x1="370" y1="178" x2="370" y2="226" />
    <line x1="370" y1="274" x2="370" y2="290" />
    <line x1="370" y1="306" x2="370" y2="354" />
    <line x1="370" y1="402" x2="370" y2="418" />
    <line x1="370" y1="434" x2="370" y2="498" />
    <line x1="370" y1="562" x2="370" y2="626" />
    <line x1="386" y1="18" x2="386" y2="34" />
    <line x1="386" y1="66" x2="386" y2="82" />
    <line x1="386" y1="114" x2="386" y2="146" />
    <line x1="386" y1="162" x2="386" y2="178" />
    <line x1="386" y1="194" x2="386" y2="210" />
    <line x1="386" y1="226" x2="386" y2="274" />
    <line x1="386" y1="354" x2="386" y2="370" />
    <line x1="386" y1="386" x2="386" y2="402" />
    <line x1="386" y1="418" x2="386" y2="482" />
    <line x1="386" y1="514" x2="386" y2="578" />
    <line x1="386" y1="610" x2="386" y2="626" />
    <line x1="402" y1="34" x2="402" y2="66" />
    <line x1="402" y1="130" x2="402" y2="178" />
    <line x1="402" y1="210" x2="402" y2="226" />
    <line x1="402" y1="242" x2="402" y2="258" />
    <line x1="402" y1="306" x2="402" y2="338" />
    <line x1="402" y1="370" x2="402" y2="386" />
    <line x1="402" y1="402" x2="402" y2="418" />
    <line x1="402" y1="434" x2="402" y2="514" />
    <line x1="402" y1="546" x2="402" y2="610" />
    <line x1="418" y1="18" x2="418" y2="50" />
    <line x1="418" y1="66" x2="418" y2="82" />
    <line x1="418" y1="98" x2="418" y2="130" />
    <line x1="418" y1="146" x2="418" y2="162" />
    <line x1="418" y1="178" x2="418" y2="194" />
    <line x1="418" y1="210" x2="418" y2="258" />
    <line x1="418" y1="274" x2="418" y2="306" />
    <line x1="418" y1="322" x2="418" y2="370" />
    <line x1="418" y1="386" x2="418" y2="402" />
    <line x1="418" y1="418" x2="418" y2="498" />
    <line x1="418" y1="530" x2="418" y2="546" />
    <line x1="418" y1="562" x2="418" y2="626" />
    <line x1="434" y1="18" x2="434" y2="34" />
    <line x1="434" y1="82" x2="434" y2="98" />
    <line x1="434" y1="114" x2="434" y2="130" />
    <line x1="434" y1="146" x2="434" y2="178" />
    <line x1="434" y1="194" x2="434" y2="242" />
    <line x1="434" y1="258" x2="434" y2="274" />
    <line x1="434" y1="322" x2="434" y2="354" />
    <line x1="434" y1="370" x2="434" y2="386" />
    <line x1="434" y1="450" x2="434" y2="482" />
    <line x1="434" y1="498" x2="434" y2="530" />
    <line x1="434" y1="546" x2="434" y2="594" />
    <line x1="450" y1="98" x2="450" y2="146" />
    <line x1="450" y1="162" x2="450" y2="226" />
    <line x1="450" y1="290" x2="450" y2="322" />
    <line x1="450" y1="354" x2="450" y2="370" />
    <line x1="450" y1="402" x2="450" y2="418" />
    <line x1="450" y1="434" x2="450" y2="450" />
    <line x1="450" y1="482" x2="450" y2="498" />
    <line x1="450" y1="514" x2="450" y2="578" />
    <line x1="466" y1="2" x2="466" y2="34" />
    <line x1="466" y1="50" x2="466" y2="66" />
    <line x1="466" y1="114" x2="466" y2="130" />
    <line x1="466" y1="146" x2="466" y2="178" />
    <line x1="466" y1="210" x2="466" y2="338" />
    <line x1="466" y1="354" x2="466" y2="450" />
    <line x1="466" y1="466" x2="466" y2="482" />
    <line x1="466" y1="546" x2="466" y2="562" />
    <line x1="466" y1="578" x2="466" y2="610" />
    <line x1="482" y1="34" x2="482" y2="66" />
    <line x1="482" y1="82" x2="482" y2="114" />
    <line x1="482" y1="178" x2="482" y2="226" />
    <line x1="482" y1="274" x2="482" y2="322" />
    <line x1="482" y1="338" x2="482" y2="354" />
    <line x1="482" y1="386" x2="482" y2="402" />
    <line x1="482" y1="434" x2="482" y2="466" />
    <line x1="482" y1="482" x2="482" y2="546" />
    <line x1="482" y1="562" x2="482" y2="578" />
    <line x1="482" y1="594" x2="482" y2="626" />
    <line x1="498" y1="18" x2="498" y2="34" />
    <line x1="498" y1="114" x2="498" y2="130" />
    <line x1="498" y1="162" x2="498" y2="194" />
    <line x1="498" y1="258" x2="498" y2="306" />
    <line x1="498" y1="322" x2="498" y2="354" />
    <line x1="498" y1="370" x2="498" y2="386" />
    <line x1="498" y1="402" x2="498" y2="450" />
    <line x1="498" y1="466" x2="498" y2="482" />
    <line x1="498" y1="498" x2="498" y2="514" />
    <line x1="498" y1="546" x2="498" y2="562" />
    <line x1="498" y1="610" x2="498" y2="642" />
    <line x1="514" y1="2" x2="514" y2="34" />
    <line x1="514" y1="50" x2="514" y2="66" />
    <line x1="514" y1="82" x2="514" y2="130" />
    <line x1="514" y1="146" x2="514" y2="162" />
    <line x1="514" y1="194" x2="514" y2="242" />
    <line x1="514" y1="258" x2="514" y2="274" />
    <line x1="514" y1="306" x2="514" y2="322" />
    <line x1="514" y1="338" x2="514" y2="354" />
    <line x1="514" y1="386" x2="514" y2="402" />
    <line x1="514" y1="418" x2="514" y2="466" />
    <line x1="514" y1="482" x2="514" y2="498" />
    <line x1="514" y1="514" x2="514" y2="530" />
    <line x1="514" y1="546" x2="514" y2="562" />
    <line x1="514" y1="578" x2="514" y2="626" />
    <line x1="530" y1="34" x2="530" y2="50" />
    <line x1="530" y1="98" x2="530" y2="114" />
    <line x1="530" y1="162" x2="530" y2="194" />
    <line x1="530" y1="210" x2="530" y2="226" />
    <line x1="530" y1="242" x2="530" y2="338" />
    <line x1="530" y1="354" x2="530" y2="482" />
    <line x1="530" y1="498" x2="530" y2="530" />
    <line x1="530" y1="594" x2="530" y2="610" />
    <line x1="530" y1="626" x2="530" y2="642" />
    <line x1="546" y1="2" x2="546" y2="34" />
    <line x1="546" y1="50" x2="546" y2="98" />
    <line x1="546" y1="114" x2="546" y2="146" />
    <line x1="546" y1="162" x2="546" y2="178" />
    <line x1="546" y1="226" x2="546" y2="242" />
    <line x1="546" y1="290" x2="546" y2="338" />
    <line x1="546" y1="370" x2="546" y2="386" />
    <line x1="546" y1="418" x2="546" y2="466" />
    <line x1="546" y1="562" x2="546" y2="578" />
    <line x1="546" y1="610" x2="546" y2="626" />
    <line x1="562" y1="18" x2="562" y2="50" />
    <line x1="562" y1="82" x2="562" y2="98" />
    <line x1="562" y1="114" x2="562" y2="162" />
    <line x1="562" y1="178" x2="562" y2="226" />
    <line x1="562" y1="242" x2="562" y2="258" />
    <line x1="562" y1="274" x2="562" y2="290" />
    <line x1="562" y1="338" x2="562" y2="354" />
    <line x1="562" y1="370" x2="562" y2="418" />
    <line x1="562" y1="434" x2="562" y2="450" />
    <line x1="562" y1="466" x2="562" y2="498" />
    <line x1="562" y1="514" x2="562" y2="562" />
    <line x1="562" y1="594" x2="562" y2="610" />
    <line x1="578" y1="2" x2="578" y2="34" />
    <line x1="578" y1="50" x2="578" y2="66" />
    <line x1="578" y1="98" x2="578" y2="130" />
    <line x1="578" y1="162" x2="578" y2="178" />
    <line x1="578" y1="194" x2="578" y2="210" />
    <line x1="578" y1="226" x2="578" y2="242" />
    <line x1="578" y1="290" x2="578" y2="306" />
    <line x1="578" y1="322" x2="578" y2="386" />
    <line x1="578" y1="402" x2="578" y2="418" />
    <line x1="578" y1="450" x2="578" y2="482" />
    <line x1="578" y1="530" x2="578" y2="546" />
    <line x1="578" y1="610" x2="578" y2="626" />
    <line x1="594" y1="2" x2="594" y2="18" />
    <line x1="594" y1="34" x2="594" y2="50" />
    <line x1="594" y1="66" x2="594" y2="98" />
    <line x1="594" y1="146" x2="594" y2="178" />
    <line x1="594" y1="210" x2="594" y2="226" />
    <line x1="594" y1="242" x2="594" y2="258" />
    <line x1="594" y1="306" x2="594" y2="338" />
    <line x1="594" y1="370" x2="594" y2="402" />
    <line x1="594" y1="418" x2="594" y2="434" />
    <line x1="594" y1="450" x2="594" y2="482" />
    <line x1="594" y1="514" x2="594" y2="530" />
    <line x1="594" y1="546" x2="594" y2="578" />
    <line x1="594" y1="610" x2="594" y2="626" />
    <line x1="610" y1="18" x2="610" y2="34" />
    <line x1="610" y1="50" x2="610" y2="82" />
    <line x1="610" y1="114" x2="610" y2="162" />
    <line x1="610" y1="226" x2="610" y2="242" />
    <line x1="610" y1="258" x2="610" y2="306" />
    <line x1="610" y1="338" x2="610" y2="386" />
    <line x1="610" y1="402" x2="610" y2="418" />
    <line x1="610" y1="434" x2="610" y2="466" />
    <line x1="610" y1="482" x2="610" y2="514" />
    <line x1="610" y1="530" x2="610" y2="546" />
    <line x1="610" y1="626" x2="610" y2="642" />
    <line x1="626" y1="34" x2="626" y2="50" />
    <line x1="626" y1="162" x2="626" y2="178" />
    <line x1="626" y1="258" x2="626" y2="290" />
    <line x1="626" y1="306" x2="626" y2="338" />
    <line x1="626" y1="354" x2="626" y2="386" />
    <line x1="626" y1="418" x2="626" y2="466" />
    <line x1="642" y1="2" x2="642" y2="642" />
  </g>
  <polyline fill="none" stroke="#ff0000" stroke-width="2" stroke-linecap="square" stroke-linejoin="round" points="314,2 314,10 330,10 330,26 346,26 346,42 314,42 314,58 298,58 298,42 266,42 266,90 282,90 282,106 314,106 314,122 362,122 362,138 378,138 378,170 362,170 362,154 346,154 346,186 362,186 362,202 330,202 330,218 362,218 362,234 378,234 378,250 346,250 346,234 314,234 314,202 282,202 282,218 250,218 250,186 266,186 266,154 250,154 250,170 234,170 234,186 218,186 218,202 202,202 202,186 186,186 186,218 170,218 170,266 154,266 154,234 138,234 138,218 122,218 122,202 106,202 106,186 122,186 122,170 170,170 170,154 74,154 74,170 90,170 90,186 58,186 58,170 26,170 26,186 42,186 42,202 26,202 26,218 10,218 10,282 26,282 26,234 42,234 42,298 10,298 10,314 42,314 42,330 26,330 26,362 10,362 10,394 26,394 26,410 42,410 42,426 58,426 58,442 26,442 26,474 42,474 42,458 58,458 58,490 42,490 42,538 26,538 26,554 58,554 58,538 90,538 90,522 74,522 74,506 90,506 90,490 74,490 74,474 122,474 122,490 138,490 138,394 122,394 122,410 106,410 106,378 154,378 154,410 170,410 170,426 186,426 186,410 202,410 202,394 234,394 234,378 250,378 250,394 282,394 282,426 218,426 218,474 234,474 234,458 250,458 250,506 266,506 266,522 250,522 250,554 234,554 234,570 218,570 218,554 202,554 202,586 186,586 186,602 218,602 218,586 266,586 266,602 282,602 282,586 298,586 298,618 266,618 266,634 314,634 314,602 330,602 330,642" />
</svg>
