<svg width="40" height="40" viewBox="0 0 40 40" fill="none" xmlns="http://www.w3.org/2000/svg">
<path d="M35.7188 33.5624L38.9688 14.9062C39.5312 11.6249 37.4375 8.46869 34.1875 7.74994L8.5625 1.93744C4.375 0.99994 0.468753 4.46869 0.968753 8.74994L3.71875 33.2187C4.0625 36.3749 6.75 38.7812 9.9375 38.7812H29.5625C32.5938 38.7499 35.1875 36.5624 35.7188 33.5624Z" fill="#011132"/>
<path d="M10.5 35.3438H9.4375C9.15625 35.3438 8.9375 35.125 8.9375 34.8438V25.125H14.0625L13.0625 33.125C12.875 34.375 11.7812 35.3438 10.5 35.3438Z" fill="#C48E48"/>
<g opacity="0.25">
<path opacity="0.25" d="M8.90625 27.6562H13.7188L14.0312 25.125H8.90625V27.6562Z" fill="#62345B"/>
</g>
<path d="M28.0938 32.7812C27.375 32.7812 26.8125 32.2188 26.8125 31.5V5.9375C26.8125 5.21875 27.375 4.65625 28.0938 4.65625C28.8125 4.65625 29.375 5.21875 29.375 5.9375V31.5C29.375 32.2188 28.8125 32.7812 28.0938 32.7812Z" fill="white"/>
<g opacity="0.15">
<g opacity="0.15">
<path opacity="0.15" d="M28.0938 4.65625C27.375 4.65625 26.8125 5.21875 26.8125 5.9375V8.5C26.8125 7.78125 27.375 7.21875 28.0938 7.21875C28.8125 7.21875 29.375 7.78125 29.375 8.5V5.9375C29.375 5.21875 28.8125 4.65625 28.0938 4.65625Z" fill="#62345B"/>
</g>
</g>
<path d="M26.8125 30.2188C25.2813 26.3438 21.5312 23.8125 17.375 23.8125H16.5938V13.5938H17.375C21.5312 13.5938 25.2813 11.0625 26.8125 7.1875" fill="#FCF8DF"/>
<g opacity="0.15">
<g opacity="0.15">
<path opacity="0.15" d="M17.375 13.5938H16.5938V16.1562H17.375C21.5312 16.1562 25.2813 13.625 26.8125 9.75V7.1875C25.2813 11.0625 21.5312 13.5938 17.375 13.5938Z" fill="#62345B"/>
</g>
</g>
<path d="M15.3125 25.125H7.65625C6.9375 25.125 6.375 24.5625 6.375 23.8438V13.5937C6.375 12.875 6.9375 12.3125 7.65625 12.3125H15.3125C16.0312 12.3125 16.5937 12.875 16.5937 13.5937V23.8125C16.5937 24.5312 16.0312 25.125 15.3125 25.125Z" fill="#C48E48"/>
<g opacity="0.15">
<g opacity="0.15">
<path opacity="0.15" d="M15.3125 12.3438H7.65625C6.9375 12.3438 6.375 12.9062 6.375 13.625V16.1875C6.375 15.4688 6.9375 14.9063 7.65625 14.9063H15.3125C16.0312 14.9063 16.5937 15.4688 16.5937 16.1875V13.625C16.5937 12.9062 16.0312 12.3438 15.3125 12.3438Z" fill="#62345B"/>
</g>
</g>
<path d="M6.375 23.8438H3.8125C2.40625 23.8438 1.25 22.6875 1.25 21.2812V16.1562C1.25 14.75 2.40625 13.5938 3.8125 13.5938H6.375" fill="#FCF8DF"/>
<g opacity="0.15">
<g opacity="0.15">
<path opacity="0.15" d="M3.8125 13.5938C2.40625 13.5938 1.25 14.75 1.25 16.1562V18.7188C1.25 17.3125 2.40625 16.1562 3.8125 16.1562H6.375V13.5938H3.8125Z" fill="#62345B"/>
</g>
</g>
<path d="M15.3125 25.5938H7.65625C6.6875 25.5938 5.90625 24.8125 5.90625 23.8438V13.5937C5.90625 12.625 6.6875 11.8438 7.65625 11.8438H15.3125C16.2812 11.8438 17.0625 12.625 17.0625 13.5937V23.8125C17.0625 24.8125 16.2812 25.5938 15.3125 25.5938ZM7.65625 12.8125C7.21875 12.8125 6.84375 13.1875 6.84375 13.625V23.8438C6.84375 24.2812 7.21875 24.6562 7.65625 24.6562H15.3125C15.75 24.6562 16.125 24.2812 16.125 23.8438V13.5937C16.125 13.1562 15.75 12.7812 15.3125 12.7812H7.65625V12.8125Z" fill="#005684"/>
<path d="M6.375 24.3125H3.8125C2.15625 24.3125 0.78125 22.9687 0.78125 21.2812V16.1562C0.78125 14.5 2.125 13.125 3.8125 13.125H6.375C6.625 13.125 6.84375 13.3437 6.84375 13.5937C6.84375 13.8437 6.625 14.0625 6.375 14.0625H3.8125C2.65625 14.0625 1.71875 15 1.71875 16.1562V21.2812C1.71875 22.4375 2.65625 23.375 3.8125 23.375H6.375C6.625 23.375 6.84375 23.5938 6.84375 23.8438C6.84375 24.0938 6.625 24.3125 6.375 24.3125Z" fill="#005684"/>
<path d="M3.8125 17.9062H1.25C1 17.9062 0.78125 17.6875 0.78125 17.4375C0.78125 17.1875 1 16.9688 1.25 16.9688H3.8125C4.0625 16.9688 4.28125 17.1875 4.28125 17.4375C4.28125 17.6875 4.0625 17.9062 3.8125 17.9062Z" fill="#005684"/>
<path d="M3.8125 19.1875H1.25C1 19.1875 0.78125 18.9688 0.78125 18.7188C0.78125 18.4688 1 18.25 1.25 18.25H3.8125C4.0625 18.25 4.28125 18.4688 4.28125 18.7188C4.28125 18.9688 4.0625 19.1875 3.8125 19.1875Z" fill="#005684"/>
<path d="M3.8125 16.625H1.25C1 16.625 0.78125 16.4062 0.78125 16.1562C0.78125 15.9062 1 15.6875 1.25 15.6875H3.8125C4.0625 15.6875 4.28125 15.9062 4.28125 16.1562C4.28125 16.4062 4.0625 16.625 3.8125 16.625Z" fill="#005684"/>
<path d="M17.375 14.0625H16.5938C16.3438 14.0625 16.125 13.8438 16.125 13.5938C16.125 13.3438 16.3438 13.125 16.5938 13.125H17.375C21.375 13.125 24.9063 10.7188 26.375 7.03127C26.4688 6.78127 26.75 6.68752 26.9688 6.78127C27.2188 6.87502 27.3125 7.15627 27.2188 7.37502C25.625 11.4375 21.75 14.0625 17.375 14.0625Z" fill="#005684"/>
<path d="M26.8125 30.6875C26.625 30.6875 26.4375 30.5625 26.375 30.4063C24.9063 26.6875 21.375 24.3125 17.375 24.3125H16.5938C16.3438 24.3125 16.125 24.0938 16.125 23.8438C16.125 23.5938 16.3438 23.375 16.5938 23.375H17.375C21.75 23.375 25.625 26 27.25 30.0625C27.3438 30.3125 27.2188 30.5625 27 30.6563C26.9375 30.6875 26.875 30.6875 26.8125 30.6875Z" fill="#005684"/>
<path d="M28.0938 33.25C27.125 33.25 26.3438 32.4688 26.3438 31.5V5.9375C26.3438 4.96875 27.125 4.1875 28.0938 4.1875C29.0625 4.1875 29.8438 4.96875 29.8438 5.9375V31.5C29.8438 32.4688 29.0625 33.25 28.0938 33.25ZM28.0938 5.125C27.6562 5.125 27.2813 5.5 27.2813 5.9375V31.5C27.2813 31.9375 27.6562 32.3125 28.0938 32.3125C28.5313 32.3125 28.9062 31.9375 28.9062 31.5V5.9375C28.9062 5.5 28.5313 5.125 28.0938 5.125Z" fill="#005684"/>
<path d="M10.5 35.8125H9.4375C8.90625 35.8125 8.46875 35.375 8.46875 34.8437V25.125C8.46875 24.875 8.6875 24.6562 8.9375 24.6562C9.1875 24.6562 9.40625 24.875 9.40625 25.125V34.8437C9.40625 34.875 9.4375 34.875 9.4375 34.875H10.5C11.5625 34.875 12.4375 34.0937 12.5625 33.0312L13.5625 25.0312C13.5938 24.7812 13.8438 24.5937 14.0938 24.625C14.3438 24.6562 14.5313 24.9062 14.5 25.1562L13.5 33.1562C13.3125 34.6562 12.0312 35.8125 10.5 35.8125Z" fill="#005684"/>
<path d="M38.75 19.1875H35.6562C35.4062 19.1875 35.1875 18.9688 35.1875 18.7188C35.1875 18.4688 35.4062 18.25 35.6562 18.25H38.75C39 18.25 39.2188 18.4688 39.2188 18.7188C39.2188 18.9688 39 19.1875 38.75 19.1875Z" fill="#FCF8DF"/>
<path d="M34.4062 14.5C34.25 14.5 34.0938 14.4062 34 14.25C33.875 14.0312 33.9375 13.75 34.1875 13.625L36.875 12.0938C37.0938 11.9688 37.375 12.0312 37.5 12.2812C37.625 12.5 37.5625 12.7812 37.3125 12.9062L34.625 14.4375C34.5625 14.4687 34.4687 14.5 34.4062 14.5Z" fill="#FCF8DF"/>
<path d="M37.0938 25.4375C37 25.4375 36.9375 25.4062 36.8438 25.375L34.1563 23.8125C33.9375 23.6875 33.8438 23.4062 34 23.1875C34.125 22.9687 34.4063 22.875 34.625 23.0312L37.3125 24.5937C37.5313 24.7187 37.625 25 37.4688 25.2187C37.4063 25.3437 37.25 25.4375 37.0938 25.4375Z" fill="#FCF8DF"/>
</svg>
