<?xml version="1.0" encoding="UTF-8"?>
<svg xmlns="http://www.w3.org/2000/svg" xmlns:xlink="http://www.w3.org/1999/xlink" width="33px" height="26px" viewBox="0 0 33 26" version="1.1">
<g id="surface1">
<path style=" stroke:none;fill-rule:evenodd;fill:rgb(85.098039%,26.666667%,32.156863%);fill-opacity:1;" d="M 16.980469 0 C 23.957031 -0.00390625 29.816406 3.714844 30.574219 8.632812 C 30.824219 10.195312 30.957031 11.769531 30.972656 13.34375 L 27.597656 13.34375 Z M 16.980469 0 "/>
<path style=" stroke:none;fill-rule:evenodd;fill:rgb(78.823529%,22.745098%,29.803922%);fill-opacity:1;" d="M 29.078125 11.65625 C 29.050781 11.65625 29.027344 11.65625 29.003906 11.660156 C 28.914062 11.667969 28.828125 11.683594 28.742188 11.699219 C 28.652344 11.714844 28.5625 11.730469 28.476562 11.753906 C 28.386719 11.769531 28.300781 11.792969 28.214844 11.820312 C 28.195312 11.824219 28.183594 11.828125 28.167969 11.835938 C 27.730469 11.023438 27.132812 10.257812 26.398438 9.5625 C 27.089844 9.476562 27.597656 9.050781 27.597656 8.554688 L 27.597656 7.183594 C 27.597656 6.914062 27.445312 6.652344 27.171875 6.457031 C 26.902344 6.265625 26.535156 6.15625 26.148438 6.15625 L 25.636719 6.15625 C 25.28125 2.882812 21.617188 0.277344 17 0.0234375 L 16.984375 0 L 17.042969 0 C 17.238281 0 17.433594 0.00390625 17.636719 0.0078125 C 18.003906 0.0234375 18.371094 0.046875 18.738281 0.0820312 C 23.039062 0.566406 26.308594 3.078125 26.636719 6.15625 L 27.15625 6.15625 C 27.542969 6.15625 27.910156 6.265625 28.183594 6.457031 C 28.453125 6.652344 28.605469 6.914062 28.605469 7.183594 L 28.605469 8.554688 C 28.605469 9.050781 28.101562 9.476562 27.410156 9.558594 C 28.089844 10.203125 28.648438 10.910156 29.078125 11.65625 Z M 29.078125 11.65625 "/>
<path style=" stroke:none;fill-rule:evenodd;fill:rgb(89.411765%,90.980392%,92.156863%);fill-opacity:1;" d="M 32.902344 14.027344 C 32.902344 15.347656 31.390625 16.421875 29.527344 16.421875 C 27.660156 16.421875 26.148438 15.347656 26.148438 14.027344 C 26.148438 12.703125 27.660156 11.632812 29.527344 11.632812 C 31.390625 11.632812 32.902344 12.703125 32.902344 14.027344 Z M 32.902344 14.027344 "/>
<path style=" stroke:none;fill-rule:evenodd;fill:rgb(99.215686%,80.392157%,33.72549%);fill-opacity:1;" d="M 29.070312 15.289062 C 29.078125 17.835938 27.652344 20.277344 25.113281 22.074219 C 25.113281 22.078125 25.109375 22.078125 25.109375 22.078125 C 21.433594 24.679688 15.984375 25.566406 11.082031 24.351562 C 6.179688 23.140625 2.683594 20.046875 2.089844 16.386719 C 1.496094 12.730469 3.90625 9.152344 8.289062 7.179688 L 8.296875 7.175781 C 12.464844 5.308594 17.742188 5.195312 22.066406 6.882812 C 26.386719 8.570312 29.074219 11.789062 29.074219 15.289062 Z M 29.070312 15.289062 "/>
<path style=" stroke:none;fill-rule:evenodd;fill:rgb(96.078431%,72.54902%,27.058824%);fill-opacity:1;" d="M 25.109375 22.078125 C 21.433594 24.679688 15.984375 25.566406 11.082031 24.351562 C 6.179688 23.140625 2.683594 20.046875 2.089844 16.386719 C 1.496094 12.730469 3.90625 9.152344 8.289062 7.179688 C 3.417969 10.640625 2.996094 16.144531 7.304688 19.960938 C 11.613281 23.78125 19.28125 24.691406 25.109375 22.078125 Z M 25.109375 22.078125 "/>
<path style=" stroke:none;fill-rule:evenodd;fill:rgb(92.156863%,32.941176%,38.823529%);fill-opacity:1;" d="M 15.363281 0 L 16.253906 0 C 18.75 0 21.144531 0.703125 22.910156 1.953125 C 24.675781 3.207031 25.667969 4.902344 25.667969 6.671875 L 25.667969 8.554688 L 5.402344 8.554688 L 5.402344 7.0625 C 5.402344 5.191406 6.453125 3.394531 8.320312 2.070312 C 10.1875 0.742188 12.722656 0 15.363281 0 Z M 15.363281 0 "/>
<path style=" stroke:none;fill-rule:evenodd;fill:rgb(85.098039%,26.666667%,32.156863%);fill-opacity:1;" d="M 17.015625 0.0234375 C 11.824219 0.304688 7.8125 3.371094 7.816406 7.0625 L 7.816406 8.550781 L 5.402344 8.550781 L 5.402344 7.0625 C 5.402344 5.191406 6.453125 3.394531 8.320312 2.066406 C 10.191406 0.742188 12.722656 0 15.367188 0 L 16.257812 0 C 16.515625 0 16.769531 0.0078125 17.015625 0.0234375 Z M 17.015625 0.0234375 "/>
<path style=" stroke:none;fill-rule:evenodd;fill:rgb(89.411765%,90.980392%,92.156863%);fill-opacity:1;" d="M 4.921875 6.15625 L 26.148438 6.15625 C 26.949219 6.15625 27.597656 6.617188 27.597656 7.183594 L 27.597656 8.554688 C 27.597656 9.121094 26.949219 9.578125 26.148438 9.578125 L 4.921875 9.578125 C 4.121094 9.578125 3.472656 9.121094 3.472656 8.554688 L 3.472656 7.183594 C 3.472656 6.617188 4.121094 6.15625 4.921875 6.15625 Z M 4.921875 6.15625 "/>
<path style=" stroke:none;fill-rule:evenodd;fill:rgb(79.215686%,81.568627%,84.313725%);fill-opacity:1;" d="M 6.367188 9.578125 L 4.921875 9.578125 C 4.539062 9.578125 4.167969 9.472656 3.898438 9.277344 C 3.625 9.085938 3.472656 8.824219 3.472656 8.550781 L 3.472656 7.183594 C 3.472656 6.910156 3.625 6.652344 3.898438 6.457031 C 4.167969 6.265625 4.539062 6.15625 4.921875 6.15625 L 6.367188 6.15625 C 5.984375 6.15625 5.617188 6.265625 5.34375 6.457031 C 5.074219 6.652344 4.921875 6.910156 4.921875 7.183594 L 4.921875 8.550781 C 4.921875 8.824219 5.074219 9.085938 5.34375 9.277344 C 5.617188 9.472656 5.984375 9.578125 6.367188 9.578125 Z M 6.367188 9.578125 "/>
<path style=" stroke:none;fill-rule:evenodd;fill:rgb(81.960784%,84.705882%,85.882353%);fill-opacity:1;" d="M 30.367188 15.289062 C 30.363281 15.648438 30.335938 16.003906 30.285156 16.359375 C 30.035156 16.402344 29.78125 16.421875 29.527344 16.421875 C 29.34375 16.421875 29.164062 16.410156 28.984375 16.386719 C 29.042969 16.023438 29.074219 15.65625 29.074219 15.289062 C 29.074219 14.105469 28.769531 12.933594 28.164062 11.832031 C 28.539062 11.714844 28.941406 11.648438 29.351562 11.636719 C 30.023438 12.796875 30.367188 14.035156 30.367188 15.289062 Z M 30.367188 15.289062 "/>
<path style=" stroke:none;fill-rule:evenodd;fill:rgb(95.686275%,96.470588%,97.254902%);fill-opacity:1;" d="M 30.972656 17.617188 C 30.972656 16.304688 29.578125 15.207031 27.738281 15.066406 C 25.898438 14.925781 24.207031 15.796875 23.820312 17.078125 C 22.847656 17.375 21.964844 17.804688 21.222656 18.335938 C 20.929688 18.546875 20.652344 18.773438 20.402344 19.011719 C 19.3125 19.785156 17.382812 19.84375 15.535156 19.84375 C 13.6875 19.84375 11.757812 19.785156 10.667969 19.011719 C 10.417969 18.773438 10.140625 18.546875 9.847656 18.335938 C 9.105469 17.804688 8.222656 17.375 7.25 17.078125 C 6.925781 16.007812 5.679688 15.203125 4.148438 15.070312 C 2.617188 14.941406 1.136719 15.511719 0.460938 16.496094 C -0.214844 17.480469 0.0664062 18.660156 1.15625 19.433594 C 0.785156 20.523438 1.566406 22.042969 3.28125 23.257812 C 5.023438 24.492188 7.207031 25.042969 8.75 24.75 C 10.058594 25.496094 12.605469 26 15.535156 26 C 18.460938 26 21.011719 25.496094 22.320312 24.75 C 23.863281 25.042969 26.046875 24.492188 27.789062 23.257812 C 29.5 22.042969 30.285156 20.527344 29.914062 19.433594 C 30.59375 18.953125 30.976562 18.300781 30.972656 17.617188 Z M 30.972656 17.617188 "/>
<path style=" stroke:none;fill-rule:evenodd;fill:rgb(89.411765%,90.980392%,92.156863%);fill-opacity:1;" d="M 28.753906 21.921875 C 29.113281 21.667969 29.4375 21.394531 29.730469 21.101562 C 29.324219 21.917969 28.660156 22.65625 27.789062 23.257812 C 26.046875 24.492188 23.863281 25.046875 22.320312 24.75 C 21.011719 25.492188 18.464844 26 15.535156 26 C 12.605469 26 10.058594 25.492188 8.75 24.746094 C 7.207031 25.046875 5.023438 24.492188 3.28125 23.257812 C 1.570312 22.042969 0.785156 20.527344 1.15625 19.429688 C -0.242188 18.441406 -0.261719 16.839844 1.121094 15.835938 C 1.082031 15.984375 1.0625 16.132812 1.0625 16.28125 C 1.058594 16.964844 1.441406 17.617188 2.121094 18.097656 C 1.75 19.191406 2.53125 20.707031 4.246094 21.921875 C 5.988281 23.15625 8.171875 23.710938 9.714844 23.414062 C 11.023438 24.160156 13.570312 24.664062 16.5 24.664062 C 19.429688 24.664062 21.976562 24.160156 23.285156 23.414062 C 24.828125 23.710938 27.011719 23.15625 28.753906 21.921875 Z M 28.753906 21.921875 "/>
<path style=" stroke:none;fill-rule:evenodd;fill:rgb(96.862745%,44.705882%,52.54902%);fill-opacity:1;" d="M 17.109375 0.953125 C 17.109375 0.953125 20.898438 2.234375 21.910156 3.464844 C 21.726562 2.8125 21.28125 2.207031 20.636719 1.722656 C 19.496094 0.796875 17.109375 0.953125 17.109375 0.953125 Z M 17.109375 0.953125 "/>
<path style=" stroke:none;fill-rule:evenodd;fill:rgb(25.882353%,28.235294%,32.156863%);fill-opacity:1;" d="M 14.667969 19.5 C 14.328125 19.5 14.054688 19.304688 14.054688 19.066406 C 14.054688 18.828125 14.328125 18.632812 14.667969 18.632812 C 15.417969 18.605469 16.15625 18.472656 16.839844 18.242188 C 17.140625 18.136719 17.507812 18.222656 17.660156 18.4375 C 17.808594 18.652344 17.6875 18.914062 17.382812 19.019531 C 16.535156 19.308594 15.609375 19.472656 14.667969 19.5 Z M 14.667969 19.5 "/>
<path style=" stroke:none;fill-rule:evenodd;fill:rgb(95.686275%,96.470588%,97.254902%);fill-opacity:1;" d="M 16.578125 18.09375 L 18.710938 18.515625 C 20.644531 18.882812 22.691406 18.328125 23.78125 17.140625 L 23.882812 17.035156 C 24.574219 16.300781 24.84375 15.402344 24.632812 14.527344 C 24.070312 14.914062 23.390625 15.195312 22.644531 15.359375 C 21.910156 15.523438 21.128906 15.550781 20.375 15.449219 L 17.78125 15.101562 C 16.628906 14.890625 15.449219 15.375 15.144531 16.191406 C 14.972656 16.578125 15.03125 16.996094 15.300781 17.355469 C 15.570312 17.710938 16.027344 17.976562 16.578125 18.09375 Z M 16.578125 18.09375 "/>
<path style=" stroke:none;fill-rule:evenodd;fill:rgb(89.411765%,90.980392%,92.156863%);fill-opacity:1;" d="M 15.28125 17.320312 C 15.535156 17.699219 16.007812 17.980469 16.578125 18.09375 L 18.710938 18.515625 C 20.644531 18.882812 22.691406 18.328125 23.785156 17.136719 L 23.882812 17.035156 C 24.578125 16.296875 24.84375 15.402344 24.632812 14.527344 C 24.335938 14.726562 24.011719 14.902344 23.65625 15.046875 C 23.542969 15.515625 23.289062 15.957031 22.917969 16.351562 L 22.816406 16.453125 C 21.722656 17.644531 19.675781 18.199219 17.742188 17.832031 L 15.613281 17.410156 C 15.496094 17.386719 15.386719 17.355469 15.28125 17.320312 Z M 15.28125 17.320312 "/>
<path style=" stroke:none;fill-rule:evenodd;fill:rgb(95.686275%,96.470588%,97.254902%);fill-opacity:1;" d="M 14.492188 18.09375 L 12.359375 18.515625 C 10.425781 18.882812 8.378906 18.328125 7.285156 17.140625 L 7.1875 17.035156 C 6.492188 16.300781 6.226562 15.402344 6.4375 14.527344 C 6.996094 14.914062 7.679688 15.195312 8.425781 15.359375 C 9.160156 15.523438 9.9375 15.550781 10.695312 15.449219 L 13.285156 15.101562 C 14.441406 14.890625 15.617188 15.375 15.925781 16.191406 C 16.09375 16.578125 16.039062 16.996094 15.769531 17.355469 C 15.5 17.710938 15.039062 17.976562 14.492188 18.09375 Z M 14.492188 18.09375 "/>
<path style=" stroke:none;fill-rule:evenodd;fill:rgb(89.411765%,90.980392%,92.156863%);fill-opacity:1;" d="M 15.789062 17.320312 C 15.535156 17.699219 15.0625 17.980469 14.492188 18.09375 L 12.359375 18.515625 C 10.425781 18.882812 8.378906 18.328125 7.289062 17.136719 L 7.1875 17.035156 C 6.492188 16.296875 6.226562 15.402344 6.4375 14.527344 C 6.734375 14.726562 7.0625 14.902344 7.414062 15.046875 C 7.527344 15.515625 7.78125 15.957031 8.152344 16.351562 L 8.253906 16.453125 C 9.34375 17.644531 11.390625 18.199219 13.324219 17.832031 L 15.457031 17.410156 C 15.570312 17.386719 15.683594 17.355469 15.789062 17.320312 Z M 15.789062 17.320312 "/>
<path style=" stroke:none;fill-rule:evenodd;fill:rgb(23.529412%,26.27451%,27.843137%);fill-opacity:1;" d="M 15.539062 10.8125 C 16.171875 10.808594 16.796875 10.753906 17.410156 10.652344 C 21.414062 10.003906 27.5 10.8125 27.5 10.8125 L 27.5 11.433594 C 26.945312 11.644531 26.492188 11.96875 26.191406 12.359375 C 25.933594 12.875 25.757812 13.410156 25.667969 13.953125 C 25.425781 15 24.148438 15.769531 22.652344 15.765625 L 20.515625 15.765625 C 19.472656 15.765625 18.472656 15.472656 17.734375 14.949219 C 17 14.429688 16.585938 13.71875 16.585938 12.980469 C 16.585938 12.46875 16 12.050781 15.277344 12.050781 C 14.554688 12.050781 13.96875 12.464844 13.96875 12.980469 C 13.96875 13.71875 13.554688 14.425781 12.816406 14.949219 C 12.082031 15.472656 11.082031 15.765625 10.039062 15.765625 L 7.902344 15.765625 C 6.410156 15.765625 5.132812 15 4.890625 13.953125 C 4.796875 13.410156 4.621094 12.878906 4.363281 12.363281 C 4.0625 11.96875 3.609375 11.644531 3.054688 11.433594 L 3.054688 10.8125 C 3.054688 10.8125 9.140625 10.003906 13.144531 10.652344 C 13.757812 10.753906 14.386719 10.808594 15.015625 10.8125 Z M 15.539062 10.8125 "/>
<path style=" stroke:none;fill-rule:evenodd;fill:rgb(20%,22.745098%,23.921569%);fill-opacity:1;" d="M 21.824219 15.765625 L 20.515625 15.765625 C 18.347656 15.765625 16.585938 14.519531 16.585938 12.980469 C 16.585938 12.734375 16.449219 12.496094 16.203125 12.324219 C 16.121094 12.265625 16.03125 12.214844 15.933594 12.175781 L 16.585938 12.050781 C 17.308594 12.050781 17.894531 12.464844 17.898438 12.980469 C 17.898438 14.519531 19.65625 15.765625 21.824219 15.765625 Z M 21.824219 15.765625 "/>
<path style=" stroke:none;fill-rule:evenodd;fill:rgb(20%,22.745098%,23.921569%);fill-opacity:1;" d="M 9.214844 15.765625 L 7.90625 15.765625 C 6.410156 15.765625 5.132812 15 4.890625 13.953125 C 4.796875 13.410156 4.621094 12.878906 4.363281 12.363281 C 4.066406 11.96875 3.609375 11.644531 3.054688 11.433594 L 3.054688 10.8125 C 5.34375 10.527344 7.667969 10.394531 9.992188 10.40625 C 8.105469 10.449219 6.226562 10.582031 4.363281 10.8125 L 4.363281 11.433594 C 4.917969 11.644531 5.375 11.96875 5.675781 12.359375 C 5.929688 12.875 6.105469 13.410156 6.199219 13.949219 C 6.441406 14.996094 7.71875 15.765625 9.214844 15.765625 Z M 9.214844 15.765625 "/>
<path style=" stroke:none;fill-rule:nonzero;fill:rgb(16.470588%,18.431373%,20%);fill-opacity:1;" d="M 22.652344 16.199219 L 20.515625 16.199219 C 18.007812 16.195312 15.980469 14.757812 15.976562 12.980469 C 15.976562 12.707031 15.664062 12.484375 15.277344 12.484375 C 14.890625 12.484375 14.578125 12.707031 14.578125 12.980469 C 14.578125 14.757812 12.546875 16.195312 10.039062 16.199219 L 7.90625 16.199219 C 6.105469 16.203125 4.570312 15.28125 4.285156 14.019531 C 4.214844 13.519531 4.054688 13.027344 3.816406 12.554688 C 3.574219 12.246094 3.214844 11.988281 2.78125 11.816406 C 2.574219 11.742188 2.445312 11.59375 2.445312 11.433594 L 2.445312 10.8125 C 2.445312 10.605469 2.652344 10.425781 2.941406 10.386719 C 3.195312 10.351562 9.199219 9.566406 13.28125 10.226562 C 13.847656 10.324219 14.429688 10.375 15.015625 10.378906 L 15.542969 10.378906 C 16.125 10.375 16.707031 10.324219 17.273438 10.226562 C 21.355469 9.570312 27.359375 10.351562 27.613281 10.386719 C 27.902344 10.425781 28.109375 10.605469 28.109375 10.8125 L 28.109375 11.433594 C 28.109375 11.597656 27.980469 11.746094 27.773438 11.820312 C 27.335938 11.992188 26.976562 12.246094 26.734375 12.554688 C 26.496094 13.03125 26.339844 13.523438 26.265625 14.023438 C 25.980469 15.28125 24.445312 16.203125 22.652344 16.199219 Z M 15.277344 11.617188 C 16.339844 11.617188 17.195312 12.226562 17.199219 12.980469 C 17.199219 14.277344 18.683594 15.332031 20.515625 15.332031 L 22.652344 15.332031 C 23.847656 15.335938 24.871094 14.722656 25.0625 13.882812 C 25.144531 13.292969 25.339844 12.71875 25.644531 12.167969 C 25.9375 11.773438 26.367188 11.4375 26.890625 11.1875 L 26.890625 11.179688 C 25.371094 11.007812 20.730469 10.5625 17.546875 11.074219 C 16.890625 11.1875 16.214844 11.246094 15.542969 11.25 L 15.015625 11.25 C 14.339844 11.246094 13.667969 11.1875 13.011719 11.074219 C 9.824219 10.558594 5.183594 11.007812 3.667969 11.179688 L 3.667969 11.191406 C 4.191406 11.4375 4.617188 11.773438 4.910156 12.167969 C 5.214844 12.71875 5.414062 13.296875 5.492188 13.882812 C 5.683594 14.722656 6.707031 15.335938 7.90625 15.332031 L 10.039062 15.332031 C 11.871094 15.332031 13.355469 14.277344 13.355469 12.980469 C 13.355469 12.226562 14.21875 11.617188 15.277344 11.617188 Z M 15.277344 11.617188 "/>
<path style=" stroke:none;fill-rule:evenodd;fill:rgb(27.45098%,30.588235%,31.764706%);fill-opacity:1;" d="M 10.039062 14.960938 C 9.703125 14.960938 9.429688 14.765625 9.429688 14.527344 C 9.429688 14.289062 9.703125 14.09375 10.039062 14.09375 C 10.90625 14.09375 11.609375 13.59375 11.609375 12.980469 C 11.609375 12.738281 11.882812 12.546875 12.222656 12.546875 C 12.558594 12.546875 12.832031 12.738281 12.832031 12.980469 C 12.832031 14.074219 11.582031 14.957031 10.039062 14.960938 Z M 10.039062 14.960938 "/>
<path style=" stroke:none;fill-rule:evenodd;fill:rgb(27.45098%,30.588235%,31.764706%);fill-opacity:1;" d="M 22.261719 14.960938 C 21.925781 14.960938 21.652344 14.765625 21.652344 14.527344 C 21.652344 14.289062 21.925781 14.09375 22.261719 14.09375 C 23.128906 14.09375 23.832031 13.59375 23.832031 12.980469 C 23.832031 12.738281 24.105469 12.546875 24.445312 12.546875 C 24.78125 12.546875 25.054688 12.738281 25.054688 12.980469 C 25.054688 14.074219 23.804688 14.957031 22.261719 14.960938 Z M 22.261719 14.960938 "/>
</g>
</svg>
