<?xml version="1.0" encoding="UTF-8"?>
<svg xmlns="http://www.w3.org/2000/svg" xmlns:xlink="http://www.w3.org/1999/xlink" width="33px" height="26px" viewBox="0 0 33 26" version="1.1">
<g id="surface1">
<path style=" stroke:none;fill-rule:evenodd;fill:rgb(70.588235%,53.72549%,40%);fill-opacity:1;" d="M 5.679688 14.21875 C 5.492188 14.214844 5.320312 14.292969 5.226562 14.417969 C 5.132812 14.546875 5.132812 14.703125 5.226562 14.828125 C 5.320312 14.957031 5.492188 15.03125 5.679688 15.03125 L 8.050781 15.03125 C 8.238281 15.03125 8.410156 14.957031 8.503906 14.828125 C 8.597656 14.703125 8.597656 14.546875 8.503906 14.417969 C 8.410156 14.292969 8.238281 14.214844 8.050781 14.21875 Z M 5.679688 14.21875 "/>
<path style=" stroke:none;fill-rule:evenodd;fill:rgb(70.588235%,53.72549%,40%);fill-opacity:1;" d="M 5.667969 12.59375 C 5.449219 12.59375 5.253906 12.707031 5.183594 12.871094 C 5.113281 13.035156 5.183594 13.214844 5.355469 13.320312 L 10.5 16.566406 C 10.722656 16.707031 11.046875 16.675781 11.226562 16.5 C 11.402344 16.328125 11.367188 16.070312 11.144531 15.929688 L 6 12.6875 C 5.90625 12.625 5.789062 12.59375 5.667969 12.59375 Z M 5.667969 12.59375 "/>
<path style=" stroke:none;fill-rule:evenodd;fill:rgb(70.588235%,53.72549%,40%);fill-opacity:1;" d="M 7.726562 12.183594 C 7.441406 12.183594 7.214844 12.371094 7.21875 12.59375 L 7.21875 14.21875 C 7.21875 14.363281 7.316406 14.5 7.476562 14.574219 C 7.636719 14.648438 7.835938 14.648438 7.996094 14.574219 C 8.15625 14.5 8.253906 14.363281 8.25 14.21875 L 8.25 12.59375 C 8.253906 12.484375 8.199219 12.378906 8.097656 12.300781 C 8 12.222656 7.867188 12.179688 7.726562 12.183594 Z M 7.726562 12.183594 "/>
<path style=" stroke:none;fill-rule:evenodd;fill:rgb(70.588235%,53.72549%,40%);fill-opacity:1;" d="M 24.949219 14.21875 C 24.761719 14.214844 24.589844 14.292969 24.496094 14.417969 C 24.402344 14.546875 24.402344 14.703125 24.496094 14.828125 C 24.589844 14.957031 24.761719 15.03125 24.949219 15.03125 L 27.320312 15.03125 C 27.507812 15.03125 27.679688 14.957031 27.773438 14.828125 C 27.867188 14.703125 27.867188 14.546875 27.773438 14.417969 C 27.679688 14.292969 27.507812 14.214844 27.320312 14.21875 Z M 24.949219 14.21875 "/>
<path style=" stroke:none;fill-rule:evenodd;fill:rgb(70.588235%,53.72549%,40%);fill-opacity:1;" d="M 27.320312 12.59375 C 27.203125 12.59375 27.089844 12.628906 27 12.6875 L 21.855469 15.929688 C 21.632812 16.070312 21.597656 16.328125 21.777344 16.5 C 21.953125 16.675781 22.277344 16.707031 22.5 16.566406 L 27.644531 13.320312 C 27.820312 13.210938 27.886719 13.027344 27.816406 12.863281 C 27.742188 12.699219 27.539062 12.589844 27.320312 12.59375 Z M 27.320312 12.59375 "/>
<path style=" stroke:none;fill-rule:evenodd;fill:rgb(70.588235%,53.72549%,40%);fill-opacity:1;" d="M 25.257812 12.183594 C 24.972656 12.183594 24.746094 12.371094 24.75 12.59375 L 24.75 14.21875 C 24.75 14.363281 24.847656 14.5 25.007812 14.574219 C 25.167969 14.648438 25.367188 14.648438 25.527344 14.574219 C 25.6875 14.5 25.785156 14.363281 25.78125 14.21875 L 25.78125 12.59375 C 25.785156 12.484375 25.730469 12.378906 25.628906 12.300781 C 25.53125 12.222656 25.398438 12.179688 25.257812 12.183594 Z M 25.257812 12.183594 "/>
<path style=" stroke:none;fill-rule:nonzero;fill:rgb(84.705882%,84.313725%,86.27451%);fill-opacity:1;" d="M 23.71875 18.6875 C 23.71875 21.828125 20.488281 24.375 16.5 24.375 C 12.511719 24.375 9.28125 21.828125 9.28125 18.6875 C 9.28125 15.546875 12.511719 13 16.5 13 C 20.488281 13 23.71875 15.546875 23.71875 18.6875 Z M 23.71875 18.6875 "/>
<path style=" stroke:none;fill-rule:nonzero;fill:rgb(78.039216%,77.647059%,80.392157%);fill-opacity:1;" d="M 16.5 13 C 15.34375 13 14.203125 13.21875 13.179688 13.640625 C 14.078125 14.246094 15.230469 14.625 16.5 14.625 C 17.765625 14.625 18.917969 14.246094 19.816406 13.644531 C 18.792969 13.222656 17.65625 13.003906 16.5 13 Z M 16.5 13 "/>
<path style=" stroke:none;fill-rule:nonzero;fill:rgb(99.215686%,1.568627%,21.568627%);fill-opacity:1;" d="M 13.570312 12.242188 C 13.152344 12.242188 12.773438 12.441406 12.613281 12.75 C 12.457031 13.054688 12.550781 13.410156 12.851562 13.640625 C 13.820312 14.402344 15.132812 14.828125 16.5 14.828125 C 17.867188 14.828125 19.179688 14.402344 20.144531 13.640625 C 20.417969 13.433594 20.523438 13.132812 20.429688 12.847656 C 20.335938 12.5625 20.054688 12.339844 19.691406 12.265625 C 19.332031 12.191406 18.945312 12.277344 18.6875 12.488281 C 18.109375 12.945312 17.320312 13.203125 16.5 13.203125 C 15.679688 13.203125 14.890625 12.945312 14.3125 12.488281 C 14.117188 12.332031 13.851562 12.242188 13.570312 12.242188 Z M 13.570312 12.242188 "/>
<path style=" stroke:none;fill-rule:nonzero;fill:rgb(83.921569%,2.745098%,14.117647%);fill-opacity:1;" d="M 19.410156 12.238281 C 19.136719 12.246094 18.875 12.335938 18.6875 12.492188 C 18.3125 12.785156 17.84375 12.984375 17.34375 13.097656 C 17.019531 13.636719 16.824219 14.21875 16.777344 14.804688 C 17.332031 14.78125 17.875 14.699219 18.382812 14.539062 C 18.527344 13.851562 18.921875 13.1875 19.589844 12.664062 C 19.589844 12.660156 19.59375 12.65625 19.597656 12.652344 C 19.703125 12.566406 19.78125 12.574219 19.882812 12.609375 C 19.984375 12.640625 20.042969 12.679688 20.039062 12.800781 C 20.035156 12.855469 20.007812 12.902344 19.960938 12.941406 C 19.957031 12.945312 19.953125 12.945312 19.953125 12.949219 C 19.457031 13.339844 19.128906 13.8125 18.960938 14.3125 C 19.386719 14.128906 19.792969 13.914062 20.144531 13.640625 C 20.453125 13.40625 20.546875 13.050781 20.386719 12.742188 C 20.222656 12.429688 19.835938 12.230469 19.410156 12.238281 Z M 19.410156 12.238281 "/>
<path style=" stroke:none;fill-rule:nonzero;fill:rgb(16.470588%,16.078431%,18.039216%);fill-opacity:1;" d="M 17.015625 15.84375 C 17.015625 16.066406 16.785156 16.25 16.5 16.25 C 16.214844 16.25 15.984375 16.066406 15.984375 15.84375 C 15.984375 15.621094 16.214844 15.4375 16.5 15.4375 C 16.785156 15.4375 17.015625 15.621094 17.015625 15.84375 Z M 17.015625 15.84375 "/>
<path style=" stroke:none;fill-rule:nonzero;fill:rgb(16.470588%,16.078431%,18.039216%);fill-opacity:1;" d="M 17.015625 17.46875 C 17.015625 17.691406 16.785156 17.875 16.5 17.875 C 16.214844 17.875 15.984375 17.691406 15.984375 17.46875 C 15.984375 17.246094 16.214844 17.0625 16.5 17.0625 C 16.785156 17.0625 17.015625 17.246094 17.015625 17.46875 Z M 17.015625 17.46875 "/>
<path style=" stroke:none;fill-rule:nonzero;fill:rgb(16.470588%,16.078431%,18.039216%);fill-opacity:1;" d="M 17.015625 19.09375 C 17.015625 19.316406 16.785156 19.5 16.5 19.5 C 16.214844 19.5 15.984375 19.316406 15.984375 19.09375 C 15.984375 18.871094 16.214844 18.6875 16.5 18.6875 C 16.785156 18.6875 17.015625 18.871094 17.015625 19.09375 Z M 17.015625 19.09375 "/>
<path style=" stroke:none;fill-rule:nonzero;fill:rgb(99.215686%,1.568627%,21.568627%);fill-opacity:1;" d="M 20.8125 12.816406 C 20.804688 13.03125 20.691406 13.230469 20.5 13.375 C 19.398438 14.246094 19.28125 15.605469 20.226562 16.578125 C 20.460938 16.808594 20.519531 17.121094 20.375 17.394531 C 20.234375 17.667969 19.917969 17.859375 19.546875 17.894531 C 19.175781 17.929688 18.808594 17.804688 18.585938 17.566406 C 17.027344 15.953125 17.21875 13.660156 19.039062 12.226562 C 19.335938 11.988281 19.789062 11.914062 20.183594 12.046875 C 20.574219 12.175781 20.824219 12.484375 20.8125 12.816406 Z M 20.8125 12.816406 "/>
<path style=" stroke:none;fill-rule:nonzero;fill:rgb(84.705882%,84.313725%,86.27451%);fill-opacity:1;" d="M 22.089844 18.152344 C 22.089844 18.234375 22.039062 18.308594 21.960938 18.355469 C 21.882812 18.40625 21.777344 18.421875 21.679688 18.40625 C 20.523438 18.210938 19.511719 17.664062 18.867188 16.882812 C 18.765625 16.757812 18.808594 16.597656 18.964844 16.515625 C 19.121094 16.4375 19.328125 16.472656 19.429688 16.59375 C 19.976562 17.257812 20.835938 17.722656 21.820312 17.886719 C 21.980469 17.914062 22.09375 18.023438 22.089844 18.152344 Z M 22.089844 18.152344 "/>
<path style=" stroke:none;fill-rule:nonzero;fill:rgb(99.215686%,1.568627%,21.568627%);fill-opacity:1;" d="M 20.21875 18.097656 C 20.207031 18.195312 20.132812 18.285156 20.015625 18.328125 C 19.902344 18.371094 19.765625 18.363281 19.660156 18.308594 C 19.058594 18.003906 18.558594 17.589844 18.199219 17.101562 C 18.101562 16.964844 18.160156 16.792969 18.332031 16.714844 C 18.507812 16.636719 18.726562 16.683594 18.828125 16.820312 C 19.125 17.226562 19.546875 17.574219 20.050781 17.828125 C 20.164062 17.886719 20.230469 17.988281 20.21875 18.097656 Z M 20.21875 18.097656 "/>
<path style=" stroke:none;fill-rule:nonzero;fill:rgb(99.215686%,1.568627%,21.568627%);fill-opacity:1;" d="M 21.039062 17.242188 C 21.046875 17.34375 20.976562 17.441406 20.863281 17.488281 C 20.746094 17.539062 20.609375 17.53125 20.503906 17.46875 C 20.125 17.253906 19.792969 16.992188 19.519531 16.695312 C 19.414062 16.578125 19.445312 16.414062 19.59375 16.328125 C 19.742188 16.242188 19.953125 16.269531 20.0625 16.382812 C 20.292969 16.636719 20.578125 16.859375 20.898438 17.042969 C 20.980469 17.089844 21.03125 17.164062 21.039062 17.242188 Z M 21.039062 17.242188 "/>
<path style=" stroke:none;fill-rule:nonzero;fill:rgb(84.705882%,84.313725%,86.27451%);fill-opacity:1;" d="M 20.625 10.5625 C 20.625 12.355469 18.777344 13.8125 16.5 13.8125 C 14.222656 13.8125 12.375 12.355469 12.375 10.5625 C 12.375 8.765625 14.222656 7.3125 16.5 7.3125 C 18.777344 7.3125 20.625 8.765625 20.625 10.5625 Z M 20.625 10.5625 "/>
<path style=" stroke:none;fill-rule:nonzero;fill:rgb(23.529412%,23.137255%,25.490196%);fill-opacity:1;" d="M 11.859375 8.125 L 21.140625 8.125 C 21.425781 8.125 21.65625 8.304688 21.65625 8.53125 C 21.65625 8.757812 21.425781 8.9375 21.140625 8.9375 L 11.859375 8.9375 C 11.574219 8.9375 11.34375 8.757812 11.34375 8.53125 C 11.34375 8.304688 11.574219 8.125 11.859375 8.125 Z M 11.859375 8.125 "/>
<path style=" stroke:none;fill-rule:nonzero;fill:rgb(23.529412%,23.137255%,25.490196%);fill-opacity:1;" d="M 13.492188 2.4375 L 19.507812 2.4375 C 19.839844 2.4375 20.109375 2.644531 20.109375 2.902344 L 20.109375 8.472656 C 20.109375 8.730469 19.839844 8.9375 19.507812 8.9375 L 13.492188 8.9375 C 13.160156 8.9375 12.890625 8.730469 12.890625 8.472656 L 12.890625 2.902344 C 12.890625 2.644531 13.160156 2.4375 13.492188 2.4375 Z M 13.492188 2.4375 "/>
<path style=" stroke:none;fill-rule:nonzero;fill:rgb(23.529412%,23.137255%,25.490196%);fill-opacity:1;" d="M 15.46875 10.15625 C 15.46875 10.378906 15.238281 10.5625 14.953125 10.5625 C 14.667969 10.5625 14.4375 10.378906 14.4375 10.15625 C 14.4375 9.933594 14.667969 9.75 14.953125 9.75 C 15.238281 9.75 15.46875 9.933594 15.46875 10.15625 Z M 15.46875 10.15625 "/>
<path style=" stroke:none;fill-rule:nonzero;fill:rgb(23.529412%,23.137255%,25.490196%);fill-opacity:1;" d="M 18.5625 10.15625 C 18.5625 10.378906 18.332031 10.5625 18.046875 10.5625 C 17.761719 10.5625 17.53125 10.378906 17.53125 10.15625 C 17.53125 9.933594 17.761719 9.75 18.046875 9.75 C 18.332031 9.75 18.5625 9.933594 18.5625 10.15625 Z M 18.5625 10.15625 "/>
<path style=" stroke:none;fill-rule:nonzero;fill:rgb(16.470588%,16.078431%,18.039216%);fill-opacity:1;" d="M 12.890625 7.3125 L 20.109375 7.3125 L 20.109375 8.125 L 12.890625 8.125 Z M 12.890625 7.3125 "/>
<path style=" stroke:none;fill-rule:nonzero;fill:rgb(99.215686%,65.882353%,8.627451%);fill-opacity:1;" d="M 17.1875 11.917969 C 17.1875 12.214844 16.5 13 16.5 13 C 16.5 13 15.8125 12.214844 15.8125 11.917969 C 15.8125 11.617188 16.121094 11.375 16.5 11.375 C 16.878906 11.375 17.1875 11.617188 17.1875 11.917969 Z M 17.1875 11.917969 "/>
</g>
</svg>
