<svg width="41" height="40" viewBox="0 0 41 40" fill="none" xmlns="http://www.w3.org/2000/svg">
<path d="M36.2188 33.5624L39.4688 14.9062C40.0312 11.6249 37.9375 8.46869 34.6875 7.74994L9.0625 1.93744C4.875 0.99994 0.968753 4.46869 1.46875 8.74994L4.21875 33.2187C4.5625 36.3749 7.25 38.7812 10.4375 38.7812H30.0625C33.0938 38.7499 35.6875 36.5624 36.2188 33.5624Z" fill="#011132"/>
<path d="M11 35.3438H9.9375C9.65625 35.3438 9.4375 35.125 9.4375 34.8438V25.125H14.5625L13.5625 33.125C13.375 34.375 12.2812 35.3438 11 35.3438Z" fill="#C48E48"/>
<g opacity="0.25">
<path opacity="0.25" d="M9.40625 27.6562H14.2188L14.5312 25.125H9.40625V27.6562Z" fill="#62345B"/>
</g>
<path d="M28.5938 32.7812C27.875 32.7812 27.3125 32.2188 27.3125 31.5V5.9375C27.3125 5.21875 27.875 4.65625 28.5938 4.65625C29.3125 4.65625 29.875 5.21875 29.875 5.9375V31.5C29.875 32.2188 29.3125 32.7812 28.5938 32.7812Z" fill="white"/>
<g opacity="0.15">
<g opacity="0.15">
<path opacity="0.15" d="M28.5938 4.65625C27.875 4.65625 27.3125 5.21875 27.3125 5.9375V8.5C27.3125 7.78125 27.875 7.21875 28.5938 7.21875C29.3125 7.21875 29.875 7.78125 29.875 8.5V5.9375C29.875 5.21875 29.3125 4.65625 28.5938 4.65625Z" fill="#62345B"/>
</g>
</g>
<path d="M27.3125 30.2188C25.7813 26.3438 22.0312 23.8125 17.875 23.8125H17.0938V13.5938H17.875C22.0312 13.5938 25.7813 11.0625 27.3125 7.1875" fill="#FCF8DF"/>
<g opacity="0.15">
<g opacity="0.15">
<path opacity="0.15" d="M17.875 13.5938H17.0938V16.1562H17.875C22.0312 16.1562 25.7813 13.625 27.3125 9.75V7.1875C25.7813 11.0625 22.0312 13.5938 17.875 13.5938Z" fill="#62345B"/>
</g>
</g>
<path d="M15.8125 25.125H8.15625C7.4375 25.125 6.875 24.5625 6.875 23.8438V13.5937C6.875 12.875 7.4375 12.3125 8.15625 12.3125H15.8125C16.5312 12.3125 17.0937 12.875 17.0937 13.5937V23.8125C17.0937 24.5312 16.5312 25.125 15.8125 25.125Z" fill="#C48E48"/>
<g opacity="0.15">
<g opacity="0.15">
<path opacity="0.15" d="M15.8125 12.3438H8.15625C7.4375 12.3438 6.875 12.9062 6.875 13.625V16.1875C6.875 15.4688 7.4375 14.9063 8.15625 14.9063H15.8125C16.5312 14.9063 17.0937 15.4688 17.0937 16.1875V13.625C17.0937 12.9062 16.5312 12.3438 15.8125 12.3438Z" fill="#62345B"/>
</g>
</g>
<path d="M6.875 23.8438H4.3125C2.90625 23.8438 1.75 22.6875 1.75 21.2812V16.1562C1.75 14.75 2.90625 13.5938 4.3125 13.5938H6.875" fill="#FCF8DF"/>
<g opacity="0.15">
<g opacity="0.15">
<path opacity="0.15" d="M4.3125 13.5938C2.90625 13.5938 1.75 14.75 1.75 16.1562V18.7188C1.75 17.3125 2.90625 16.1562 4.3125 16.1562H6.875V13.5938H4.3125Z" fill="#62345B"/>
</g>
</g>
<path d="M15.8125 25.5938H8.15625C7.1875 25.5938 6.40625 24.8125 6.40625 23.8438V13.5937C6.40625 12.625 7.1875 11.8438 8.15625 11.8438H15.8125C16.7812 11.8438 17.5625 12.625 17.5625 13.5937V23.8125C17.5625 24.8125 16.7812 25.5938 15.8125 25.5938ZM8.15625 12.8125C7.71875 12.8125 7.34375 13.1875 7.34375 13.625V23.8438C7.34375 24.2812 7.71875 24.6562 8.15625 24.6562H15.8125C16.25 24.6562 16.625 24.2812 16.625 23.8438V13.5937C16.625 13.1562 16.25 12.7812 15.8125 12.7812H8.15625V12.8125Z" fill="#005684"/>
<path d="M6.875 24.3125H4.3125C2.65625 24.3125 1.28125 22.9687 1.28125 21.2812V16.1562C1.28125 14.5 2.625 13.125 4.3125 13.125H6.875C7.125 13.125 7.34375 13.3437 7.34375 13.5937C7.34375 13.8437 7.125 14.0625 6.875 14.0625H4.3125C3.15625 14.0625 2.21875 15 2.21875 16.1562V21.2812C2.21875 22.4375 3.15625 23.375 4.3125 23.375H6.875C7.125 23.375 7.34375 23.5938 7.34375 23.8438C7.34375 24.0938 7.125 24.3125 6.875 24.3125Z" fill="#005684"/>
<path d="M4.3125 17.9062H1.75C1.5 17.9062 1.28125 17.6875 1.28125 17.4375C1.28125 17.1875 1.5 16.9688 1.75 16.9688H4.3125C4.5625 16.9688 4.78125 17.1875 4.78125 17.4375C4.78125 17.6875 4.5625 17.9062 4.3125 17.9062Z" fill="#005684"/>
<path d="M4.3125 19.1875H1.75C1.5 19.1875 1.28125 18.9688 1.28125 18.7188C1.28125 18.4688 1.5 18.25 1.75 18.25H4.3125C4.5625 18.25 4.78125 18.4688 4.78125 18.7188C4.78125 18.9688 4.5625 19.1875 4.3125 19.1875Z" fill="#005684"/>
<path d="M4.3125 16.625H1.75C1.5 16.625 1.28125 16.4062 1.28125 16.1562C1.28125 15.9062 1.5 15.6875 1.75 15.6875H4.3125C4.5625 15.6875 4.78125 15.9062 4.78125 16.1562C4.78125 16.4062 4.5625 16.625 4.3125 16.625Z" fill="#005684"/>
<path d="M17.875 14.0625H17.0938C16.8438 14.0625 16.625 13.8438 16.625 13.5938C16.625 13.3438 16.8438 13.125 17.0938 13.125H17.875C21.875 13.125 25.4063 10.7188 26.875 7.03127C26.9688 6.78127 27.25 6.68752 27.4688 6.78127C27.7188 6.87502 27.8125 7.15627 27.7188 7.37502C26.125 11.4375 22.25 14.0625 17.875 14.0625Z" fill="#005684"/>
<path d="M27.3125 30.6875C27.125 30.6875 26.9375 30.5625 26.875 30.4063C25.4063 26.6875 21.875 24.3125 17.875 24.3125H17.0938C16.8438 24.3125 16.625 24.0938 16.625 23.8438C16.625 23.5938 16.8438 23.375 17.0938 23.375H17.875C22.25 23.375 26.125 26 27.75 30.0625C27.8438 30.3125 27.7188 30.5625 27.5 30.6563C27.4375 30.6875 27.375 30.6875 27.3125 30.6875Z" fill="#005684"/>
<path d="M28.5938 33.25C27.625 33.25 26.8438 32.4688 26.8438 31.5V5.9375C26.8438 4.96875 27.625 4.1875 28.5938 4.1875C29.5625 4.1875 30.3438 4.96875 30.3438 5.9375V31.5C30.3438 32.4688 29.5625 33.25 28.5938 33.25ZM28.5938 5.125C28.1562 5.125 27.7813 5.5 27.7813 5.9375V31.5C27.7813 31.9375 28.1562 32.3125 28.5938 32.3125C29.0313 32.3125 29.4062 31.9375 29.4062 31.5V5.9375C29.4062 5.5 29.0313 5.125 28.5938 5.125Z" fill="#005684"/>
<path d="M11 35.8125H9.9375C9.40625 35.8125 8.96875 35.375 8.96875 34.8437V25.125C8.96875 24.875 9.1875 24.6562 9.4375 24.6562C9.6875 24.6562 9.90625 24.875 9.90625 25.125V34.8437C9.90625 34.875 9.9375 34.875 9.9375 34.875H11C12.0625 34.875 12.9375 34.0937 13.0625 33.0312L14.0625 25.0312C14.0938 24.7812 14.3438 24.5937 14.5938 24.625C14.8438 24.6562 15.0313 24.9062 15 25.1562L14 33.1562C13.8125 34.6562 12.5312 35.8125 11 35.8125Z" fill="#005684"/>
<line x1="34.5633" y1="5.74217" x2="5.74217" y2="35.4367" stroke="#93B1B3" stroke-width="6" stroke-linecap="round"/>
</svg>
