<?xml version="1.0" ?><svg data-name="Layer 1" id="Layer_1" viewBox="0 0 272 272" xmlns="http://www.w3.org/2000/svg"><defs><style>.cls-1{fill:#424242;}.cls-2{fill:#ffeb3c;}.cls-3{fill:#e2e3e5;}</style></defs><title/><path class="cls-1" d="M184,142.8c0,19.71-9.6,43.63-20.21,64A382.67,382.67,0,0,1,136,252a382.67,382.67,0,0,1-27.79-45.15C97.6,186.43,88,162.51,88,142.8c0-1,0-2,0-3a102.39,102.39,0,0,1,1.46-15.51,73.66,73.66,0,0,1,1.65-7.18,49.46,49.46,0,0,1,9-18C108.92,88.27,121.73,84,136,84s27.08,4.27,35.87,15.08a49.46,49.46,0,0,1,9,18,73.66,73.66,0,0,1,1.65,7.18A102.39,102.39,0,0,1,184,139.78C184,140.77,184,141.78,184,142.8Z"/><path class="cls-2" d="M171.87,99.18a76.58,76.58,0,0,1-71.74,0,49.46,49.46,0,0,0-9,18c1.26,1,2.58,2,3.94,2.91a73.22,73.22,0,0,0,40.91,12,73.22,73.22,0,0,0,40.91-12c1.36-.93,2.68-1.89,3.94-2.91A49.46,49.46,0,0,0,171.87,99.18Z"/><path class="cls-2" d="M184,139.88c-11.73,10-28.87,16.22-48,16.22s-36.23-6.27-48-16.22c0,1,0,2,0,3,0,19.71,9.6,43.63,20.21,64a77.55,77.55,0,0,0,55.58,0c10.61-20.42,20.21-44.34,20.21-64C184,141.88,184,140.87,184,139.88Z"/><circle class="cls-1" cx="136" cy="60" r="32"/><path class="cls-1" d="M120.31,36l7.91-2L125,22.85a4.13,4.13,0,0,0-5-2.72h0a3.83,3.83,0,0,0-2.89,4.71Z"/><path class="cls-1" d="M151.67,36l-7.91-2,3.18-11.15a4.13,4.13,0,0,1,5-2.72h0a3.83,3.83,0,0,1,2.89,4.71Z"/><path class="cls-3" d="M192.22,183.58c28.07,28.07,47,24.2,61,10.16s17.9-32.92-10.16-61S151.56,92.1,151.56,92.1,164.15,155.51,192.22,183.58Z"/><path class="cls-3" d="M79.78,183.58c-28.07,28.07-47,24.2-61,10.16S.89,160.83,29,132.76,120.44,92.1,120.44,92.1,107.85,155.51,79.78,183.58Z"/></svg>