<?xml version="1.0" standalone="no"?>
<!DOCTYPE svg PUBLIC "-//W3C//DTD SVG 20010904//EN"
 "http://www.w3.org/TR/2001/REC-SVG-20010904/DTD/svg10.dtd">
<svg version="1.0" xmlns="http://www.w3.org/2000/svg"
 width="20px" height="20px" viewBox="0 0 1280.000000 1188.000000"
 preserveAspectRatio="xMidYMid meet">
<metadata>
Created by potrace 1.15, written by Peter Selinger 2001-2017
</metadata>
<g transform="translate(0.000000,1188.000000) scale(0.100000,-0.100000)"
fill="#48a219" stroke="none">
<path d="M166 11759 c-3 -68 -8 -342 -11 -609 -3 -267 -10 -782 -15 -1145 -5
-363 -14 -984 -20 -1380 -6 -396 -15 -1030 -20 -1410 -5 -379 -14 -1012 -20
-1405 -27 -1938 -28 -1972 -66 -4569 -8 -579 -13 -1055 -11 -1057 3 -4 559
-13 2067 -34 785 -11 1707 -24 2825 -40 391 -6 1023 -15 1405 -20 382 -5 1013
-14 1403 -20 389 -5 1024 -15 1412 -20 388 -6 1023 -15 1413 -20 389 -6 1019
-15 1401 -21 381 -5 696 -8 699 -5 5 6 11 346 32 1826 5 421 15 1069 20 1440
13 926 36 2515 60 4210 6 393 15 1028 20 1410 6 382 17 1169 26 1749 8 579 13
1055 11 1057 -3 4 -559 13 -2067 34 -1044 15 -2023 29 -2820 40 -382 6 -1172
17 -1755 25 -583 8 -1379 19 -1770 25 -981 14 -1992 28 -2815 40 -382 5 -853
12 -1046 16 l-352 6 -6 -123z"/>
</g>
</svg>
