<svg width="20" height="20" viewBox="0 0 50 50" fill="none" xmlns="http://www.w3.org/2000/svg">
<path d="M50.0001 34.1622C50.0001 43.954 39.0599 50 25.5645 50C12.0691 50 1.12891 43.954 1.12891 34.1622C1.12891 24.3703 12.0691 5.56757 25.5645 5.56757C39.0599 5.56757 50.0001 24.3703 50.0001 34.1622Z" fill="#EED6B2"/>
<path d="M11.714 7.4631C12.3383 11.1549 13.9198 15.5764 10.9972 16.5211C8.07466 17.4658 1.7547 14.5759 1.1304 10.8841C0.506095 7.19232 2.36921 3.4337 5.29178 2.48901C8.21435 1.54432 11.0897 3.77129 11.714 7.4631Z" fill="black"/>
<path d="M45.2263 16.4196C42.6214 17.6043 39.5749 20.1715 38.637 16.2297C37.6992 12.2878 39.2252 3.32967 41.8302 2.14501C44.4351 0.960356 47.3071 3.19548 48.2449 7.13731C49.1828 11.0791 47.8313 15.235 45.2263 16.4196Z" fill="black"/>
<ellipse rx="3.51293" ry="5.77459" transform="matrix(-0.765605 0.64331 0.402422 0.915454 34.2134 25.8165)" fill="black"/>
<ellipse rx="0.586452" ry="0.810811" transform="matrix(-1 0 0 1 33.6181 23.5135)" fill="white"/>
<ellipse rx="3.51293" ry="5.77459" transform="matrix(0.765606 0.64331 -0.402423 0.915454 17.0107 25.8165)" fill="black"/>
<ellipse cx="17.5884" cy="23.5135" rx="0.586454" ry="0.810811" fill="white"/>
<ellipse rx="0.763454" ry="2.5159" transform="matrix(0.701648 -0.712524 0.469166 0.88311 24.4265 31.5226)" fill="black"/>
<ellipse cx="25.7208" cy="35.1893" rx="0.664647" ry="2.75676" fill="black"/>
<ellipse rx="0.765849" ry="2.50935" transform="matrix(0.694542 0.719453 -0.476454 0.8792 26.7836 31.514)" fill="black"/>
<path fill-rule="evenodd" clip-rule="evenodd" d="M30.9878 34.696C30.0678 37.5658 28.1077 39.5474 25.8382 39.5474C23.4581 39.5474 21.4183 37.368 20.5615 34.2703C20.5348 34.5647 20.521 34.8647 20.521 35.169C20.521 39.1395 22.8666 42.3582 25.76 42.3582C28.6534 42.3582 30.999 39.1395 30.999 35.169C30.999 35.0101 30.9952 34.8523 30.9878 34.696Z" fill="black"/>
</svg>
