<svg width="60" height="48" viewBox="0 0 60 48" fill="none" xmlns="http://www.w3.org/2000/svg">
<path d="M47 14.1895C47 14.1895 47.461 8.20953 45 6.63691C42 4.72024 40.192 4.2957 38 3.87499C33 2.91666 32 1.96216 30 1.96216C26.022 1.96216 19.084 12.5038 19.084 17.2696L38.666 17.1776C38.667 14.5125 37 10.5833 37 10.5833C43 10.5833 45.048 14.4071 45.048 14.4071L47 14.1895Z" fill="#EB0B1A"/>
<path d="M45.212 26.9775C44.269 26.4169 43.35 26.1543 42.613 26.0288C42.61 26.0278 42.606 26.0278 42.603 26.0269C42.463 26.0029 42.332 25.9828 42.207 25.9694C42.128 25.9598 42.049 25.9502 41.968 25.9435C41.454 25.9013 41.117 25.9282 41.083 25.9358C41.08 25.9368 41.078 25.9406 41.076 25.9416C40.701 25.9694 40.338 26.0374 39.988 26.1332C39.99 26.0614 40 25.9924 40 25.9205C40 20.6276 35.075 16.3372 29 16.3372C22.925 16.3372 18 20.6276 18 25.9205C18 25.9924 18.01 26.0614 18.012 26.1323C17.662 26.0365 17.299 25.9684 16.923 25.9406C16.92 25.9397 16.918 25.9358 16.916 25.9349C16.883 25.9272 16.545 25.9004 16.031 25.9425C15.951 25.9492 15.873 25.9579 15.794 25.9675C15.668 25.9818 15.537 26.002 15.395 26.0259C15.393 26.0259 15.39 26.0269 15.388 26.0269C14.651 26.1524 13.731 26.415 12.787 26.9766C10.957 28.0643 9.68598 30.0931 9.01098 33.0064C8.97698 33.154 9.01798 33.3092 9.12098 33.4242C9.22498 33.5392 9.38098 33.5987 9.53698 33.5881C9.56298 33.5862 9.97098 33.5546 10.533 33.4032C10.221 34.2743 9.88798 35.5824 10.018 36.9806C10.036 37.1646 10.162 37.3237 10.343 37.3879C10.527 37.4512 10.73 37.409 10.866 37.2796L11.905 36.2992C11.897 37.0774 11.96 38.0913 12.248 38.9989C12.306 39.18 12.469 39.3113 12.665 39.3352C12.858 39.3573 13.053 39.2691 13.154 39.1072L13.714 38.2188C13.901 38.9596 14.339 39.7742 15.322 40.2457C15.392 40.2792 15.469 40.2965 15.546 40.2965C15.627 40.2965 15.709 40.2773 15.782 40.239C15.926 40.1652 16.022 40.0291 16.042 39.8748L16.126 39.2145C21.159 43.3555 29 45.0872 29 45.0872C29 45.0872 36.841 43.3555 41.872 39.2155L41.956 39.8757C41.976 40.031 42.072 40.1661 42.216 40.2399C42.289 40.2782 42.371 40.2974 42.452 40.2974C42.528 40.2974 42.605 40.2802 42.676 40.2466C43.659 39.7751 44.098 38.9615 44.284 38.2197L44.844 39.1081C44.946 39.2701 45.14 39.3582 45.333 39.3362C45.529 39.3132 45.692 39.181 45.75 38.9998C46.038 38.0923 46.101 37.0784 46.093 36.3002L47.132 37.2806C47.269 37.41 47.472 37.4521 47.655 37.3889C47.837 37.3247 47.963 37.1665 47.98 36.9816C48.11 35.5834 47.778 34.2752 47.465 33.4041C48.027 33.5555 48.435 33.5872 48.461 33.5891C48.617 33.5996 48.773 33.5402 48.877 33.4252C48.981 33.3102 49.022 33.1549 48.987 33.0074C48.312 30.094 47.042 28.0662 45.212 26.9775Z" fill="url(#paint0_linear_1591_1112)"/>
<path d="M50.471 16.6161C50.915 16.3248 51.117 15.7881 50.931 15.2821C50.931 15.2898 50.931 15.2898 50.931 15.2898C50.753 14.7847 50.237 14.4857 49.705 14.5164C49.851 14.0343 49.632 13.4967 49.157 13.2284C48.674 12.9533 48.076 13.0367 47.699 13.3903C47.473 12.9284 46.949 12.6448 46.401 12.7368C45.853 12.8221 45.451 13.2514 45.394 13.7574C44.918 13.5437 44.321 13.6577 43.968 14.0564C43.605 14.4618 43.588 15.0368 43.894 15.4594C43.379 15.5888 43 16.0344 43 16.5624C43 17.0684 43.338 17.4891 43.806 17.6501C43.54 18.0498 43.556 18.5855 43.887 18.9765C44.234 19.3905 44.822 19.5208 45.305 19.3215C45.337 19.8256 45.724 20.2635 46.28 20.3708C46.361 20.3862 46.434 20.3862 46.514 20.3862C46.974 20.3862 47.394 20.1408 47.596 19.7575C47.966 20.1178 48.562 20.2185 49.046 19.9655C49.536 19.7048 49.763 19.1758 49.642 18.6851C50.174 18.7378 50.69 18.4465 50.892 17.9491C51.092 17.4585 50.907 16.9151 50.471 16.6161Z" fill="url(#paint1_linear_1591_1112)"/>
<path d="M41 17.7746C41 17.1498 40.581 16.6227 40 16.4253V16.2451C40.581 16.0467 41 15.5206 41 14.8958C41 14.1023 40.328 13.4583 39.5 13.4583C38.672 13.4583 38 14.1023 38 14.8958C38 14.1023 37.328 13.4583 36.5 13.4583C35.672 13.4583 35 14.1023 35 14.8958C35 14.1023 34.328 13.4583 33.5 13.4583C32.672 13.4583 32 14.1023 32 14.8958C32 14.1023 31.328 13.4583 30.5 13.4583C29.672 13.4583 29 14.1023 29 14.8958H28.994C28.961 14.13 28.307 13.5177 27.5 13.5177C26.693 13.5177 26.039 14.13 26.006 14.8958H25.994C25.961 14.13 25.307 13.5177 24.5 13.5177C23.693 13.5177 23.039 14.13 23.006 14.8958H22.994C22.961 14.13 22.307 13.5177 21.5 13.5177C20.693 13.5177 20.039 14.13 20.006 14.8958H19.994C19.961 14.13 19.307 13.5177 18.5 13.5177C17.672 13.5177 17 14.1617 17 14.9552C17 15.7487 17.672 16.3927 18.5 16.3927C17.672 16.3927 17 17.0367 17 17.8302C17 18.6237 17.672 19.2677 18.5 19.2677C17.672 19.2677 17 19.9117 17 20.7052C17 21.4987 17.672 22.1427 18.5 22.1427C19.328 22.1427 20 21.4987 20 20.7052C20 20.685 19.995 20.6659 19.994 20.6458H20.006C20.006 20.6659 20 20.685 20 20.7052C20 21.4987 20.672 22.1427 21.5 22.1427C22.328 22.1427 23 21.4987 23 20.7052C23 20.685 22.995 20.6659 22.994 20.6458H23.006C23.006 20.6659 23 20.685 23 20.7052C23 21.4987 23.672 22.1427 24.5 22.1427C25.328 22.1427 26 21.4987 26 20.7052C26 20.685 25.995 20.6659 25.994 20.6458H26.006C26.006 20.6659 26 20.685 26 20.7052C26 21.4987 26.672 22.1427 27.5 22.1427C28.328 22.1427 29 21.4987 29 20.7052C29 20.685 28.995 20.6659 28.994 20.6458H29.007C29.006 20.6668 29 20.687 29 20.709C29 21.5025 29.672 22.1465 30.5 22.1465C31.328 22.1465 32 21.5025 32 20.709C32 20.687 31.994 20.6668 31.993 20.6458H32.006C32.006 20.6668 32 20.687 32 20.709C32 21.5025 32.672 22.1465 33.5 22.1465C34.328 22.1465 35 21.5025 35 20.709C35 20.687 34.994 20.6668 34.993 20.6458H35.006C35.006 20.6668 35 20.687 35 20.709C35 21.5025 35.672 22.1465 36.5 22.1465C37.328 22.1465 38 21.5025 38 20.709C38 20.687 37.994 20.6668 37.993 20.6458H38.006C38.006 20.6668 38 20.687 38 20.709C38 21.5025 38.672 22.1465 39.5 22.1465C40.328 22.1465 41 21.5025 41 20.709C41 20.0842 40.581 19.5571 40 19.3597V19.1249C40.581 18.9265 41 18.3994 41 17.7746Z" fill="url(#paint2_linear_1591_1112)"/>
<path d="M35.285 30.6853C35.739 29.4874 36.722 28.5454 37.972 28.1103C37.981 28.0192 38 27.9311 38 27.8372C38 26.2492 36.657 24.9622 35 24.9622C33.343 24.9622 32 26.2492 32 27.8372C32 29.4251 33.343 30.7122 35 30.7122C35.098 30.7122 35.19 30.6939 35.285 30.6853Z" fill="url(#paint3_linear_1591_1112)"/>
<path d="M29 33.5872C30.6569 33.5872 32 32.9436 32 32.1497C32 31.3558 30.6569 30.7122 29 30.7122C27.3431 30.7122 26 31.3558 26 32.1497C26 32.9436 27.3431 33.5872 29 33.5872Z" fill="#0B420D"/>
<path d="M23 24.9622C21.343 24.9622 20 26.2492 20 27.8372C20 27.9301 20.02 28.0183 20.029 28.1093C21.279 28.5444 22.262 29.4865 22.716 30.6844C22.811 30.693 22.903 30.7122 23 30.7122C24.657 30.7122 26 29.4251 26 27.8372C26 26.2492 24.657 24.9622 23 24.9622Z" fill="url(#paint4_linear_1591_1112)"/>
<path d="M34 28.7956C34.5523 28.7956 35 28.3665 35 27.8372C35 27.308 34.5523 26.8789 34 26.8789C33.4477 26.8789 33 27.308 33 27.8372C33 28.3665 33.4477 28.7956 34 28.7956Z" fill="#0B420D"/>
<path d="M24 28.7956C24.5523 28.7956 25 28.3665 25 27.8372C25 27.308 24.5523 26.8789 24 26.8789C23.4477 26.8789 23 27.308 23 27.8372C23 28.3665 23.4477 28.7956 24 28.7956Z" fill="#0B420D"/>
<path d="M42 29.7539C40.895 29.7539 40 30.6116 40 31.6706H44C44 30.6126 43.105 29.7539 42 29.7539Z" fill="#0B420D"/>
<path d="M16 29.7539C14.895 29.7539 14 30.6116 14 31.6706H18C18 30.6126 17.105 29.7539 16 29.7539Z" fill="#0B420D"/>
<path d="M29 42.3252L22.553 39.2355C13.935 35.1061 14.982 30.6661 15.031 30.4792L16.97 30.944C16.97 30.9527 16.408 34.1478 23.448 37.5211L29 40.1824L34.553 37.522C41.592 34.1487 41.031 30.9536 41.025 30.922L42.97 30.4802C43.019 30.6671 44.066 35.107 35.448 39.2365L29 42.3252Z" fill="#0B420D"/>
<path d="M38 24.9621C33.442 24.9621 33 29.7538 31 29.7538C29.386 29.7538 29 27.8371 29 27.8371C29 27.8371 30 28.7955 31 27.8371C31.75 27.1184 33.067 24.4772 34.667 24.138C37.012 23.6415 38 24.9621 38 24.9621Z" fill="#0B420D"/>
<path d="M20 24.9621C24.558 24.9621 25 29.7538 27 29.7538C28.603 29.7538 29 27.8371 29 27.8371C29 27.8371 28 28.7955 27 27.8371C26.25 27.1184 24.933 24.4619 23.333 24.1226C20.988 23.6252 20 24.9621 20 24.9621Z" fill="#0B420D"/>
<defs>
<linearGradient id="paint0_linear_1591_1112" x1="26.92" y1="15.5331" x2="31.0985" y2="53.9849" gradientUnits="userSpaceOnUse">
<stop stop-color="#86BD41"/>
<stop offset="0.278" stop-color="#72A93A"/>
<stop offset="0.848" stop-color="#407527"/>
<stop offset="0.935" stop-color="#386C24"/>
</linearGradient>
<linearGradient id="paint1_linear_1591_1112" x1="46.47" y1="12.9265" x2="47.5872" y2="20.2419" gradientUnits="userSpaceOnUse">
<stop stop-color="#DAE0E8"/>
<stop offset="0.326" stop-color="#D0D7E1"/>
<stop offset="0.873" stop-color="#B6C0CC"/>
<stop offset="1" stop-color="#AFBAC7"/>
</linearGradient>
<linearGradient id="paint2_linear_1591_1112" x1="28.792" y1="13.877" x2="29.164" y2="21.5022" gradientUnits="userSpaceOnUse">
<stop stop-color="#DAE0E8"/>
<stop offset="0.326" stop-color="#D0D7E1"/>
<stop offset="0.873" stop-color="#B6C0CC"/>
<stop offset="1" stop-color="#AFBAC7"/>
</linearGradient>
<linearGradient id="paint3_linear_1591_1112" x1="34.526" y1="24.9976" x2="35.4564" y2="31.0676" gradientUnits="userSpaceOnUse">
<stop stop-color="#DAE0E8"/>
<stop offset="0.326" stop-color="#D0D7E1"/>
<stop offset="0.873" stop-color="#B6C0CC"/>
<stop offset="1" stop-color="#AFBAC7"/>
</linearGradient>
<linearGradient id="paint4_linear_1591_1112" x1="22.646" y1="24.8836" x2="23.3438" y2="31.0928" gradientUnits="userSpaceOnUse">
<stop stop-color="#DAE0E8"/>
<stop offset="0.326" stop-color="#D0D7E1"/>
<stop offset="0.873" stop-color="#B6C0CC"/>
<stop offset="1" stop-color="#AFBAC7"/>
</linearGradient>
</defs>
</svg>
