<svg width="61" height="48" viewBox="0 0 61 48" fill="none" xmlns="http://www.w3.org/2000/svg">
<path fill-rule="evenodd" clip-rule="evenodd" d="M19.6779 37.3455C18.0604 37.3455 16.4124 37.2451 14.8093 37.6213C13.2186 37.9945 11.9182 39.4528 10.3492 39.7228C9.12497 39.9337 4.71499 39.158 4.0761 41.2236C3.47761 43.1586 6.57894 42.327 7.44886 42.327C8.70942 42.327 9.84201 42.7063 10.948 42.7733C13.126 42.9056 15.529 42.1812 17.6633 42.8949C19.2349 43.4203 18.3497 43.9687 19.3197 44.972C19.9107 45.5835 20.9918 45.2541 21.8715 45.3371C23.5698 45.4973 24.9819 47.3061 26.8017 47.6493C29.8147 48.218 32.8593 47.7059 35.8635 47.2606C38.2998 46.8991 40.4806 47.0036 42.9128 46.4163C44.0571 46.1401 44.1906 45.5063 45.0842 44.972C46.1662 44.3251 47.4657 44.5673 48.7553 44.469C51.6253 44.2502 54.1765 42.4374 56.9479 41.4669C59.9069 40.4306 58.3406 40.2041 56.2597 39.9579C53.345 39.613 50.4853 39.24 47.5522 39.2682C41.3864 39.328 35.0123 38.7967 28.8837 39.8767C26.459 40.3042 24.1097 38.9898 21.9726 38.4324C21.3806 38.278 20.831 38.5713 20.4392 38.2052C20.0901 38.2131 19.6364 37.9377 19.6779 37.3455Z" fill="#EEEEEE"/>
<path fill-rule="evenodd" clip-rule="evenodd" d="M1.25531 10.5748C1.39087 17.0328 1.93126 23.2641 3.69147 29.3574C4.25605 31.3115 3.34524 35.2271 4.45764 36.7419C5.37031 37.9846 9.0721 38.0774 11.0293 38.3508C15.6886 39.0021 21.0437 38.8191 25.4986 39.8751C30.2651 41.0053 33.1489 43.3801 38.6346 42.459C43.0312 41.7209 47.4527 40.5617 51.6472 39.2062C53.447 38.6244 57.8547 38.3292 59.0145 37.0468C60.2813 35.646 59.9816 31.7844 59.9388 29.9321C59.813 24.5214 59.7021 19.1186 59.7021 13.707C59.7021 11.2408 59.7021 8.77472 59.7021 6.30847C59.7021 4.32834 59.1517 4.93112 57.2464 4.32493C53.403 3.10214 49.2657 2.53103 45.2274 1.99781C37.825 1.02037 31.2087 0.0962578 24.0979 1.98338C17.7906 3.65721 10.594 5.58943 5.0078 8.45759C4.17117 8.88718 2.2368 9.63208 1.72687 10.1851C1.54945 9.85238 1.41529 10.1817 1.25531 10.5748Z" fill="#9ED9FF"/>
<path d="M1.25531 10.5748C1.39087 17.0328 1.93126 23.2641 3.69147 29.3574C4.25605 31.3115 3.34524 35.2271 4.45764 36.7419C5.37031 37.9846 9.0721 38.0774 11.0293 38.3508C15.6886 39.0021 21.0437 38.8191 25.4986 39.8751C30.2651 41.0053 33.1489 43.3801 38.6346 42.459C43.0312 41.7209 47.4527 40.5617 51.6472 39.2062C53.447 38.6244 57.8547 38.3292 59.0145 37.0468C60.2813 35.646 59.9816 31.7844 59.9388 29.9321C59.813 24.5214 59.7021 19.1186 59.7021 13.707C59.7021 11.2408 59.7021 8.77472 59.7021 6.30847C59.7021 4.32834 59.1517 4.93112 57.2464 4.32493C53.403 3.10214 49.2657 2.53103 45.2274 1.99781C37.825 1.02037 31.2087 0.0962578 24.0979 1.98338C17.7906 3.65721 10.594 5.58943 5.0078 8.45759C4.17117 8.88718 2.2368 9.63208 1.72687 10.1851C1.56317 9.85078 1.42994 10.1575 1.25531 10.5917" stroke="#409FFF" stroke-width="0.2" stroke-miterlimit="10" stroke-linecap="square"/>
<path fill-rule="evenodd" clip-rule="evenodd" d="M44.4766 14.8766C48.2275 14.3636 52.2478 14.1016 55.5964 12.514C58.7537 11.0169 56.6695 14.8593 56.3821 16.113C55.719 19.0054 56.5221 21.618 57.0106 24.4711C57.4899 27.2671 56.1526 29.8567 56.7553 32.6519C57.4885 36.051 56.8097 36.3028 52.9635 37.1908C50.1377 37.8431 46.8942 40.824 44.1034 39.3502C41.4959 37.9732 42.5713 35.8903 43.1603 33.922C44.1627 30.5729 42.7106 28.7066 42.0405 25.5977C41.3085 22.2031 42.2325 17.7259 44.4766 14.8766Z" fill="#DEFFFF"/>
<path fill-rule="evenodd" clip-rule="evenodd" d="M26.3629 10.0667C23.0708 10.8363 19.1084 9.83763 15.6756 10.2023C13.1906 10.4661 11.1897 10.7535 8.58335 10.541C6.3425 10.3582 2.65395 9.5227 1 10.9983C3.50871 11.2954 5.30404 12.0316 7.98413 12.2095C11.4546 12.4394 14.6378 12.0056 18.0332 11.9298C20.0726 11.8843 26.145 11.6843 28.092 12.641C29.6029 13.3837 29.749 17.7335 30.4103 19.6697C31.7789 23.6777 30.7486 28.5537 30.8225 32.9652C31.4245 31.9687 31.8691 30.8852 32.473 29.9166C34.0953 32.2299 34.5745 35.3624 36.3434 37.4534C36.3062 37.442 36.2936 37.4274 36.4613 37.8598C36.5033 37.7569 36.3436 37.4669 36.3631 37.5043C39.9694 41.1278 38.5738 35.6074 37.7088 33.7105C36.634 31.3533 34.8387 30.3335 35.7541 28.0874C37.6213 28.0874 38.9595 28.174 40.5081 27.5792C41.5361 27.1845 42.3595 26.2155 43.7302 26.0549C42.2821 24.7133 34.026 24.8987 32.0017 25.2419C32.4188 25.4794 32.9994 25.8563 33.3966 26.0549C33.3152 25.8962 32.9745 25.8182 32.8857 25.6486C32.948 25.6278 33.384 25.7258 33.3966 25.6486C32.6348 24.8985 30.8237 22.6339 31.7656 21.787C32.3588 21.2538 37.0349 21.869 37.9541 21.8547C39.9617 21.8237 42.0733 21.8002 43.9658 21.1603C42.7457 20.6568 40.5593 20.4194 39.2213 19.5092C36.9303 17.9504 38.1745 18.4026 37.4041 16.2826C37.2593 15.8837 35.8216 15.6148 35.793 14.9445C35.7135 13.0853 37.1881 13.6465 38.9953 13.4541C42.2386 13.1089 45.3886 12.2536 48.6407 11.9623C51.5749 11.6995 55.0779 10.5891 57.7866 9.25369C60.9348 7.70154 54.5013 4.81673 53.5923 4.27429C56.4547 5.79537 51.9247 7.77611 50.4683 8.36445C47.2883 9.64959 44.5638 9.9559 41.4313 10.6086C38.4549 11.2286 34.8459 11.8127 32.1386 10.9474C31.328 10.6882 25.4331 9.04481 26.3629 10.0667Z" fill="white"/>
<path d="M26.3629 10.0667C23.0708 10.8363 19.1084 9.83763 15.6756 10.2023C13.1906 10.4661 11.1897 10.7535 8.58335 10.541C6.3425 10.3582 2.65395 9.5227 1 10.9983C3.50871 11.2954 5.30404 12.0316 7.98413 12.2095C11.4546 12.4394 14.6378 12.0056 18.0332 11.9298C20.0726 11.8843 26.145 11.6843 28.092 12.641C29.6029 13.3837 29.749 17.7335 30.4103 19.6697C31.7789 23.6777 30.7486 28.5537 30.8225 32.9652C31.4245 31.9687 31.8691 30.8852 32.473 29.9166C34.0953 32.2299 34.5745 35.3624 36.3434 37.4534C36.3062 37.442 36.2936 37.4274 36.4613 37.8598C36.5033 37.7569 36.3436 37.4669 36.3631 37.5043C39.9694 41.1278 38.5738 35.6074 37.7088 33.7105C36.634 31.3533 34.8387 30.3335 35.7541 28.0874C37.6213 28.0874 38.9595 28.174 40.5081 27.5792C41.5361 27.1845 42.3595 26.2155 43.7302 26.0549C42.2821 24.7133 34.026 24.8987 32.0017 25.2419C32.4188 25.4794 32.9994 25.8563 33.3966 26.0549C33.3152 25.8962 32.9745 25.8182 32.8857 25.6486C32.948 25.6278 33.384 25.7258 33.3966 25.6486C32.6348 24.8985 30.8237 22.6339 31.7656 21.787C32.3588 21.2538 37.0349 21.869 37.9541 21.8547C39.9617 21.8237 42.0733 21.8002 43.9658 21.1603C42.7457 20.6568 40.5593 20.4194 39.2213 19.5092C36.9303 17.9504 38.1745 18.4026 37.4041 16.2826C37.2593 15.8837 35.8216 15.6148 35.793 14.9445C35.7135 13.0853 37.1881 13.6465 38.9953 13.4541C42.2386 13.1089 45.3886 12.2536 48.6407 11.9623C51.5749 11.6995 55.0779 10.5891 57.7866 9.25369C60.9348 7.70154 54.5013 4.81673 53.5923 4.27429C56.4547 5.79537 51.9247 7.77611 50.4683 8.36445C47.2883 9.64959 44.5638 9.9559 41.4313 10.6086C38.4549 11.2286 34.8459 11.8127 32.1386 10.9474C31.3531 10.6964 25.4475 8.97465 26.3627 10.0836" stroke="white" stroke-width="0.2" stroke-miterlimit="10" stroke-linecap="square"/>
<path fill-rule="evenodd" clip-rule="evenodd" d="M13.927 8.7454C13.8607 7.66814 14.3095 6.80817 15.2238 6.17111C16.9801 4.94751 16.5348 6.08211 17.2275 7.52601C17.1686 7.4753 17.1096 7.42438 17.0507 7.37346C17.4365 8.63676 14.9587 9.17499 13.927 8.7454Z" fill="white"/>
<path fill-rule="evenodd" clip-rule="evenodd" d="M5.38097 14.1993C9.43342 15.4396 13.4849 15.3113 17.6795 14.826C20.919 14.4511 23.6879 14.4221 25.4983 17.1972C27.1486 19.726 27.2997 21.8342 27.129 24.6831C26.9377 27.8776 27.6685 33.3718 26.0292 36.2342C24.0944 39.6121 19.2716 37.9683 16.1864 37.0131C14.6064 36.524 12.955 35.803 11.2553 35.6921C10.1766 35.6218 9.14044 36.0914 8.06268 35.8701C4.58457 35.1553 7.01027 28.1318 7.05073 26.2415C7.12095 22.9626 3.60215 17.9461 4.83081 15.0633C4.93778 14.8123 5.18169 14.406 5.38097 14.1993Z" fill="#DEFFFF"/>
<path fill-rule="evenodd" clip-rule="evenodd" d="M7.58138 30.9157C11.5015 29.2527 13.3761 25.7725 17.4632 24.412C17.0535 27.5277 14.1646 29.643 12.5321 31.9488C15.0429 31.487 18.6872 29.8607 20.2726 28.2736C20.1589 30.4911 18.8077 31.7458 17.915 33.5748C19.4297 33.5675 18.5642 35.6216 20.7442 35.6074C20.2186 37.6777 15.8235 36.6235 13.917 36.6235C12.2363 36.6235 10.1045 37.6681 8.77981 36.6235C9.46158 36.6181 10.0878 36.6656 10.7249 36.8268C7.11261 38.5812 5.35821 30.64 5.2438 28.6802C6.34225 29.1621 6.96844 29.8933 8.07294 30.1198C8.0441 30.4727 7.83064 30.6932 7.58138 30.9157Z" fill="white"/>
<path fill-rule="evenodd" clip-rule="evenodd" d="M31.1171 2.68213C27.8371 2.91045 24.9829 3.52987 22.1586 4.9856C21.7449 5.19889 18.7205 6.52933 19.0742 7.11968C19.4392 7.72908 22.9817 6.94609 23.6617 6.85708C28.5779 6.21421 31.9128 10.0508 36.4022 9.74469C38.4933 9.60217 40.5037 8.58845 42.7085 8.44071C45.5757 8.24867 47.3141 7.97765 49.8793 6.75545C55.1379 4.25012 48.7655 3.82033 45.7562 3.52947C40.9185 3.062 35.9843 2.76071 31.1171 2.68213Z" fill="#DEFFFF"/>
</svg>
