<svg width="60" height="48" viewBox="0 0 60 48" fill="none" xmlns="http://www.w3.org/2000/svg">
<path d="M30.0188 14.9438L27.4563 21.4438L30.0188 24.0063V14.9438Z" fill="#FAE8E8"/>
<path d="M20.9563 24.0063L27.4563 26.5688L30.0188 24.0063H20.9563Z" fill="#FAE8E8"/>
<path d="M27.4563 26.5688L30.0188 33.0688V24.0063L27.4563 26.5688Z" fill="#FAE8E8"/>
<path d="M30.0188 24.0063L32.5813 26.5688L39.0813 24.0063H30.0188Z" fill="#FAE8E8"/>
<path d="M26.1312 21.9656L27.4562 21.4437L24.7156 18.7031L26.1312 21.9656Z" fill="#FAE8E8"/>
<path d="M33.9063 21.9656L35.3219 18.7031L32.5813 21.4437L33.9063 21.9656Z" fill="#FAE8E8"/>
<path d="M27.4562 26.5688L26.1312 26.0469L24.7156 29.3094L27.9781 27.8906L27.4562 26.5688Z" fill="#C0D6CA"/>
<path d="M33.9062 26.0469L32.5812 26.5688L32.0593 27.8906L35.3218 29.3094L33.9062 26.0469Z" fill="#C0D6CA"/>
<path d="M39.375 24.1155C39.3894 24.0809 39.3969 24.0437 39.3969 24.0062C39.3969 23.9686 39.3894 23.9314 39.375 23.8968C39.3717 23.8855 39.3664 23.8749 39.3594 23.8655C39.3488 23.8429 39.3351 23.8219 39.3187 23.803C39.3112 23.7939 39.3028 23.7856 39.2937 23.778C39.2721 23.7568 39.2466 23.7399 39.2187 23.728H39.2031L34.3281 21.8062L35.625 18.828C35.625 18.828 35.625 18.828 35.625 18.8093C35.6347 18.7811 35.64 18.7516 35.6406 18.7218C35.6371 18.7096 35.6319 18.698 35.625 18.6874C35.6229 18.6619 35.6176 18.6367 35.6094 18.6124V18.5812C35.5949 18.5461 35.5737 18.5142 35.5468 18.4874C35.52 18.4606 35.4882 18.4394 35.4531 18.4249H35.4219C35.3969 18.4219 35.3718 18.4219 35.3469 18.4249H35.3125C35.2835 18.4204 35.254 18.4204 35.225 18.4249H35.2062L32.2406 19.7124L30.3125 14.828V14.8093C30.2998 14.7828 30.2829 14.7585 30.2625 14.7374C30.2549 14.7283 30.2466 14.7199 30.2375 14.7124C30.2186 14.696 30.1976 14.6824 30.175 14.6718C30.1656 14.6647 30.155 14.6594 30.1437 14.6562C30.1091 14.6417 30.0719 14.6343 30.0344 14.6343C29.9968 14.6343 29.9596 14.6417 29.925 14.6562L29.8937 14.6718C29.8711 14.6824 29.8501 14.696 29.8312 14.7124L29.8062 14.7374C29.7868 14.7593 29.77 14.7834 29.7562 14.8093V14.828L27.8125 19.703L24.8469 18.4155H24.825C24.796 18.4108 24.7665 18.4108 24.7375 18.4155H24.6875C24.6615 18.4123 24.6353 18.4123 24.6094 18.4155H24.5781C24.5433 18.4305 24.5116 18.4517 24.4844 18.478C24.4591 18.5055 24.439 18.5372 24.425 18.5718C24.4232 18.5821 24.4232 18.5927 24.425 18.603C24.4167 18.6273 24.4115 18.6525 24.4094 18.678V18.7124C24.41 18.7422 24.4153 18.7717 24.425 18.7999C24.425 18.7999 24.425 18.7999 24.425 18.8187L25.7156 21.7843L20.8406 23.7155H20.825C20.7971 23.7274 20.7716 23.7443 20.75 23.7655C20.7411 23.7723 20.7337 23.7808 20.7281 23.7905C20.7107 23.8093 20.696 23.8303 20.6844 23.853L20.6687 23.8843C20.6543 23.9189 20.6469 23.9561 20.6469 23.9937C20.6469 24.0312 20.6543 24.0684 20.6687 24.103L20.6844 24.1312C20.6952 24.1553 20.71 24.1775 20.7281 24.1968C20.7337 24.2065 20.7411 24.215 20.75 24.2218C20.7716 24.243 20.7971 24.2599 20.825 24.2718H20.8406L25.7187 26.2187L24.4281 29.1843C24.4281 29.1843 24.4281 29.1843 24.4281 29.2062C24.4181 29.2343 24.4128 29.2638 24.4125 29.2937V29.3249C24.4143 29.3515 24.4196 29.3778 24.4281 29.403C24.4269 29.4134 24.4269 29.4239 24.4281 29.4343C24.4421 29.4688 24.4622 29.5006 24.4875 29.528C24.5172 29.5565 24.5522 29.5788 24.5906 29.5937C24.6282 29.6097 24.6685 29.6182 24.7094 29.6187C24.7502 29.6182 24.7905 29.6097 24.8281 29.5937L27.8125 28.3093L29.7344 33.1843V33.1999C29.7473 33.2272 29.7641 33.2525 29.7844 33.2749C29.7912 33.2838 29.7997 33.2912 29.8094 33.2968C29.8287 33.3149 29.8508 33.3297 29.875 33.3405L29.9031 33.3562C29.9378 33.3706 29.9749 33.378 30.0125 33.378C30.05 33.378 30.0872 33.3706 30.1219 33.3562L30.1531 33.3405C30.1758 33.3289 30.1969 33.3141 30.2156 33.2968C30.2253 33.2912 30.2338 33.2838 30.2406 33.2749C30.2618 33.2532 30.2787 33.2278 30.2906 33.1999V33.1843L32.2125 28.3093L35.1781 29.5968C35.2205 29.6153 35.2662 29.6248 35.3125 29.6249C35.3533 29.6244 35.3937 29.6159 35.4312 29.5999C35.4696 29.585 35.5046 29.5627 35.5344 29.5343C35.5607 29.5071 35.5819 29.4753 35.5969 29.4405V29.4093C35.6054 29.384 35.6106 29.3578 35.6125 29.3312C35.614 29.3208 35.614 29.3103 35.6125 29.2999C35.6121 29.2701 35.6068 29.2405 35.5969 29.2124C35.5969 29.2124 35.5969 29.1968 35.5969 29.1905L34.3219 26.2187L39.1969 24.3124H39.2125C39.2404 24.3005 39.2658 24.2836 39.2875 24.2624L39.3125 24.2374C39.3296 24.218 39.3433 24.1958 39.3531 24.1718C39.3648 24.155 39.3723 24.1358 39.375 24.1155ZM33.7906 25.7562L32.6594 26.203L30.7844 24.328H37.4375L33.7906 25.7562ZM22.6 24.3124H29.2656L27.3906 26.1874L26.25 25.7562L22.6 24.3124ZM26.25 22.2562L27.3812 21.8124L29.2562 23.6874H22.6L26.25 22.2562ZM31.7687 20.2499L32.2156 21.3812L30.3406 23.2562V16.5874L31.7687 20.2499ZM29.7062 23.2655L27.8312 21.3905L28.2687 20.2499L29.7062 16.603V23.2655ZM28.2687 27.7937L27.8125 26.6437L29.6875 24.7687V31.4249L28.25 27.778L28.2687 27.7937ZM30.3312 24.7749L32.2062 26.6499L31.7594 27.7843L30.3219 31.4312L30.3312 24.7749ZM30.775 23.6874L32.65 21.8124L33.7812 22.2593L37.4375 23.6874H30.775ZM33.1406 21.3218L34.3906 20.0718L33.75 21.5624L33.1406 21.3218ZM33.9406 19.6374L32.6906 20.8874L32.4531 20.2874L33.9406 19.6374ZM27.3406 20.8749L26.0906 19.6249L27.5656 20.2655L27.3406 20.8749ZM26.8969 21.3187L26.3 21.553L25.6562 20.0874L26.8969 21.3187ZM26.8969 26.6749L25.6469 27.9249L26.2906 26.4499L26.8969 26.6749ZM26.1 28.3749L27.35 27.1249L27.5844 27.7218L26.1 28.3749ZM32.7 27.1249L33.95 28.3749L32.4719 27.7312L32.7 27.1249ZM33.1406 26.6812L33.75 26.4499L34.375 27.9249L33.1406 26.6812Z" fill="#FF0808"/>
</svg>
